<svg xmlns="http://www.w3.org/2000/svg" xmlns:xlink="http://www.w3.org/1999/xlink" viewBox="0 0 369.46 298.97"><defs><style>.cls-1{fill:url(#New_Gradient_Swatch_7);}.cls-2{fill:url(#New_Gradient_Swatch_7-2);}.cls-3{fill:url(#New_Gradient_Swatch_7-3);}.cls-4{fill:url(#New_Gradient_Swatch_7-4);}.cls-5{fill:url(#New_Gradient_Swatch_7-5);}.cls-6{fill:url(#New_Gradient_Swatch_7-6);}.cls-7{fill:url(#New_Gradient_Swatch_7-7);}.cls-8{fill:url(#New_Gradient_Swatch_7-8);}.cls-9{fill:url(#New_Gradient_Swatch_7-9);}.cls-10{fill:url(#New_Gradient_Swatch_7-10);}.cls-11{fill:url(#New_Gradient_Swatch_7-11);}.cls-12{opacity:0.5;fill:url(#New_Gradient_Swatch_7-12);}.cls-13{fill:url(#New_Gradient_Swatch_copy);}.cls-14{fill:#fff;}.cls-15{fill:url(#New_Gradient_Swatch_copy-2);}.cls-16{fill:url(#New_Gradient_Swatch_copy-3);}.cls-17{fill:url(#New_Gradient_Swatch_copy-4);}.cls-18{fill:url(#New_Gradient_Swatch_2);}.cls-19{fill:url(#New_Gradient_Swatch_2-2);}.cls-20{fill:url(#New_Gradient_Swatch_2-3);}.cls-21{fill:url(#New_Gradient_Swatch_2-4);}.cls-22{fill:url(#New_Gradient_Swatch_2-5);}.cls-23{fill:url(#New_Gradient_Swatch_2-6);}.cls-24{fill:url(#New_Gradient_Swatch_2-7);}.cls-25{fill:url(#New_Gradient_Swatch_2-8);}.cls-26{fill:url(#New_Gradient_Swatch_2-9);}.cls-27{fill:url(#New_Gradient_Swatch_2-10);}.cls-28{fill:url(#New_Gradient_Swatch_2-11);}.cls-29{fill:url(#New_Gradient_Swatch_2-12);}.cls-30{fill:url(#New_Gradient_Swatch_2-13);}.cls-31{fill:url(#New_Gradient_Swatch_2-14);}.cls-32{fill:url(#New_Gradient_Swatch_2-15);}.cls-33{fill:url(#New_Gradient_Swatch_2-16);}.cls-34{fill:url(#New_Gradient_Swatch_2-17);}.cls-35{fill:url(#New_Gradient_Swatch_2-18);}.cls-36{fill:url(#New_Gradient_Swatch_2-19);}.cls-37{fill:url(#New_Gradient_Swatch_2-20);}.cls-38{fill:url(#New_Gradient_Swatch_2-21);}.cls-39{fill:url(#New_Gradient_Swatch_2-22);}.cls-40{fill:url(#New_Gradient_Swatch_2-23);}.cls-41{fill:url(#New_Gradient_Swatch_2-24);}.cls-42{fill:url(#New_Gradient_Swatch_2-25);}.cls-43{fill:url(#New_Gradient_Swatch_2-26);}.cls-44{fill:url(#New_Gradient_Swatch_2-27);}.cls-45{fill:url(#New_Gradient_Swatch_2-28);}.cls-46{fill:url(#New_Gradient_Swatch_2-29);}</style><linearGradient id="New_Gradient_Swatch_7" x1="342.7" y1="253.45" x2="369.46" y2="253.45" gradientUnits="userSpaceOnUse"><stop offset="0" stop-color="#ff5050"/><stop offset="1" stop-color="#ff4980"/></linearGradient><linearGradient id="New_Gradient_Swatch_7-2" x1="282.58" y1="150.41" x2="309.85" y2="150.41" xlink:href="#New_Gradient_Swatch_7"/><linearGradient id="New_Gradient_Swatch_7-3" x1="58.81" y1="209.23" x2="78.25" y2="209.23" xlink:href="#New_Gradient_Swatch_7"/><linearGradient id="New_Gradient_Swatch_7-4" x1="3.81" y1="60.37" x2="31.08" y2="60.37" xlink:href="#New_Gradient_Swatch_7"/><linearGradient id="New_Gradient_Swatch_7-5" x1="100.1" y1="110.22" x2="120.39" y2="110.22" xlink:href="#New_Gradient_Swatch_7"/><linearGradient id="New_Gradient_Swatch_7-6" x1="338.12" y1="52.81" x2="360.67" y2="52.81" xlink:href="#New_Gradient_Swatch_7"/><linearGradient id="New_Gradient_Swatch_7-7" x1="0" y1="151.61" x2="18.62" y2="151.61" xlink:href="#New_Gradient_Swatch_7"/><linearGradient id="New_Gradient_Swatch_7-8" x1="340.74" y1="13.55" x2="368.01" y2="13.55" xlink:href="#New_Gradient_Swatch_7"/><linearGradient id="New_Gradient_Swatch_7-9" x1="338.34" y1="103.48" x2="357.77" y2="103.48" xlink:href="#New_Gradient_Swatch_7"/><linearGradient id="New_Gradient_Swatch_7-10" x1="39.62" y1="26.22" x2="65.85" y2="26.22" xlink:href="#New_Gradient_Swatch_7"/><linearGradient id="New_Gradient_Swatch_7-11" x1="176.04" y1="101.45" x2="184.12" y2="101.45" xlink:href="#New_Gradient_Swatch_7"/><linearGradient id="New_Gradient_Swatch_7-12" x1="45.83" y1="151.48" x2="79.4" y2="151.48" xlink:href="#New_Gradient_Swatch_7"/><linearGradient id="New_Gradient_Swatch_copy" x1="259.79" y1="90.18" x2="320.18" y2="90.18" gradientUnits="userSpaceOnUse"><stop offset="0" stop-color="#c7edf2"/><stop offset="1" stop-color="#c4deef"/></linearGradient><linearGradient id="New_Gradient_Swatch_copy-2" x1="223.05" y1="164.41" x2="234.09" y2="164.41" xlink:href="#New_Gradient_Swatch_copy"/><linearGradient id="New_Gradient_Swatch_copy-3" x1="113.48" y1="229.11" x2="306.76" y2="229.11" xlink:href="#New_Gradient_Swatch_copy"/><linearGradient id="New_Gradient_Swatch_copy-4" x1="52.36" y1="159.5" x2="112.76" y2="159.5" xlink:href="#New_Gradient_Swatch_copy"/><linearGradient id="New_Gradient_Swatch_2" x1="276.6" y1="132.49" x2="253.84" y2="137.34" gradientUnits="userSpaceOnUse"><stop offset="0" stop-color="#00bdcd"/><stop offset="1" stop-color="#0083c5"/></linearGradient><linearGradient id="New_Gradient_Swatch_2-2" x1="296.96" y1="138.84" x2="277.45" y2="142.99" xlink:href="#New_Gradient_Swatch_2"/><linearGradient id="New_Gradient_Swatch_2-3" x1="284" y1="57.46" x2="295.81" y2="122.52" xlink:href="#New_Gradient_Swatch_2"/><linearGradient id="New_Gradient_Swatch_2-4" x1="293.43" y1="56.46" x2="298.94" y2="86.82" xlink:href="#New_Gradient_Swatch_2"/><linearGradient id="New_Gradient_Swatch_2-5" x1="194.56" y1="165.62" x2="180.68" y2="165.62" xlink:href="#New_Gradient_Swatch_2"/><linearGradient id="New_Gradient_Swatch_2-6" x1="234.8" y1="156.11" x2="222.34" y2="156.11" xlink:href="#New_Gradient_Swatch_2"/><linearGradient id="New_Gradient_Swatch_2-7" x1="292.31" y1="228.43" x2="192.62" y2="228.43" xlink:href="#New_Gradient_Swatch_2"/><linearGradient id="New_Gradient_Swatch_2-8" x1="189.49" y1="199.99" x2="116.01" y2="199.99" xlink:href="#New_Gradient_Swatch_2"/><linearGradient id="New_Gradient_Swatch_2-9" x1="282.44" y1="227.53" x2="225.82" y2="227.53" xlink:href="#New_Gradient_Swatch_2"/><linearGradient id="New_Gradient_Swatch_2-10" x1="254.09" y1="229.83" x2="219.23" y2="229.83" xlink:href="#New_Gradient_Swatch_2"/><linearGradient id="New_Gradient_Swatch_2-11" x1="261.52" y1="241.05" x2="253.91" y2="218.46" xlink:href="#New_Gradient_Swatch_2"/><linearGradient id="New_Gradient_Swatch_2-12" x1="157.26" y1="223.43" x2="154.06" y2="257.77" xlink:href="#New_Gradient_Swatch_2"/><linearGradient id="New_Gradient_Swatch_2-13" x1="262.37" y1="173.24" x2="227.91" y2="173.24" xlink:href="#New_Gradient_Swatch_2"/><linearGradient id="New_Gradient_Swatch_2-14" x1="189.82" y1="179.13" x2="155.38" y2="179.13" xlink:href="#New_Gradient_Swatch_2"/><linearGradient id="New_Gradient_Swatch_2-15" x1="200.99" y1="169.19" x2="188.08" y2="169.19" xlink:href="#New_Gradient_Swatch_2"/><linearGradient id="New_Gradient_Swatch_2-16" x1="230.31" y1="184.92" x2="195.65" y2="184.92" xlink:href="#New_Gradient_Swatch_2"/><linearGradient id="New_Gradient_Swatch_2-17" x1="230.06" y1="153.14" x2="151.21" y2="153.14" xlink:href="#New_Gradient_Swatch_2"/><linearGradient id="New_Gradient_Swatch_2-18" x1="200.36" y1="161.56" x2="157.46" y2="161.56" xlink:href="#New_Gradient_Swatch_2"/><linearGradient id="New_Gradient_Swatch_2-19" x1="183.94" y1="154.72" x2="172.97" y2="154.72" xlink:href="#New_Gradient_Swatch_2"/><linearGradient id="New_Gradient_Swatch_2-20" x1="262.18" y1="139.19" x2="196.93" y2="139.19" xlink:href="#New_Gradient_Swatch_2"/><linearGradient id="New_Gradient_Swatch_2-21" x1="235.86" y1="149.69" x2="198.32" y2="149.69" xlink:href="#New_Gradient_Swatch_2"/><linearGradient id="New_Gradient_Swatch_2-22" x1="220.93" y1="134.2" x2="212.97" y2="134.2" xlink:href="#New_Gradient_Swatch_2"/><linearGradient id="New_Gradient_Swatch_2-23" x1="310.33" y1="229.1" x2="198.63" y2="229.1" xlink:href="#New_Gradient_Swatch_2"/><linearGradient id="New_Gradient_Swatch_2-24" x1="205.78" y1="268.6" x2="110.46" y2="268.6" xlink:href="#New_Gradient_Swatch_2"/><linearGradient id="New_Gradient_Swatch_2-25" x1="159.57" y1="189.78" x2="109.91" y2="189.78" xlink:href="#New_Gradient_Swatch_2"/><linearGradient id="New_Gradient_Swatch_2-26" x1="104.27" y1="201.72" x2="156.31" y2="201.72" xlink:href="#New_Gradient_Swatch_2"/><linearGradient id="New_Gradient_Swatch_2-27" x1="85.69" y1="221.88" x2="156.31" y2="221.88" xlink:href="#New_Gradient_Swatch_2"/><linearGradient id="New_Gradient_Swatch_2-28" x1="81.65" y1="126.45" x2="83.63" y2="192.54" xlink:href="#New_Gradient_Swatch_2"/><linearGradient id="New_Gradient_Swatch_2-29" x1="72.22" y1="127.44" x2="73.14" y2="158.28" xlink:href="#New_Gradient_Swatch_2"/></defs><title>Asset 2</title><g id="Layer_2" data-name="Layer 2"><g id="Layer_1-2" data-name="Layer 1"><path class="cls-1" d="M343.23,249.57c2.44,3.88,5.08,7.8,9,10.34,4.52,2.95,9.76,2.64,14.84,1.68,4.22-.81,2.43-7.25-1.78-6.45-3.6.69-7.2.95-10.27-1.41-2.55-2-4.31-4.83-6-7.53-2.28-3.63-8.07-.28-5.77,3.37Z"/><path class="cls-2" d="M291,164l-.1-8.29-8.28-.55,6.42-5.25-4.73-6.82,8.11,1.75,2.38-8,3.69,7.43,7.69-3.1-3.5,7.52,7.21,4.09-8.06,1.94,1.31,8.19-6.55-5.09Zm-4.86-10,6.1.41.07,6.11,4.12-4.52,4.83,3.76-1-6,5.94-1.44-5.32-3,2.58-5.54L297.79,146l-2.72-5.47-1.75,5.85-6-1.28,3.49,5Z"/><path class="cls-3" d="M65.62,219l-1.55-7.32-5.26-5.31,7.32-1.56,5.32-5.25L73,206.83l5.25,5.31-7.31,1.56Zm-2.36-11.3,2.85,2.89.84,4,2.89-2.85,4-.84L71,207.93l-.84-4-2.88,2.85Z"/><path class="cls-4" d="M12.19,73.92l-.1-8.29-8.28-.55,6.42-5.25L5.5,53l8.11,1.74L16,46.82l3.69,7.42,7.69-3.09-3.5,7.52,7.21,4.08L23,64.7l1.31,8.19L17.78,67.8ZM7.33,64l6.1.4.07,6.12L17.62,66l4.83,3.75-1-6,5.94-1.43-5.32-3,2.58-5.54L19,56,16.3,50.49l-1.75,5.86-6-1.29,3.49,5Z"/><path class="cls-5" d="M110.25,120.36l-3.59-6.55-6.56-3.59,6.56-3.59,3.59-6.55,3.58,6.55,6.56,3.59-6.56,3.59Zm-5.51-10.14,3.56,1.94,2,3.56,1.94-3.56,3.56-1.94-3.56-2-1.94-3.55-2,3.55Z"/><path class="cls-6" d="M338.24,45.59c1.16,4.56,2.55,9.24,5.7,12.86,3.45,4,8.4,5.1,13.39,5.71,1.8.22,3.32-1.69,3.34-3.34,0-2-1.56-3.12-3.34-3.34-3.46-.43-6.93-1.3-9.06-4.28-2-2.75-2.77-6.17-3.59-9.38-1.06-4.17-7.51-2.4-6.44,1.77Z"/><path class="cls-7" d="M5,164.2c3.91-2.15,7.85-4.5,10.57-8.12,3.12-4.16,3.39-9.15,2.75-14.15A3.45,3.45,0,0,0,15,138.59c-1.63,0-3.57,1.55-3.34,3.34.48,3.74.78,7.62-1.81,10.69-2.17,2.57-5.29,4.21-8.2,5.81-3.77,2.06-.4,7.83,3.37,5.77Z"/><path class="cls-8" d="M349.12,27.1,349,18.81l-8.27-.55L347.16,13,342.43,6.2l8.11,1.74L352.91,0l3.69,7.43,7.7-3.1-3.51,7.52L368,15.93,360,17.88l1.3,8.19L354.71,21Zm-4.87-10,6.1.4.08,6.12,4.12-4.52,4.83,3.75-1-6,5.95-1.43-5.32-3,2.58-5.54L356,9.15l-2.72-5.48-1.76,5.86-6-1.28,3.48,5Z"/><path class="cls-9" d="M345.14,113.2l-1.55-7.31-5.25-5.32L345.65,99,351,93.77l1.55,7.31,5.25,5.32L350.46,108Zm-2.35-11.3,2.85,2.89.84,4,2.88-2.84,4-.85-2.85-2.88-.84-4-2.89,2.85Z"/><path class="cls-10" d="M42.88,35.07c4.46.07,9,0,13.2-1.81,4.77-2.07,7.48-6.27,9.4-10.92a3.45,3.45,0,0,0-1.24-4.56c-1.41-.82-3.87-.42-4.56,1.24-1.43,3.48-3.1,7-6.86,8.39-3.17,1.16-6.69,1-10,1-4.3-.07-4.23,6.61.07,6.69Z"/><path class="cls-11" d="M180.08,105.49a4,4,0,1,1,4-4A4,4,0,0,1,180.08,105.49Zm0-7.18a3.14,3.14,0,1,0,3.14,3.14A3.15,3.15,0,0,0,180.08,98.31Z"/><polygon class="cls-12" points="62.62 134.7 68.55 145.55 79.4 151.49 68.55 157.42 62.62 168.27 56.68 157.42 45.83 151.49 56.68 145.55 62.62 134.7"/><path class="cls-13" d="M312.25,69.56a30.2,30.2,0,0,1-41.56,43.65h0a29.87,29.87,0,0,1-7.67-9.65A30.19,30.19,0,0,1,276.41,63a29.79,29.79,0,0,1,8.47-2.8l.07,0a15.1,15.1,0,1,0,26.84,9.39Z"/><path class="cls-14" d="M280.29,227.15a26.18,26.18,0,0,1-25.79,26.54c-.38,0-.76,0-1.12,0a26.16,26.16,0,1,1,26.91-26.51Z"/><path class="cls-14" d="M259.74,156.63c6.87-8.17,12.07-21.54,10.95-43.42a30.37,30.37,0,0,0,20.49,7c1.08,17-2.38,30.65-7.94,41.52l-23.32-2.44C259.87,158.42,259.83,157.55,259.74,156.63Z"/><path class="cls-14" d="M220.2,129.28c-5-1.56-11.69-1.9-20.44-.51-.23-.08-.45-.18-.68-.25h0c4.11-5.75,11-10.28,21.94-12,31-4.88,37.48,24.33,38.72,40.13.09.92.13,1.79.18,2.61.11,2.24.12,4.06.11,5.3h0c1.25,4.56-3.47,11.66-11.52,14.33s-16.06,1.25-17.58-3.31c-.14-.46-.58-2-.85-3.26a64.31,64.31,0,0,0,4-15.77C235.35,146,233.64,133.36,220.2,129.28Z"/><path class="cls-14" d="M246.48,255.8a26.16,26.16,0,0,1-3-52.19,26.16,26.16,0,0,0,9.9,50v0C250.8,254.76,248,255.79,246.48,255.8Z"/><path class="cls-15" d="M233.17,156.43l.92.1a64.31,64.31,0,0,1-4,15.77l-2.68.46a90.29,90.29,0,0,0-4.33-16.64h0A68.33,68.33,0,0,1,233.17,156.43Z"/><path class="cls-14" d="M227.91,176.79c1.52,4.55-4.08,10.25-12.28,13s-16.06,1.24-17.58-3.31c-.23-.73-.32-.4-.21-1.18a60.2,60.2,0,0,0,1-8.54,55.68,55.68,0,0,0-1.24-15.64c-2-8.66-7-17.16-17.83-20.74-5.37-1.76-12.21-2.33-20.87-1.1,4.12-5.82,11-10.39,22-12.13a36.08,36.08,0,0,1,18.16,1.4c.23.07.45.17.68.25a34.17,34.17,0,0,1,13.93,10.38,58.35,58.35,0,0,1,9.36,17,90.29,90.29,0,0,1,4.33,16.64C227.78,175.27,227.91,176.79,227.91,176.79Z"/><path class="cls-14" d="M220.2,129.28c-1.27,1.19-5.1,5.08-6.51,9.87a34.17,34.17,0,0,0-13.93-10.38C208.51,127.38,215.19,127.72,220.2,129.28Z"/><path class="cls-14" d="M197.6,161.09a55.68,55.68,0,0,1,1.24,15.64c-4.15-.28-7.33-1.91-8.24-4.63-1-3-.08-6.08,3.24-8.73a19.7,19.7,0,0,1,3.66-2.26Z"/><path class="cls-14" d="M182.51,169.07h0c2.48.73,4.28,2.12,4.91,4,1.51,4.55-3.9,10.45-12.09,13.18s-16.29.06-17.8-4.5c0,0-.7-1.79-1.53-4.74-2.33-8.3-5.67-25.74,2.9-37.82,8.66-1.23,15.5-.66,20.87,1.1-3.31,3.26-11,13.32,1.63,27.53C181.74,168.27,182.12,168.67,182.51,169.07Z"/><path class="cls-14" d="M170.56,239.61a15.11,15.11,0,0,1-14.1,16,15.94,15.94,0,0,1-3.17-.12,15.11,15.11,0,0,1-.44-29.82l.72-.1a9.53,9.53,0,0,1,1-.1A15.11,15.11,0,0,1,170.56,239.61Z"/><path class="cls-16" d="M254.5,253.69a26.17,26.17,0,1,0-11-50.08,26.16,26.16,0,0,0,3,52.19c1.55,0,4.32-1,6.9-2.1v0C253.74,253.69,254.12,253.69,254.5,253.69Zm-26.59-76.9s-.13-1.52-.53-4l2.68-.46c.27,1.25.71,2.8.85,3.26,1.52,4.56,9.39,6,17.58,3.31s12.77-9.77,11.52-14.33h0c0-1.24,0-3.06-.11-5.3l23.32,2.44,5.79.61A15.58,15.58,0,0,1,303,176.91L306.73,242a20.32,20.32,0,0,1-12.24,19.76l-79.17,33.91A52.76,52.76,0,0,1,202.21,299l-76.85-24.52a15.83,15.83,0,0,1-11-14.86L114,238.24a84.15,84.15,0,0,0,39.22,17.6l0-.31a15.94,15.94,0,0,0,3.17.12,15.1,15.1,0,0,0-1.94-30.14,9.53,9.53,0,0,0-1,.1l-.72.1c-6.08.81-27,1.64-39.32-23.23h0l0-3.19a9.55,9.55,0,0,1,6.3-9.1L156,177.07c.83,3,1.53,4.74,1.53,4.74,1.51,4.56,9.59,7.22,17.8,4.5s13.6-8.63,12.09-13.18c-.63-1.93-2.43-3.32-4.91-4h0c-.39-.4-.77-.8-1.11-1.19l12.44-4.51c-3.32,2.65-4.24,5.74-3.24,8.73.91,2.72,4.09,4.35,8.24,4.63a60.2,60.2,0,0,1-1,8.54c-.11.78,0,.45.21,1.18,1.52,4.55,9.39,6,17.58,3.31S229.43,181.34,227.91,176.79Z"/><path class="cls-14" d="M153.29,255.53l0,.31A84.15,84.15,0,0,1,114,238.24h0c-12-9.91-22.87-25.28-26.35-49a30.32,30.32,0,0,0,18.6-11.07,84.56,84.56,0,0,0,7.25,24.28h0c12.27,24.87,33.24,24,39.32,23.23a15.11,15.11,0,0,0,.44,29.82Z"/><path class="cls-17" d="M106.28,178.19a30.2,30.2,0,0,1-52.93-26.36,30.87,30.87,0,0,1,3.19-7.67l.47-.08a15.09,15.09,0,1,0,24.27-14.77h.07a30.21,30.21,0,0,1,24.93,48.87Z"/><path class="cls-18" d="M259.75,156.63a71.14,71.14,0,0,0,4.73-10.28,83.38,83.38,0,0,0,3-10.71c.77-3.64,1.33-7.33,1.85-11.07s.81-7.52,1.38-11.37a53.28,53.28,0,0,1,1.37,11.53,54.38,54.38,0,0,1-1.14,11.64A42.63,42.63,0,0,1,267,147.46,29.35,29.35,0,0,1,259.75,156.63Z"/><path class="cls-19" d="M283.23,161.68c1-3.51,2-6.89,2.83-10.3s1.61-6.8,2.23-10.23,1.14-6.89,1.57-10.38.8-7,1.32-10.62a46,46,0,0,1,1.46,10.76,55,55,0,0,1-.87,10.87,51.5,51.5,0,0,1-3.09,10.48A39.68,39.68,0,0,1,283.23,161.68Z"/><path class="cls-20" d="M284.89,60.2a32.81,32.81,0,0,0-4.55,2,25.17,25.17,0,0,0-4,2.64l-.94.75a9.19,9.19,0,0,0-.91.74L272.74,68a31.23,31.23,0,0,0-2.88,3.59c-.22.31-.49.57-.73.86s-.49.57-.72.86a11.32,11.32,0,0,0-1.33,1.82c-.37.65-.84,1.25-1.15,1.94s-.68,1.34-1,2a27.48,27.48,0,0,0-2.15,8.73,26.67,26.67,0,0,0,.74,8.94,29.33,29.33,0,0,0,3.63,8.22,27.57,27.57,0,0,0,14,10.86,28.19,28.19,0,0,0,8.87,1.46c.75,0,1.5,0,2.25-.09l2.24-.26,2.2-.48c.74-.15,1.43-.45,2.15-.66a26.86,26.86,0,0,0,14-10.88,27.41,27.41,0,0,0,4.38-17.17,27.58,27.58,0,0,0-1-9.23,24.56,24.56,0,0,0-1.6-4.57,30.5,30.5,0,0,0-2.37-4.38A27.16,27.16,0,0,1,319,77.28a30.38,30.38,0,0,1,3.89,10A33.11,33.11,0,0,1,317.64,108a32.66,32.66,0,0,1-16.91,13.16c-.87.26-1.72.61-2.61.8l-2.67.58-2.71.32c-.9.12-1.81.06-2.72.1a34.25,34.25,0,0,1-10.72-1.76,33.3,33.3,0,0,1-16.94-13.14A35.08,35.08,0,0,1,258,98.16a32.14,32.14,0,0,1-.91-10.83,33.43,33.43,0,0,1,2.61-10.54c.38-.82.8-1.63,1.2-2.45s.94-1.56,1.4-2.34a24.27,24.27,0,0,1,1.56-2.24l.79-1.11a7.41,7.41,0,0,1,1-1,29.5,29.5,0,0,1,9.19-5.55A27,27,0,0,1,284.89,60.2Z"/><path class="cls-21" d="M311.75,68.69a13.73,13.73,0,0,1-.33,7.58A15.3,15.3,0,0,1,307,82.89a14.16,14.16,0,0,1-3.4,2.28l-.93.45-1,.36a16.94,16.94,0,0,1-2,.57,16.33,16.33,0,0,1-15.26-4.84,16.16,16.16,0,0,1-2.4-3.37,14.84,14.84,0,0,1-1.46-3.83,15.29,15.29,0,0,1,.23-8A13.7,13.7,0,0,1,285,60.18v0h-.07l.06,0h0a15.94,15.94,0,0,0-1.12,13.35,14.48,14.48,0,0,0,3.52,5.31A14,14,0,0,0,299,82.55a14.64,14.64,0,0,0,6-2.3A16,16,0,0,0,311.75,68.69Z"/><path class="cls-22" d="M193.84,163.37a18.8,18.8,0,0,1-2.92,1.65c-1,.48-2,.9-3.06,1.28s-2.09.7-3.16,1a20.89,20.89,0,0,1-3.3.6,18.8,18.8,0,0,1,2.92-1.65,31.39,31.39,0,0,1,3.06-1.28c1-.37,2.09-.7,3.16-1A20.21,20.21,0,0,1,193.84,163.37Z"/><path class="cls-23" d="M234.09,156.53a15.93,15.93,0,0,1-2.79.29c-.92,0-1.83,0-2.75,0s-1.82-.1-2.73-.2a18.19,18.19,0,0,1-2.76-.49,11.61,11.61,0,0,1,2.76-.63,20,20,0,0,1,2.79-.11A15.61,15.61,0,0,1,234.09,156.53Z"/><path class="cls-24" d="M290.16,165.85C276,172.64,261.71,179,247.34,185.31c-7.17,3.16-14.39,6.19-21.59,9.28l-21.69,9.07-2.72,1.11a9.42,9.42,0,0,0-2.16,1.06,5.73,5.73,0,0,0-2.22,3.54,4.79,4.79,0,0,0-.09,1.07c0,.35,0,.76.08,1.28l.22,2.93.41,5.86c.49,7.83,1.06,15.65,1.47,23.48.9,15.66,1.65,31.33,2,47-2.1-15.55-3.78-31.13-5.31-46.71-.8-7.79-1.45-15.59-2.17-23.39l-.5-5.85-.24-2.92c0-.46-.11-1-.11-1.65a8.92,8.92,0,0,1,.14-1.86,9.92,9.92,0,0,1,3.83-6.21,13.33,13.33,0,0,1,3.06-1.6l2.71-1.13,21.77-8.84c7.29-2.88,14.55-5.83,21.87-8.63C260.67,176.54,275.34,171,290.16,165.85Z"/><path class="cls-25" d="M117.44,194.45c6,.34,11.91,1,17.83,1.67s11.81,1.57,17.7,2.46l8.82,1.46c2.93.54,5.86,1,8.79,1.62,5.85,1.13,11.68,2.36,17.48,3.88-6-.34-11.91-1-17.83-1.67-3-.33-5.91-.77-8.86-1.15l-8.84-1.31c-5.88-.95-11.76-1.94-17.61-3.09S123.24,196,117.44,194.45Z"/><path class="cls-26" d="M280.29,227.15A27.12,27.12,0,0,1,273.11,246a27.2,27.2,0,0,1-44.9-7.28,27.24,27.24,0,0,1-.31-21.61,27.21,27.21,0,0,1,44.68-8.54A27.13,27.13,0,0,1,280.29,227.15Zm0,0a26.34,26.34,0,0,0-2.2-10,25.56,25.56,0,0,0-5.93-8.23,25.06,25.06,0,0,0-8.6-5.16,25.08,25.08,0,0,0-26.86,6.76,25,25,0,0,0-6.59,17.29,24.16,24.16,0,0,0,1.88,9.19,25,25,0,0,0,5.18,7.91,25.06,25.06,0,0,0,35.51.59,25.51,25.51,0,0,0,5.69-8.39A26.14,26.14,0,0,0,280.29,227.15Z"/><path class="cls-27" d="M253.38,253.7a39.3,39.3,0,0,1-5.09,2,12,12,0,0,1-1.35.3,9.3,9.3,0,0,1-1.39,0,19.61,19.61,0,0,1-2.76-.12,26.27,26.27,0,0,1-23-21A26.22,26.22,0,0,1,233,206.61a25.7,25.7,0,0,1,10.47-3,26.31,26.31,0,0,0-22.25,20.45,25.76,25.76,0,0,0-.07,10.53,25.29,25.29,0,0,0,4.07,9.72,26.72,26.72,0,0,0,7.68,7.26,25.66,25.66,0,0,0,10,3.66,20,20,0,0,0,2.68.28,9.9,9.9,0,0,0,1.33,0,8.7,8.7,0,0,0,1.31-.21A48.57,48.57,0,0,0,253.38,253.7Z"/><path class="cls-28" d="M245.4,242.9a10.27,10.27,0,0,1-2.47-2.74,8.94,8.94,0,0,1-.91-1.66,11.19,11.19,0,0,1-.67-1.81,15.71,15.71,0,0,1-.13-7.92,17.7,17.7,0,0,1,3.77-7.39,12,12,0,0,1,1.49-1.53,15.26,15.26,0,0,1,1.64-1.37,15,15,0,0,1,1.81-1.16,15.63,15.63,0,0,1,1.92-1,20.17,20.17,0,0,1,4.1-1.23,18.84,18.84,0,0,1,2.12-.24,11.77,11.77,0,0,1,2.14,0,17.43,17.43,0,0,1,8,2.37,15.8,15.8,0,0,1,5.64,5.55c.32.56.59,1.15.85,1.72a15.67,15.67,0,0,1,.58,1.8c.13.63.23,1.24.31,1.83a16.17,16.17,0,0,1,0,1.85l0,.18a.32.32,0,0,1-.35.28.31.31,0,0,1-.25-.18,15.28,15.28,0,0,0-3.62-4.8,15.65,15.65,0,0,0-5.08-3.14,15.74,15.74,0,0,0-19.89,8.52,16.28,16.28,0,0,0-.26,11.78.31.31,0,0,1-.19.41.29.29,0,0,1-.3-.05Z"/><path class="cls-29" d="M154.52,225.52a16.21,16.21,0,0,1,16.68,20.41,16.2,16.2,0,1,1-27.27-15.51A16.18,16.18,0,0,1,154.52,225.52Zm0,0a14,14,0,1,0,13.94,8.68,14.46,14.46,0,0,0-3.19-4.74A14.2,14.2,0,0,0,154.52,225.52Z"/><path class="cls-30" d="M259.94,164.26a5.88,5.88,0,0,1,.81,2.73,9.69,9.69,0,0,1-.35,2.93,14.34,14.34,0,0,1-2.76,5.18,19.29,19.29,0,0,1-9.84,6.22,20.73,20.73,0,0,1-11.61.13,12.46,12.46,0,0,1-2.78-1.28,7.92,7.92,0,0,1-2.28-2.19,4,4,0,0,1-.39-.7,3.38,3.38,0,0,1-.3-.74l-.21-.76c0-.23,0-.46,0-.7-.07-.93-.13-1.86-.12-2.78.46.82.86,1.63,1.25,2.43.1.2.2.4.29.6l.33.48a2.16,2.16,0,0,0,.38.42,2.08,2.08,0,0,0,.41.37,8.45,8.45,0,0,0,4.25,1.56,25.38,25.38,0,0,0,9.67-1,22.12,22.12,0,0,0,8.58-4.43,16.47,16.47,0,0,0,3.25-3.66A8.14,8.14,0,0,0,259.94,164.26Z"/><path class="cls-31" d="M182.29,169a7.26,7.26,0,0,1,5.59,2.62,6.21,6.21,0,0,1,1.19,3.37,8.57,8.57,0,0,1-.66,3.46,14.82,14.82,0,0,1-3.93,5.22,23.09,23.09,0,0,1-5.3,3.4A21.26,21.26,0,0,1,166.89,189a14.75,14.75,0,0,1-5.89-2.21,10.32,10.32,0,0,1-2.32-2.15,6,6,0,0,1-1.15-2.83,8,8,0,0,0,4.41,3.1,16.64,16.64,0,0,0,5.24.73,24.58,24.58,0,0,0,10.19-2.45c3.19-1.49,6.26-3.54,8-6.23a6.56,6.56,0,0,0,.86-2.08,4.33,4.33,0,0,0,.05-1.08,3.1,3.1,0,0,0-.23-1.1C185.55,171.21,184,170,182.29,169Z"/><path class="cls-32" d="M198.84,176.73a8.85,8.85,0,0,1-6.67-.24,6.81,6.81,0,0,1-3-2.59,8,8,0,0,1-1.1-3.84,7.85,7.85,0,0,1,.88-3.83,8.82,8.82,0,0,1,2.35-2.82,10.53,10.53,0,0,1,6.18-2.29,50.12,50.12,0,0,0-3.73,4.61,7.2,7.2,0,0,0-1.39,4.22,5.45,5.45,0,0,0,.12,1.05,4.52,4.52,0,0,0,.25.94,4.7,4.7,0,0,0,1.22,1.71A22,22,0,0,0,198.84,176.73Z"/><path class="cls-33" d="M227.91,176.79a4.89,4.89,0,0,1,.74,2.58,7.71,7.71,0,0,1-.55,2.76,13.48,13.48,0,0,1-3.15,4.53,23.11,23.11,0,0,1-9.3,5.34,21.22,21.22,0,0,1-10.77.62,11.61,11.61,0,0,1-5.06-2.4c-1.43-1.25-2.43-3.27-2-4.95,0,.2,0,.47.14.56a4,4,0,0,1,.39.54,5,5,0,0,0,.75.89,5.76,5.76,0,0,0,1.86,1.2,12.73,12.73,0,0,0,4.36.82,28.42,28.42,0,0,0,9-1.38,33.52,33.52,0,0,0,8.43-3.84,15.88,15.88,0,0,0,3.45-3A6.14,6.14,0,0,0,227.91,176.79Z"/><path class="cls-34" d="M227.91,176.79a109.2,109.2,0,0,0-6-17.29,61.91,61.91,0,0,0-7.66-16A34.73,34.73,0,0,0,201.54,132a19,19,0,0,0-1.94-.9l-2-.76c-.68-.23-1.38-.38-2.07-.58-.34-.09-.69-.19-1-.27l-1.06-.17a35.61,35.61,0,0,0-8.64-.43,47.7,47.7,0,0,0-8.64,1.54,31.59,31.59,0,0,0-8,3.29,24.06,24.06,0,0,0-10.61,12.77,40.11,40.11,0,0,0-1.87,17.25,68.58,68.58,0,0,0,.39,9,82.11,82.11,0,0,0,1.44,9.09,58,58,0,0,1-3.69-8.6,66.27,66.27,0,0,1-2.42-9.16,44.39,44.39,0,0,1,2.12-19.1A28.44,28.44,0,0,1,166,130a36.36,36.36,0,0,1,9-3.73,52.35,52.35,0,0,1,9.47-1.68,40.08,40.08,0,0,1,9.71.48l1.21.2c.4.09.79.21,1.19.31.79.22,1.59.41,2.37.66l2.3.87c.78.27,1.49.7,2.23,1a34.57,34.57,0,0,1,8,5.6,47.11,47.11,0,0,1,6.31,7.32,69.12,69.12,0,0,1,8.24,17.1A75.63,75.63,0,0,1,227.91,176.79Z"/><path class="cls-35" d="M197.84,185.27a81.85,81.85,0,0,0-.36-18.33,46.61,46.61,0,0,0-2.1-8.74,29.72,29.72,0,0,0-4-7.82A25.33,25.33,0,0,0,177,140.77a58.86,58.86,0,0,0-18.14-1.53,43.16,43.16,0,0,1,18.67-.64,15.83,15.83,0,0,1,2.33.57,18.61,18.61,0,0,1,2.29.76l2.23.95,2.13,1.19a26,26,0,0,1,7.11,6.63,30.9,30.9,0,0,1,4.28,8.65,41.22,41.22,0,0,1,1.75,9.35,54.62,54.62,0,0,1-.12,9.4A51.69,51.69,0,0,1,197.84,185.27Z"/><path class="cls-36" d="M179.78,140.35a32.43,32.43,0,0,0-1.36,3.94,15.06,15.06,0,0,0-1.71,3.31,14.57,14.57,0,0,0-.65,7.29,19.09,19.09,0,0,0,2.72,7,29.69,29.69,0,0,0,2.19,3.2c.47,1.3,1.07,2.54,1.54,4a28.2,28.2,0,0,1-3.79-2.19,35.47,35.47,0,0,1-2.4-3.5,21.83,21.83,0,0,1-3.09-8,17.49,17.49,0,0,1,.79-8.72,20.59,20.59,0,0,1,2-3.92A13,13,0,0,1,179.78,140.35Z"/><path class="cls-37" d="M260,164.54c-.85-4.09-1.74-8.07-2.87-11.94A66.7,66.7,0,0,0,254.72,141,43.31,43.31,0,0,0,250,130.36a26.63,26.63,0,0,0-7.76-8.15,24.22,24.22,0,0,0-10.49-3.82,38.86,38.86,0,0,0-11.52.43,36.77,36.77,0,0,0-10.93,3.65,28.28,28.28,0,0,0-10.2,6.05,25.06,25.06,0,0,1,8.17-9.84,40.92,40.92,0,0,1,12.2-4.08,42.75,42.75,0,0,1,12.84-.46,28.49,28.49,0,0,1,12.31,4.49,31.25,31.25,0,0,1,9,9.43,47.41,47.41,0,0,1,5.22,11.67,77.25,77.25,0,0,1,2.63,12.32A62.75,62.75,0,0,1,260,164.54Z"/><path class="cls-38" d="M230.06,172.3a81.21,81.21,0,0,0,3.05-17.19,42.52,42.52,0,0,0-.32-8.53,22.7,22.7,0,0,0-2.54-7.85,16.07,16.07,0,0,0-5.46-5.92,24.16,24.16,0,0,0-7.69-3.14c-5.55-1.24-11.46-1.23-17.35-.9a44.27,44.27,0,0,1,17.78-1.29,24,24,0,0,1,8.72,3,18.54,18.54,0,0,1,6.5,6.81,24.51,24.51,0,0,1,2.71,8.89,37.74,37.74,0,0,1-.13,9.08A52.06,52.06,0,0,1,230.06,172.3Z"/><path class="cls-39" d="M220.21,129.26c-1.05,1.78-2.21,3.33-3.29,5-.54.8-1.1,1.59-1.62,2.42s-1,1.65-1.61,2.52a8.75,8.75,0,0,1,.61-3,13.11,13.11,0,0,1,1.44-2.72,14.33,14.33,0,0,1,2-2.33A10.61,10.61,0,0,1,220.21,129.26Z"/><path class="cls-40" d="M202.21,299a48.67,48.67,0,0,0,14.23-4.47l6.74-3.38L230,287.8c4.51-2.22,9.05-4.37,13.58-6.53l6.81-3.23,6.83-3.16c9.11-4.23,18.24-8.42,27.42-12.48l6.88-3.06,1.71-.75c.47-.23.94-.45,1.39-.71a16.14,16.14,0,0,0,2.56-1.76A17,17,0,0,0,303,245.5a16.79,16.79,0,0,0,.13-3.09l-.2-3.72-.41-7.52-.75-15c-.43-10-.88-20.06-1.14-30.1l-.22-7.53,0-.94c0-.33,0-.63,0-.87l-.05-.79-.12-.78c-.06-.52-.24-1-.35-1.54s-.31-1-.55-1.49a13.32,13.32,0,0,0-3.82-5.12,13.62,13.62,0,0,0-5.9-2.8l-.83-.17-.93-.14-1.87-.29-3.72-.58c-2.48-.4-5-.76-7.45-1.19-5-.81-9.92-1.64-14.86-2.57,5,.11,10.05.33,15.08.56,2.51.09,5,.26,7.52.38l3.77.21,1.88.1.94,0,1,.1a17.48,17.48,0,0,1,7.84,3,18,18,0,0,1,5.63,6.4,17.74,17.74,0,0,1,.89,2,21,21,0,0,1,.62,2.09c.07.36.16.71.22,1.07l.14,1.09c.06.38.08.7.11,1l.08.94.65,7.5c.89,10,1.6,20,2.32,30l1,15,.46,7.51.22,3.8a22.45,22.45,0,0,1-.21,4.41A23.49,23.49,0,0,1,297.9,264c-.64.36-1.31.66-2,1l-1.75.73-7,2.87c-9.27,3.84-18.6,7.56-27.94,11.24l-7,2.77-7,2.69c-4.69,1.8-9.37,3.6-14.09,5.32l-7.07,2.62L217,295.7A50.89,50.89,0,0,1,202.21,299Z"/><path class="cls-41" d="M114,238.24a84.69,84.69,0,0,1,3,15.18c.16,1.26.29,2.53.4,3.8.06.63.12,1.26.15,1.9l0,.46,0,.38c0,.25.06.5.11.74a12.7,12.7,0,0,0,.8,2.85,12,12,0,0,0,1.36,2.61,14,14,0,0,0,4.2,4.13,13,13,0,0,0,1.31.74l.69.33c.22.1.58.2.86.3l3.6,1.23,14.4,5q14.39,5,28.69,10.25c9.53,3.52,19,7.08,28.49,10.87-9.9-2.38-19.72-5-29.52-7.65s-19.57-5.43-29.32-8.26l-14.61-4.3-3.64-1.09-1-.27c-.37-.1-.74-.2-1.1-.33a18,18,0,0,1-2.13-.88,17.89,17.89,0,0,1-9.9-14.76c0-.39,0-.77,0-1.16v-.57l0-.49c0-.63.06-1.27.11-1.9.07-1.27.17-2.54.28-3.81A85.64,85.64,0,0,1,114,238.24Z"/><path class="cls-42" d="M156,177.07a67.9,67.9,0,0,1-11.63,7.19,114.12,114.12,0,0,1-12.32,5.28l-3.16,1.1c-1.06.34-2.12.69-3.19,1s-2.14.64-3.23.91l-1.62.43a8.46,8.46,0,0,0-1.15.32,8.1,8.1,0,0,0-4,3.16,9.24,9.24,0,0,0-1.24,2.67c-.28,1.09-.58,2.23-1,3.34a33.23,33.23,0,0,1-1-3.35,9.72,9.72,0,0,1-.06-3.88,10.79,10.79,0,0,1,4.49-6.83,13.71,13.71,0,0,1,1.89-1.08l1.52-.71c1-.48,2-.91,3.06-1.36s2.07-.85,3.1-1.27l3.13-1.18A115,115,0,0,1,142.46,179,69,69,0,0,1,156,177.07Z"/><path class="cls-43" d="M154.54,225.41A32.6,32.6,0,0,1,135,225a34.83,34.83,0,0,1-9-4.54,38.26,38.26,0,0,1-7.39-6.87A52.65,52.65,0,0,1,109.3,196,74,74,0,0,1,106,176.73a159.71,159.71,0,0,0,5.86,18.36l1,2.17c.32.73.6,1.47,1,2.17.71,1.41,1.37,2.84,2.19,4.18a47.72,47.72,0,0,0,5.27,7.71,38.16,38.16,0,0,0,14.65,11.1A40.92,40.92,0,0,0,154.54,225.41Z"/><path class="cls-44" d="M154.54,256a62.13,62.13,0,0,1-12.82-2,78.41,78.41,0,0,1-12.33-4.33,74.16,74.16,0,0,1-11.48-6.4,75.49,75.49,0,0,1-10.17-8.38,69.88,69.88,0,0,1-8.37-10.2l-1.78-2.78L96,219c-.55-.94-1-1.94-1.49-2.93s-1-2-1.35-3a75.86,75.86,0,0,1-5.67-25.34A109.34,109.34,0,0,0,95.64,212a78.9,78.9,0,0,0,6.48,10.83,70.79,70.79,0,0,0,8.11,9.6,77.64,77.64,0,0,0,9.59,8.15,87.25,87.25,0,0,0,10.76,6.66,101,101,0,0,0,11.65,5.15A90.84,90.84,0,0,0,154.54,256Z"/><path class="cls-45" d="M81.35,129.32a26.93,26.93,0,0,1,10.29-.22,29.45,29.45,0,0,1,10.14,3.51,7.29,7.29,0,0,1,1.14.76l1,.92c.67.61,1.38,1.19,2,1.86a27,27,0,0,1,1.85,2c.57.71,1.15,1.41,1.69,2.14a33.66,33.66,0,0,1,4.75,9.77,32.47,32.47,0,0,1,1.36,10.78,35.13,35.13,0,0,1-2.22,10.63,33.26,33.26,0,0,1-13.83,16.38,33.9,33.9,0,0,1-10.12,3.95,27,27,0,0,1-2.69.47l-2.72.25H81.26c-.91,0-1.81-.16-2.71-.24a32.67,32.67,0,0,1-19.28-9.35,33.17,33.17,0,0,1-9.49-19.22,30.39,30.39,0,0,1,1.73-10.58,27.26,27.26,0,0,1,5-9,32.15,32.15,0,0,0-1.41,4.78,26.16,26.16,0,0,0-.61,4.81,27.52,27.52,0,0,0,.94,9.23,27.46,27.46,0,0,0,7.85,15.89,26.93,26.93,0,0,0,15.94,7.73c.75.06,1.49.2,2.24.2h2.26L86,186.6c.75,0,1.48-.27,2.22-.39a28.16,28.16,0,0,0,8.37-3.27A27.47,27.47,0,0,0,108,169.41a29.22,29.22,0,0,0,1.84-8.8,26.28,26.28,0,0,0-1.13-8.9,27.56,27.56,0,0,0-3.92-8.09c-.45-.6-.94-1.18-1.4-1.77a21.8,21.8,0,0,0-1.53-1.65,11.93,11.93,0,0,0-1.67-1.51c-.3-.23-.61-.45-.89-.69s-.61-.43-.89-.69a31.86,31.86,0,0,0-3.57-2.91l-2-1.22a8.55,8.55,0,0,0-1-.54l-1.07-.53a24.15,24.15,0,0,0-4.52-1.74A33.69,33.69,0,0,0,81.35,129.32Z"/><path class="cls-46" d="M56.84,143.21a15.94,15.94,0,0,0,9,9.89,14.58,14.58,0,0,0,6.3,1,14.05,14.05,0,0,0,10.61-6,14.78,14.78,0,0,0,2.35-5.93,16,16,0,0,0-3.88-12.82h0s0,0,0,0h0l.07,0h-.07v0a13.8,13.8,0,0,1,5.35,5.39,15.35,15.35,0,0,1,1.24,11.77,16.31,16.31,0,0,1-15.56,11.71,18,18,0,0,1-2.08-.14l-1-.15-1-.25a14.19,14.19,0,0,1-3.8-1.52,15.36,15.36,0,0,1-5.67-5.56A13.91,13.91,0,0,1,56.84,143.21Z"/></g></g></svg>