<?xml version="1.0" encoding="utf-8"?>
<!-- Generator: Adobe Illustrator 18.1.1, SVG Export Plug-In . SVG Version: 6.00 Build 0)  -->
<svg version="1.1" xmlns="http://www.w3.org/2000/svg" xmlns:xlink="http://www.w3.org/1999/xlink" x="0px" y="0px"
	 viewBox="0 0 700 700" style="enable-background:new 0 0 700 700;" xml:space="preserve">
<style type="text/css">
	.st0{fill:#C5EAF1;}
	.st1{fill:#FFFFFF;}
	.st2{fill:url(#SVGID_1_);}
	.st3{fill:url(#SVGID_2_);}
	.st4{fill:url(#SVGID_3_);}
	.st5{fill:url(#SVGID_4_);}
	.st6{fill:url(#SVGID_5_);}
	.st7{fill:url(#SVGID_6_);}
	.st8{fill:url(#SVGID_7_);}
	.st9{fill:url(#SVGID_8_);}
	.st10{fill:url(#SVGID_9_);}
	.st11{fill:url(#SVGID_10_);}
	.st12{fill:url(#SVGID_11_);}
	.st13{fill:url(#SVGID_12_);}
	.st14{fill:url(#SVGID_13_);}
	.st15{fill:url(#SVGID_14_);}
	.st16{fill:url(#SVGID_15_);}
	.st17{fill:url(#SVGID_16_);}
	.st18{fill:url(#SVGID_17_);}
	.st19{fill:url(#SVGID_18_);}
	.st20{fill:url(#SVGID_19_);}
	.st21{fill:url(#SVGID_20_);}
	.st22{fill:url(#SVGID_21_);}
	.st23{fill:url(#SVGID_22_);}
	.st24{fill:url(#SVGID_23_);}
	.st25{fill:url(#SVGID_24_);}
	.st26{fill:url(#SVGID_25_);}
	.st27{fill:url(#SVGID_26_);}
	.st28{fill:url(#SVGID_27_);}
	.st29{fill:url(#SVGID_28_);}
	.st30{fill:url(#SVGID_29_);}
	.st31{fill:url(#SVGID_30_);}
	.st32{fill:url(#SVGID_31_);}
	.st33{fill:url(#SVGID_32_);}
	.st34{fill:url(#SVGID_33_);}
	.st35{display:none;}
</style>
<g id="Icons">
	<g>
		<g id="XMLID_23_">
			<g>
				<path class="st0" d="M24.9,227.1c-9.5,3.4-15.7,12.5-15.6,22.5L11.4,399c0.1,7.5,2.4,14.6,6.3,20.7c4.8,7.4,12.2,13.3,21,16.1
					l140.9,47.4l-81-79.3c-19.5-0.1-35.9-15.2-37.2-35c-1.3-20.6,14.3-38.4,34.9-39.7c20.6-1.3,38.4,14.3,39.7,34.9
					c0.5,7.5-1.3,14.7-4.7,20.8l94.8,91.9l-15.3-197.3c-1.1-8.6,3.7-16.9,11.7-20.2l128-52.8l-3.6-8.6c-1.1,0.4-2.2,0.9-3.3,1.2
					c-20.3,6.7-39.8,3-43.6-8.2c-0.4-1.1-1.5-5-2.1-8.1l-6.6,1.1c1,6.2,1.3,10,1.3,10c3.8,11.3-10.1,25.4-30.4,32.1
					c-20.3,6.8-39.8,3.1-43.5-8.2c-0.6-1.8-0.8-1-0.6-2.9c0,0,1.8-8.6,2.5-21.1c-10.3-0.7-18.1-4.7-20.4-11.5
					c-2.4-7.4-0.2-15.1,8-21.6l-30.8,11.2c0.9,1,1.8,2,2.7,3c6.1,1.8,10.6,5.2,12.2,10c3.8,11.3-9.7,25.9-30,32.6
					c-20.3,6.7-40.3,0.1-44-11.1c0,0-1.7-4.4-3.8-11.7L24.9,227.1z"/>
				<path class="st1" d="M98.7,403.8c0.8,0,1.7,0,2.5-0.1c13.1-0.9,24.2-8.3,30.2-19c3.4-6.1,5.2-13.3,4.7-20.8
					c-1.3-20.6-19.1-36.2-39.7-34.9c-20.6,1.3-36.3,19.1-34.9,39.7C62.8,388.6,79.2,403.8,98.7,403.8z"/>
				<path class="st1" d="M243.3,493.4l-17.2-16.7l-94.8-91.9c-6,10.6-17.1,18.1-30.2,19c-0.9,0.1-1.7,0.1-2.5,0.1l81,79.3l83.5,81.7
					c5.1-11.7,13-21.9,23.1-29.7L243.3,493.4z"/>
				<path class="st1" d="M180.3,174.8c-1-1-1.9-2-2.7-3c-31.3-35.2-12.2-60.1-4-68.2c-13.3-4.4-30.3-5.8-51.7-2.7h0
					c-21.2,29.9-12.9,73.1-7.2,93.7c2.1,7.3,3.8,11.7,3.8,11.7c3.7,11.3,23.8,17.9,44,11.1c20.3-6.8,33.7-21.4,30-32.6
					C190.9,180.1,186.4,176.7,180.3,174.8z"/>
				<path class="st1" d="M121.8,100.9c21.4-3,38.4-1.6,51.7,2.7c26.9,8.9,39.1,29.9,44.2,51.4c3.3,13.8,3.6,27.8,3,38.7
					c-0.7,12.5-2.5,21.1-2.5,21.1c-0.2,1.9,0,1.1,0.6,2.9c3.8,11.3,23.2,15,43.5,8.2c20.3-6.7,34.2-20.8,30.4-32.1
					c0,0-0.3-3.8-1.3-10c-1.6-9.5-4.7-24.8-10.7-41.1c-5.2-14.2-12.7-29.3-23.2-42c-9-11-20.4-20.2-34.5-25.7
					c-0.6-0.2-1.1-0.5-1.7-0.6c-12.7-4.6-27.5-6.2-44.9-3.5C149,75.2,132,86.5,121.8,100.9z"/>
				<path class="st1" d="M208.4,160.7c-8.2,6.6-10.5,14.2-8,21.6c2.3,6.8,10.1,10.8,20.4,11.5c0.6-11,0.2-24.9-3-38.7l-0.3,0.1
					C213.8,156.8,210.8,158.7,208.4,160.7z"/>
				<linearGradient id="SVGID_1_" gradientUnits="userSpaceOnUse" x1="487.9703" y1="321.9357" x2="210.6546" y2="321.9357">
					<stop  offset="0" style="stop-color:#C7EDF2"/>
					<stop  offset="0.9987" style="stop-color:#C4DEEF"/>
				</linearGradient>
				<path class="st2" d="M350.5,206.5l-128,52.8c-8,3.3-12.8,11.6-11.7,20.2l15.3,197.3l17.2,16.7c6.2-0.9,12.4-2.6,18.2-5.1
					l196.1-84c14.5-6.2,25-18.8,28.8-33.6c1.3-4.9,1.8-10.1,1.5-15.4l-4.5-78.9l-2.6-44.3l-2.2-38.1c-1.1-18.9-15.7-34.2-34.6-36.2
					l-72.1-7.5h0c0.3,5.5,0.3,10.1,0.3,13.1v0c2.9,10.7-7.4,26.9-25.3,34.3L350.5,206.5z M284.6,328.6
					c-0.5-33.9,25.2-62.1,58.3-65.4v0c7.8-3.5,16.4-5.5,25.5-5.6c35.8-0.5,65.2,28.1,65.7,63.9c0.5,35.8-28.1,65.2-63.9,65.7
					c-0.9,0-1.8,0-2.8,0v0.1c-6.4,2.6-13.2,5.2-17.1,5.2C314.6,393,285.2,364.4,284.6,328.6z"/>
				<path class="st1" d="M273.6,76.2c33.3,10.1,37.5,41.3,34.4,67.5c-2.2,18.7-8.2,34.8-10,39.1c0.7,3.1,1.8,6.9,2.1,8.1
					c3.8,11.3,23.2,15,43.6,8.2c1.1-0.4,2.2-0.8,3.3-1.2c17.9-7.4,28.1-23.6,25.3-34.3v0c0-3,0-7.6-0.3-13.1
					c-1.8-36.9-15.1-118.6-96.3-105.8c-27.2,4.3-44.2,15.5-54.4,29.7l0,0.1c0.6,0.1,1.1,0.4,1.7,0.6l0,0
					C244.7,71.6,261.2,72.4,273.6,76.2z"/>
				<path class="st1" d="M223,75L223,75c14.1,5.5,25.4,14.7,34.5,25.7c3.5-11.9,13-21.5,16.1-24.5C261.2,72.4,244.7,71.6,223,75z"/>
				<linearGradient id="SVGID_2_" gradientUnits="userSpaceOnUse" x1="406.5561" y1="594.5037" x2="256.9756" y2="594.5037">
					<stop  offset="0" style="stop-color:#C7EDF2"/>
					<stop  offset="0.9987" style="stop-color:#C4DEEF"/>
				</linearGradient>
				<path class="st3" d="M286.3,535.1c-10.1,7.8-18.1,18-23.1,29.7c-5.5,12.6-7.5,26.8-5.2,41.4c6.5,40.8,44.8,68.6,85.6,62.2
					c6.9-1.1,13.5-3.2,19.7-6l0.3-1.1c-13.1-4.1-23.5-15.3-25.9-29.8c-3.2-20.4,10.7-39.5,31.1-42.8c15-2.4,29.3,4.5,37.1,16.4v-0.2
					c1-7.2,1-14.6-0.2-22.1c-6.4-40.8-44.8-68.6-85.5-62.2C307.3,522.7,295.9,527.8,286.3,535.1z"/>
				<linearGradient id="SVGID_3_" gradientUnits="userSpaceOnUse" x1="308.015" y1="163.2391" x2="280.6926" y2="163.2391">
					<stop  offset="0" style="stop-color:#C7EDF2"/>
					<stop  offset="0.9987" style="stop-color:#C4DEEF"/>
				</linearGradient>
				<path class="st4" d="M305.7,143.5c-8.4-0.9-16.7-1.1-25.1-0.7c6,16.3,9.1,31.6,10.7,41.1l6.6-1.1c1.8-4.3,7.8-20.4,10-39.1
					L305.7,143.5z"/>
				<path class="st1" d="M342.9,263.2c-33.1,3.3-58.8,31.5-58.3,65.4c0.5,35.8,29.9,64.4,65.7,63.9c3.9,0,10.7-2.6,17.1-5.2v-0.1
					c-34.5-1-62.4-29-62.9-63.9C304.2,296.7,320,273.5,342.9,263.2L342.9,263.2z"/>
				<path class="st1" d="M342.9,263.3c-23,10.2-38.8,33.4-38.4,60.1c0.5,34.9,28.4,62.9,62.9,63.9c0.9,0,1.8,0,2.8,0
					c35.8-0.5,64.4-29.9,63.9-65.7c-0.5-35.8-29.9-64.4-65.7-63.9C359.3,257.8,350.7,259.8,342.9,263.3z M349.2,312.8
					c-0.2-13.8,10.8-25.1,24.6-25.3c13.8-0.2,25.1,10.8,25.3,24.6c0.2,13.7-10.8,25.1-24.6,25.3
					C360.7,337.5,349.4,326.5,349.2,312.8z"/>
				<linearGradient id="SVGID_4_" gradientUnits="userSpaceOnUse" x1="399.057" y1="312.4207" x2="349.2258" y2="312.4207">
					<stop  offset="0" style="stop-color:#C7EDF2"/>
					<stop  offset="0.9987" style="stop-color:#C4DEEF"/>
				</linearGradient>
				<path class="st5" d="M373.8,287.5c-13.7,0.2-24.8,11.5-24.6,25.3c0.2,13.7,11.5,24.8,25.3,24.6c13.7-0.2,24.8-11.5,24.6-25.3
					C398.9,298.3,387.6,287.3,373.8,287.5z"/>
				<path class="st1" d="M480.8,232.3l2.6,44.3l69.9-52.1c-9-9-15.6-20.2-19.1-32.4L480.8,232.3z"/>
				<linearGradient id="SVGID_5_" gradientUnits="userSpaceOnUse" x1="680.818" y1="171.5032" x2="531.205" y2="171.5032">
					<stop  offset="0" style="stop-color:#C7EDF2"/>
					<stop  offset="0.9987" style="stop-color:#C4DEEF"/>
				</linearGradient>
				<path class="st6" d="M534.1,192.1c3.5,12.2,10.1,23.4,19.1,32.4c8.5,8.5,19.2,15.1,31.6,18.7c39.6,11.7,81.2-11,92.8-50.6
					c2.2-7.3,3.2-14.7,3.1-21.9l0-0.2c-9.3,10.8-24.4,15.8-38.9,11.5c-19.8-5.8-31.1-26.6-25.3-46.5c4.2-14.1,15.9-23.9,29.5-26.2
					l-0.2-1.2c-5.7-3.6-11.9-6.4-18.7-8.4c-39.6-11.7-81.2,11-92.9,50.5C530.1,164.5,530.3,178.9,534.1,192.1z"/>
			</g>
			<g>
			</g>
		</g>
		<g>
			<g>
				<linearGradient id="SVGID_6_" gradientUnits="userSpaceOnUse" x1="213.6636" y1="166.2651" x2="179.2976" y2="166.2651">
					<stop  offset="0" style="stop-color:#00BDCD"/>
					<stop  offset="0.9987" style="stop-color:#0085C7"/>
				</linearGradient>
				<path class="st7" d="M211.9,160.7c0,0-0.4,0.3-1.2,0.8c-0.8,0.5-1.9,1.2-3.3,1.9c-2.7,1.5-6.5,3.1-10.3,4.5
					c-3.9,1.4-7.8,2.5-10.8,3.1c-1.5,0.3-2.8,0.5-3.7,0.6c-0.9,0.1-1.4,0.1-1.4,0.1s0.4-0.3,1.2-0.8c0.8-0.5,1.9-1.2,3.3-1.9
					c2.7-1.5,6.5-3.1,10.3-4.5c3.9-1.4,7.8-2.5,10.9-3.1c1.5-0.3,2.8-0.5,3.7-0.6C211.4,160.7,211.9,160.7,211.9,160.7z"/>
			</g>
			<g>
				<linearGradient id="SVGID_7_" gradientUnits="userSpaceOnUse" x1="313.3297" y1="142.7133" x2="282.4659" y2="142.7133">
					<stop  offset="0" style="stop-color:#00BDCD"/>
					<stop  offset="0.9987" style="stop-color:#0085C7"/>
				</linearGradient>
				<path class="st8" d="M311.6,143.7c0,0-0.4,0.1-1.2,0.2c-0.8,0.1-1.9,0.3-3.1,0.4c-2.6,0.2-6,0.3-9.4,0.1
					c-3.4-0.1-6.8-0.4-9.3-0.8c-1.3-0.2-2.4-0.4-3.1-0.6c-0.8-0.2-1.2-0.3-1.2-0.3s0.4-0.2,1.2-0.4c0.7-0.2,1.8-0.5,3.1-0.8
					c2.6-0.5,6-0.8,9.5-0.7c3.5,0.1,6.9,0.7,9.4,1.4c1.3,0.3,2.3,0.7,3,1C311.1,143.5,311.6,143.7,311.6,143.7z"/>
			</g>
			<g>
				<linearGradient id="SVGID_8_" gradientUnits="userSpaceOnUse" x1="455.7308" y1="321.7941" x2="208.8728" y2="321.7941">
					<stop  offset="0" style="stop-color:#00BDCD"/>
					<stop  offset="0.9987" style="stop-color:#0085C7"/>
				</linearGradient>
				<path class="st9" d="M450.4,166.8c0,0-1.6,0.8-4.7,2.3c-3.1,1.5-7.6,3.6-13.4,6.3c-5.8,2.7-12.8,6-20.9,9.6
					c-8.1,3.7-17.2,7.9-27.1,12.3c-5,2.2-10.2,4.5-15.5,7c-5.4,2.4-11,4.8-16.7,7.3c-11.5,5-23.5,10.3-36.1,15.7
					c-6.3,2.7-12.7,5.4-19.1,8.2c-6.5,2.7-13,5.5-19.6,8.3c-13.2,5.6-26.6,11.1-40.1,16.7l-5,2.1l-2.5,1l-1.3,0.5l-0.2,0.1
					c-0.2,0.1,0.1-0.1,0,0l-0.3,0.1l-0.6,0.3l-0.3,0.1c-0.1,0-0.2,0.1-0.2,0.1l-0.3,0.2l-0.3,0.2c-0.1,0.1-0.3,0.2-0.4,0.3
					c-0.6,0.4-1.1,0.8-1.6,1.2c-1,0.9-1.8,1.9-2.5,3c-1.4,2.2-2.2,4.8-2.2,7.5c0,0.3,0,0.7,0,1l0.1,1.3l0.2,2.7
					c0.1,1.8,0.3,3.6,0.4,5.4c0.5,7.1,1,14.2,1.5,21.2c0.5,7,0.9,13.9,1.4,20.7c0.9,13.6,1.6,26.8,2.3,39.3c0.3,6.2,0.7,12.3,1,18.2
					c0.3,5.9,0.6,11.6,0.8,17c0.3,5.5,0.5,10.7,0.7,15.6c0.2,5,0.4,9.7,0.6,14.1c0.4,8.9,0.6,16.6,0.8,23c0.2,6.4,0.3,11.4,0.4,14.8
					c0.1,3.4,0.1,5.2,0.1,5.2s-0.2-1.8-0.7-5.2c-0.4-3.4-1.1-8.3-1.9-14.7c-0.8-6.3-1.8-14-2.8-22.8c-0.5-4.4-1.1-9.1-1.6-14
					c-0.5-4.9-1.1-10.1-1.7-15.6c-0.6-5.4-1.2-11.1-1.8-16.9c-0.6-5.9-1.2-11.9-1.8-18.1c-1.2-12.4-2.6-25.6-3.8-39.2
					c-0.6-6.8-1.2-13.7-1.9-20.7c-0.6-7-1.2-14.1-1.8-21.2c-0.2-1.8-0.3-3.6-0.5-5.4l-0.2-2.7l-0.1-1.3c-0.1-0.6-0.1-1.1-0.1-1.7
					c-0.1-4.6,1.2-9.2,3.7-13.1c1.2-2,2.7-3.8,4.4-5.3c0.9-0.8,1.8-1.5,2.7-2.1c0.2-0.2,0.5-0.3,0.7-0.5l0.8-0.5l0.8-0.5
					c0.2-0.1,0.3-0.1,0.4-0.2l0.3-0.1l0.6-0.3l0.3-0.1l0.5-0.2l1.3-0.5l2.5-1l5-2.1c13.5-5.5,26.9-11,40.2-16.4
					c6.6-2.7,13.2-5.3,19.8-7.9c6.5-2.6,13-5.2,19.3-7.7c12.7-5,25-9.8,36.6-14.3c5.8-2.2,11.5-4.5,17-6.6c5.5-2.1,10.8-4.1,15.9-6
					c10.2-3.9,19.6-7.3,27.9-10.4c8.3-3.1,15.6-5.7,21.6-7.9c6-2.2,10.7-3.8,13.9-4.9C448.7,167.4,450.4,166.8,450.4,166.8z"/>
			</g>
			<g>
				<linearGradient id="SVGID_9_" gradientUnits="userSpaceOnUse" x1="201.1026" y1="251.3786" x2="19.1493" y2="251.3786">
					<stop  offset="0" style="stop-color:#00BDCD"/>
					<stop  offset="0.9987" style="stop-color:#0085C7"/>
				</linearGradient>
				<path class="st10" d="M22.7,237.7c0,0,0.7,0,2,0.1c1.3,0.1,3.2,0.2,5.6,0.4c2.4,0.2,5.4,0.4,8.7,0.7c3.4,0.3,7.2,0.6,11.3,1.1
					c4.1,0.4,8.6,0.9,13.3,1.5c4.7,0.6,9.7,1.1,14.8,1.8c5.1,0.7,10.5,1.4,15.8,2.2c5.4,0.8,10.9,1.6,16.3,2.5
					c5.5,0.9,10.9,1.7,16.3,2.7c5.4,0.9,10.6,1.8,15.8,2.8c5.1,0.9,10,1.9,14.7,2.8c4.7,0.9,9.1,1.8,13.1,2.7
					c4.1,0.8,7.8,1.7,11.1,2.4c3.3,0.7,6.2,1.4,8.5,2c2.4,0.6,4.2,1.1,5.5,1.4c1.3,0.3,1.9,0.5,1.9,0.5s-0.7,0-2-0.1
					c-1.3-0.1-3.2-0.2-5.6-0.4c-2.4-0.2-5.4-0.4-8.7-0.7c-3.4-0.3-7.2-0.6-11.3-1.1c-4.1-0.4-8.6-0.9-13.3-1.5
					c-4.7-0.6-9.7-1.1-14.8-1.8c-5.1-0.7-10.5-1.4-15.8-2.2c-5.4-0.8-10.9-1.6-16.3-2.5c-5.5-0.9-10.9-1.7-16.3-2.7
					c-5.4-0.9-10.6-1.8-15.7-2.8c-5.1-0.9-10-1.9-14.7-2.8c-4.7-0.9-9.1-1.8-13.1-2.7c-4.1-0.8-7.8-1.7-11.1-2.4
					c-3.3-0.7-6.2-1.4-8.5-2c-2.4-0.6-4.2-1.1-5.5-1.4C23.4,237.8,22.7,237.7,22.7,237.7z"/>
			</g>
			<g>
				<linearGradient id="SVGID_10_" gradientUnits="userSpaceOnUse" x1="442.9616" y1="322.4872" x2="302.73" y2="322.4872">
					<stop  offset="0" style="stop-color:#00BDCD"/>
					<stop  offset="0.9987" style="stop-color:#0085C7"/>
				</linearGradient>
				<path class="st11" d="M437.6,321.5c0,0,0,0.4,0,1.2c0,0.8,0,1.9-0.1,3.4c-0.1,3-0.6,7.4-1.9,12.8c-0.6,2.7-1.6,5.7-2.9,8.8
					c-1.3,3.1-2.8,6.4-4.9,9.7c-4.1,6.7-9.8,13.5-17.6,19.4c-7.8,5.8-17.7,10.4-28.9,12.3c-1.4,0.3-2.8,0.4-4.2,0.6
					c-1.4,0.1-2.8,0.3-4.4,0.3c-0.7,0-1.4,0-2.1,0.1c-0.7,0-1.5,0-2.2,0c-1.5,0-3-0.1-4.5-0.2c-3-0.3-6-0.7-9-1.4
					c-1.5-0.3-3-0.8-4.5-1.2c-0.7-0.2-1.5-0.5-2.2-0.7c-0.7-0.2-1.5-0.5-2.2-0.8c-5.9-2.3-11.6-5.4-16.8-9.4
					c-5.2-4-9.9-8.8-13.8-14.3c-7.9-10.9-12.4-24.6-12.6-38.4l0-2.5c0-0.4,0-0.8,0-1.2l0.1-1.3c0.1-1.8,0.3-3.5,0.5-5.2
					c0.5-3.4,1.2-6.8,2.2-10.1c1-3.3,2.2-6.5,3.6-9.6c1.5-3.1,3.1-6,5-8.8c3.7-5.6,8.3-10.5,13.4-14.7c5.1-4.1,10.7-7.4,16.5-9.9
					c1.4-0.7,2.9-1.1,4.4-1.7c1.5-0.5,3-1,4.5-1.3c3-0.8,6-1.3,9-1.7c1.5-0.1,3-0.3,4.5-0.4c0.7,0,1.5-0.1,2.2-0.1
					c0.7,0,1.5,0,2.2,0l1.2,0l1,0.1c0.7,0,1.4,0.1,2.1,0.1c1.4,0.1,2.9,0.3,4.3,0.5c11.3,1.6,21.2,5.9,29.2,11.5
					c8,5.6,13.9,12.3,18.2,18.9c2.1,3.3,3.8,6.5,5.2,9.6c1.3,3.1,2.4,6,3.1,8.7c1.5,5.4,2.1,9.7,2.3,12.7c0.2,1.5,0.1,2.6,0.2,3.4
					C437.6,321.1,437.6,321.5,437.6,321.5z M437.6,321.5c0,0,0-0.4-0.1-1.2c0-0.8,0-1.9-0.2-3.4c-0.3-3-0.8-7.3-2.4-12.7
					c-1.6-5.3-4.3-11.6-8.8-17.9c-4.4-6.3-10.7-12.6-18.8-17.4c-4-2.4-8.5-4.4-13.2-6c-4.8-1.5-9.9-2.4-15.2-2.7
					c-1.3-0.1-2.6-0.1-3.9-0.1c-0.7,0-1.4,0-2.1,0.1l-1,0l-0.9,0.1c-0.7,0.1-1.3,0.1-2,0.2c-0.7,0.1-1.3,0.2-2,0.3
					c-1.3,0.2-2.7,0.4-4,0.7c-5.4,1.1-10.6,3-15.7,5.5c-5,2.5-9.7,5.8-13.9,9.7c-2.1,1.9-4.1,4-5.9,6.3c-1.8,2.2-3.5,4.6-5,7
					c-6.1,9.9-9.3,21.5-9.1,33.2c0.1,2.9,0.3,5.8,0.7,8.7c0.5,2.9,1.1,5.7,2,8.5c1.7,5.6,4.2,10.9,7.4,15.7
					c6.3,9.7,15.3,17.5,25.5,22.3c5.1,2.4,10.4,4.1,15.8,5.1c1.3,0.2,2.7,0.5,4,0.6c0.7,0.1,1.3,0.2,2,0.2c0.7,0,1.4,0.1,2.1,0.1
					c1.3,0.1,2.7,0,4,0.1c1.3-0.1,2.7-0.1,4-0.2c5.3-0.5,10.3-1.5,15.1-3.2c4.7-1.7,9.1-3.8,13.1-6.4c7.9-5,14-11.5,18.3-17.9
					c4.3-6.4,6.8-12.8,8.2-18.1c1.5-5.4,1.9-9.8,2.1-12.7c0.1-1.5,0.1-2.6,0.1-3.4C437.6,321.9,437.6,321.5,437.6,321.5z"/>
			</g>
			<g>
				<linearGradient id="SVGID_11_" gradientUnits="userSpaceOnUse" x1="372.7523" y1="328.2059" x2="286.4074" y2="328.2059">
					<stop  offset="0" style="stop-color:#00BDCD"/>
					<stop  offset="0.9987" style="stop-color:#0085C7"/>
				</linearGradient>
				<path class="st12" d="M371,387.3c0,0-0.8,0.3-2.2,1c-1.4,0.6-3.6,1.6-6.3,2.6c-1.4,0.5-2.9,1.1-4.7,1.5
					c-0.9,0.2-1.8,0.5-2.8,0.6c-1,0.1-2,0.1-3,0.1c-4.1,0-8.9-0.3-13.9-1.4c-5-1-10.4-2.9-15.7-5.5c-2.6-1.4-5.3-2.9-7.8-4.7
					c-2.5-1.8-5-3.8-7.4-6c-2.3-2.2-4.6-4.6-6.7-7.3c-2.1-2.6-4-5.4-5.6-8.4c-3.3-6-5.8-12.5-7.1-19.3c-0.4-1.7-0.6-3.4-0.8-5.1
					c-0.1-1.7-0.3-3.4-0.4-5.2l0-1.3l0-0.3l0-0.1l0-0.2l0-0.2l0-0.6l0.1-2.5l0.1-2.5c0-0.8,0.2-1.7,0.3-2.6c0.1-0.9,0.2-1.7,0.3-2.6
					c0.1-0.8,0.2-1.7,0.4-2.5c0.4-1.6,0.8-3.3,1.2-4.9c1-3.2,2-6.3,3.4-9.2c0.3-0.7,0.7-1.5,1-2.2c0.3-0.7,0.8-1.4,1.1-2.1
					c0.8-1.4,1.5-2.8,2.4-4.1c0.9-1.3,1.8-2.5,2.6-3.8c0.4-0.6,0.9-1.2,1.4-1.8c0.5-0.6,1-1.1,1.4-1.7c0.5-0.6,1-1.1,1.4-1.7
					c0.5-0.5,1-1,1.5-1.5c1-1,2-2,3-2.9c2.2-1.7,4.2-3.5,6.4-4.9c1.1-0.7,2.1-1.4,3.1-2.1c1.1-0.6,2.1-1.2,3.2-1.7
					c2-1.2,4.1-1.9,6-2.8c0.5-0.2,0.9-0.4,1.4-0.6c0.5-0.2,0.9-0.3,1.4-0.5c0.9-0.3,1.8-0.6,2.7-0.8c1.7-0.6,3.3-0.9,4.8-1.2
					c0.7-0.2,1.4-0.3,2.1-0.4c0.3-0.1,0.6-0.1,0.9-0.2c0.3,0,0.6-0.1,0.9-0.1c1.1-0.1,2.1-0.2,2.9-0.3c1.6-0.2,2.4-0.3,2.4-0.3
					s-0.8,0.2-2.4,0.5c-0.8,0.1-1.7,0.3-2.9,0.5c-0.3,0.1-0.6,0.1-0.9,0.2c-0.3,0.1-0.6,0.2-0.9,0.3c-0.6,0.2-1.3,0.4-2,0.6
					c-1.4,0.4-3,0.8-4.6,1.5c-0.8,0.3-1.7,0.6-2.6,1c-0.4,0.2-0.9,0.3-1.4,0.5c-0.4,0.2-0.9,0.4-1.3,0.7c-1.8,0.9-3.8,1.8-5.7,3
					c-1,0.6-2,1.2-3,1.8c-1,0.7-1.9,1.4-3,2.2c-2.1,1.4-3.9,3.2-5.9,5c-1,0.9-1.9,1.9-2.8,2.9c-0.5,0.5-1,1-1.4,1.5
					c-0.4,0.5-0.9,1.1-1.3,1.7c-3.7,4.3-6.7,9.6-9.2,15.2c-1.3,2.8-2.2,5.8-3.1,8.9c-0.3,1.5-0.7,3.1-1,4.7
					c-0.2,0.8-0.3,1.6-0.4,2.4c-0.1,0.8-0.2,1.6-0.3,2.4c-0.1,0.8-0.2,1.6-0.3,2.4l-0.1,2.5l-0.1,2.5l0,0.6l0,0.2c0,0.1,0,0,0,0
					l0,0.1l0,0.3l0.1,1.2c0,1.6,0.2,3.3,0.4,4.9c0.2,1.6,0.4,3.3,0.8,4.9c1.2,6.5,3.5,12.7,6.6,18.3c1.6,2.8,3.3,5.5,5.2,8.1
					c1.9,2.5,4,4.9,6.2,7c4.4,4.3,9.3,7.8,14.3,10.6c5,2.7,10.1,4.6,14.9,5.8c4.8,1.2,9.4,1.8,13.5,2c1,0,2,0.1,2.9,0
					c0.9-0.1,1.8-0.2,2.7-0.4c1.7-0.3,3.3-0.8,4.7-1.2c2.8-0.9,5-1.6,6.5-2.1C370.2,387.6,371,387.3,371,387.3z"/>
			</g>
			<g>
				<linearGradient id="SVGID_12_" gradientUnits="userSpaceOnUse" x1="407.9283" y1="312.5085" x2="347.4507" y2="312.5085">
					<stop  offset="0" style="stop-color:#00BDCD"/>
					<stop  offset="0.9987" style="stop-color:#0085C7"/>
				</linearGradient>
				<path class="st13" d="M403.1,312.1c0,0,0,0.6,0,1.8c0,0.6-0.1,1.3-0.2,2.1c-0.1,0.4-0.1,0.9-0.2,1.4c-0.1,0.5-0.2,1-0.3,1.5
					c-0.5,2.1-1.2,4.7-2.7,7.5c-1.5,2.8-3.5,5.8-6.5,8.5c-1.5,1.3-3.2,2.7-5.2,3.8c-0.5,0.3-1,0.6-1.5,0.9c-0.5,0.2-1.1,0.5-1.6,0.7
					c-1.1,0.5-2.3,0.9-3.5,1.3c-0.6,0.2-1.2,0.3-1.8,0.5l-0.9,0.2l-0.5,0.1c0.2,0-0.4,0-0.3,0l-0.1,0l-0.1,0l-0.2,0
					c-1.1,0.1-2,0.4-3.7,0.4c-0.7,0-1.5,0-2.2,0c-0.7-0.1-1.4-0.1-2.1-0.2c-0.7,0-1.4-0.2-2.1-0.3c-0.7-0.2-1.5-0.3-2.1-0.5
					c-2.9-0.8-5.7-2.1-8.3-3.8c-1.3-0.9-2.6-1.8-3.7-2.9c-1.2-1-2.3-2.3-3.3-3.5c-1-1.3-2-2.6-2.7-4.1c-0.4-0.7-0.8-1.5-1.1-2.2
					c-0.3-0.8-0.7-1.5-1-2.3c-0.3-0.8-0.5-1.6-0.7-2.4c-0.3-0.8-0.3-1.6-0.5-2.5c-0.2-0.8-0.3-1.7-0.3-2.5l-0.1-1.3l0-0.6l0-0.3
					l0-0.2l0-0.1c0-0.2,0,0.4,0-0.6l0.1-1.8l0-0.5l0-0.2l0-0.3l0.2-1.4l0.2-1.4l0.1-0.7l0.2-0.6l0.7-2.4c0.3-0.8,0.6-1.6,0.9-2.4
					c0.3-0.8,0.7-1.5,1-2.3c0.8-1.5,1.7-2.8,2.6-4.2c1-1.3,2-2.5,3.2-3.6c1.1-1.1,2.4-2.1,3.7-3c2.6-1.7,5.3-3.1,8.2-4
					c2.8-0.8,5.7-1.3,8.4-1.3c1.4-0.1,2.7,0.1,4,0.2l0.2,0l0.1,0l0.1,0c0,0,0.5,0,0.3,0l0.4,0.1l0.8,0.2l0.8,0.2
					c0.3,0.1,0.5,0.1,0.9,0.2c1.3,0.4,2.6,0.7,3.7,1.2c0.5,0.2,1.1,0.5,1.6,0.7c0.5,0.3,1,0.5,1.5,0.8c1,0.5,1.9,1.1,2.8,1.7
					c0.5,0.3,0.9,0.6,1.3,1c0.4,0.3,0.8,0.6,1.2,1c0.8,0.7,1.5,1.4,2.1,2c0.6,0.7,1.3,1.4,1.8,2.1c1.1,1.4,2,2.8,2.8,4.2
					c1.5,2.7,2.4,5.3,2.9,7.4c0.1,0.5,0.2,1,0.3,1.5c0.1,0.5,0.1,0.9,0.2,1.4c0.1,0.8,0.2,1.6,0.2,2.1
					C403.1,311.4,403.1,312.1,403.1,312.1L403.1,312.1z M402.1,312.1c0,0,0-0.6-0.1-1.7c0-0.6-0.1-1.2-0.3-2
					c-0.1-0.4-0.1-0.8-0.2-1.3c-0.1-0.4-0.3-0.9-0.4-1.4c-0.6-2-1.5-4.4-3.2-6.8c-1.6-2.4-3.9-4.8-7-6.7c-3-1.9-6.8-3.3-10.7-3.7
					c-0.5-0.1-1,0-1.6-0.1l-0.8,0l-0.4,0l-0.4,0c-1,0.1-2.1,0.1-3.1,0.3c-2.1,0.3-4.2,1-6.2,1.9c-2,0.9-3.9,2.2-5.6,3.7
					c-1.7,1.5-3.2,3.3-4.5,5.2c-1.2,2-2.2,4.1-2.8,6.4c-0.6,2.3-0.9,4.5-0.9,7c0.1,2.2,0.4,4.6,1.1,6.9c0.7,2.2,1.7,4.3,3,6.3
					c1.3,1.9,2.9,3.6,4.6,5.1c1.8,1.4,3.7,2.6,5.7,3.5c2,0.8,4.2,1.5,6.2,1.7c1,0.2,2.1,0.2,3.2,0.2c0.5,0,1,0,1.5-0.1
					c0.5,0,1,0,1.5-0.1c4-0.5,7.7-2,10.7-4c3-2,5.2-4.5,6.8-6.9c1.6-2.4,2.5-4.9,3-6.9c0.1-0.5,0.2-1,0.4-1.4
					c0.1-0.5,0.1-0.9,0.2-1.3c0.1-0.8,0.2-1.5,0.2-2.1C402.1,312.7,402.1,312,402.1,312.1L402.1,312.1z"/>
			</g>
			<g>
				<linearGradient id="SVGID_13_" gradientUnits="userSpaceOnUse" x1="417.18" y1="592.6394" x2="253.4445" y2="592.6394">
					<stop  offset="0" style="stop-color:#00BDCD"/>
					<stop  offset="0.9987" style="stop-color:#0085C7"/>
				</linearGradient>
				<path class="st14" d="M409.4,605.1l0-0.2l0,0c0.2-4.1,0.1-8.2-0.4-12.3c-0.4-4.1-1.1-8-2.2-11.9c-0.1-0.5-0.3-1-0.4-1.5
					l-0.5-1.4c-0.3-0.9-0.6-1.9-0.9-2.8c-0.3-0.9-0.7-1.9-1-2.8l-1.2-2.7c-1.6-3.6-3.5-7.1-5.7-10.4c-2.1-3.3-4.5-6.4-7.2-9.3
					c-2.6-2.9-5.4-5.6-8.5-8c-6-4.8-12.8-8.6-20-11.3c-3.6-1.3-7.2-2.3-11-3.1c-3.7-0.7-7.5-1.2-11.3-1.3c-3.8-0.1-7.5,0.1-11.3,0.5
					l-2.8,0.4l-0.5,0.1l-0.8,0.2l-1.5,0.3l-1.5,0.3l-1.3,0.3c-0.9,0.2-1.7,0.4-2.6,0.7c-7.2,2.1-14,5.4-20.1,9.7
					c-6.1,4.3-11.6,9.5-16,15.5c-4.4,6-8,12.7-10.2,19.8c-1.2,3.5-2.1,7.2-2.6,10.9c-0.6,3.7-0.8,7.4-0.8,11.2
					c0,1.9,0.1,3.7,0.2,5.6l0.3,2.8l0.1,0.7c0,0,0,0.2,0-0.1l0,0.1l0,0.2l0.1,0.4l0.3,1.5l0.3,1.5l0.3,1.3c0.2,0.9,0.3,1.7,0.6,2.7
					l0.7,2.7l0.9,2.7c2.5,7.1,6,13.9,10.6,20c2.3,3,4.8,5.9,7.6,8.6c2.8,2.6,5.8,5.1,9,7.3c6.4,4.4,13.5,7.8,21,10
					c0.9,0.3,1.9,0.6,2.8,0.8l2.9,0.7l2.9,0.5c1,0.2,2,0.3,2.9,0.4c3.9,0.5,7.9,0.7,12,0.6c2-0.1,4-0.2,6-0.4c2-0.2,4-0.5,6-0.9
					c4-0.7,8-1.8,11.9-3.2c-3.6,2.1-7.4,3.8-11.3,5.3c-3.9,1.4-8,2.4-12.2,3.2c-8.3,1.4-17,1.5-25.5-0.1c-4.2-0.8-8.4-1.9-12.5-3.4
					c-4.1-1.5-8-3.4-11.8-5.5c-7.6-4.3-14.5-10-20.3-16.7c-2.9-3.4-5.5-6.9-7.8-10.7c-2.3-3.8-4.2-7.8-5.9-12l-1.2-3.1l-1-3.2
					c-0.4-1-0.6-2.2-0.9-3.3l-0.4-1.7l-0.3-1.5l-0.3-1.5l-0.1-0.4l0-0.2l-0.1-0.4l-0.1-0.8l-0.5-3.3c-0.2-2.2-0.5-4.5-0.5-6.7
					c-0.2-4.5,0.1-9,0.6-13.4c0.6-4.5,1.6-8.9,2.9-13.2c2.7-8.6,6.9-16.7,12.2-24c5.4-7.2,12-13.5,19.4-18.6
					c3.7-2.5,7.7-4.7,11.8-6.6c4.1-1.9,8.3-3.4,12.7-4.5c1.1-0.3,2.2-0.5,3.4-0.8l1.7-0.4l1.5-0.3l1.5-0.3l0.8-0.1l0.3,0l0.1,0
					l0.2,0l0.4,0l3.3-0.4c4.5-0.4,8.9-0.4,13.4-0.1c8.9,0.7,17.6,3,25.7,6.5c4,1.8,7.9,4,11.6,6.4c3.7,2.4,7.1,5.2,10.3,8.2
					c6.3,6,11.7,13.1,15.5,20.8c1.9,3.9,3.6,7.8,4.8,11.9l0.9,3.1c0.3,1,0.5,2.1,0.7,3.1c0.3,1,0.4,2.1,0.6,3.2l0.3,1.6
					c0.1,0.5,0.1,1,0.2,1.5c0.5,4.2,0.7,8.4,0.5,12.6c-0.2,4.2-0.8,8.3-1.8,12.3l0,0L409.4,605.1z"/>
			</g>
			<g>
				<linearGradient id="SVGID_14_" gradientUnits="userSpaceOnUse" x1="414.6849" y1="622.8973" x2="335.3821" y2="622.8973">
					<stop  offset="0" style="stop-color:#00BDCD"/>
					<stop  offset="0.9987" style="stop-color:#0085C7"/>
				</linearGradient>
				<path class="st15" d="M369.1,661.9c0,0-0.6-0.1-1.7-0.2c-0.5-0.1-1.2-0.1-2-0.3c-0.8-0.2-1.7-0.3-2.7-0.6
					c-1-0.3-2.1-0.6-3.3-1.1c-1.2-0.4-2.4-1-3.7-1.7c-2.6-1.4-5.4-3.3-8.1-5.8c-2.7-2.5-5.2-5.8-7.3-9.6c-2-3.8-3.6-8.3-4.2-13
					c-0.1-0.5-0.2-1.1-0.2-1.6c0-0.6-0.1-1.3-0.1-1.9c0-1.3-0.1-2.6,0-3.8c0-0.6,0.1-1.2,0.1-1.9c0-0.6,0.1-1.3,0.2-1.9
					c0.2-1.2,0.4-2.5,0.7-3.7c1.1-5,3.4-9.8,6.3-14c3-4.2,6.8-7.9,11.1-10.6c1-0.7,2.2-1.3,3.3-1.9l1.7-0.9c0.6-0.2,1.2-0.5,1.7-0.7
					c1.2-0.5,2.3-0.9,3.5-1.2c0.6-0.2,1.2-0.3,1.8-0.5l0.9-0.2c0.3-0.1,0.6-0.1,0.9-0.2c0.6-0.1,1.2-0.2,1.8-0.3l0.9-0.1l0.4-0.1
					l0.2,0l0.1,0l0.2,0l0,0c0.5,0,1-0.1,1.6-0.1l0.8,0c0.2,0,0.5,0,0.8,0c2.5,0,4.7,0.1,6.8,0.4c4.3,0.7,8.2,2,11.5,3.7
					c3.3,1.7,6,3.7,8.2,5.7c1,1,2,2,2.8,3c0.4,0.5,0.8,0.9,1.1,1.4c0.3,0.5,0.6,0.9,0.9,1.3c0.6,0.8,1.1,1.6,1.5,2.3
					c0.4,0.7,0.7,1.3,0.9,1.8c0.5,1,0.7,1.5,0.7,1.5s-0.4-0.4-1.2-1.2c-0.4-0.4-0.8-0.8-1.4-1.3c-0.6-0.5-1.2-1.1-2-1.7
					c-1.5-1.2-3.5-2.5-5.8-3.8c-2.3-1.3-5-2.4-8.1-3.3c-3-0.9-6.4-1.4-9.9-1.4c-0.9,0-1.8,0-2.6,0.1c-0.9,0-1.7,0.2-2.5,0.3l-0.3,0
					l-0.4,0.1l-0.8,0.1c-0.5,0.1-1,0.2-1.5,0.3l0,0c-0.2,0,0.2,0,0.1,0l-0.1,0l-0.2,0l-0.3,0.1l-0.7,0.2c-0.4,0.1-0.9,0.2-1.3,0.4
					c-0.2,0.1-0.5,0.1-0.7,0.2l-0.7,0.3l-1.3,0.5c-0.9,0.3-1.7,0.7-2.6,1.1l-1.3,0.6l-1.2,0.7c-0.8,0.5-1.7,0.9-2.4,1.6
					c-3.1,2.2-6,5-8.2,8.2c-2.3,3.2-4,6.7-5,10.4c-0.5,1.9-0.9,3.7-1.1,5.6c-0.2,1-0.1,1.8-0.2,2.7c0,0.4,0,0.9-0.1,1.3
					c0,0.5,0.1,1.1,0.1,1.6c0.1,3.8,0.9,7.4,2.1,10.7c1.2,3.3,2.8,6.3,4.6,8.8c1.8,2.6,3.8,4.7,5.8,6.5c2,1.7,3.9,3.1,5.5,4.2
					c0.8,0.6,1.6,0.9,2.2,1.3c0.7,0.4,1.3,0.7,1.8,0.9C368.6,661.6,369.1,661.9,369.1,661.9z"/>
			</g>
			<g>
				<linearGradient id="SVGID_15_" gradientUnits="userSpaceOnUse" x1="542.9907" y1="212.2091" x2="479.0188" y2="212.2091">
					<stop  offset="0" style="stop-color:#00BDCD"/>
					<stop  offset="0.9987" style="stop-color:#0085C7"/>
				</linearGradient>
				<path class="st16" d="M484.3,232.3c0,0,0.1-0.3,0.4-0.7c0.3-0.4,0.7-1.1,1.2-1.9c1.1-1.6,2.7-3.7,4.8-6.2
					c2.1-2.4,4.7-5.1,7.6-7.8c0.7-0.7,1.5-1.3,2.2-2c0.8-0.7,1.5-1.3,2.3-2c1.6-1.3,3.2-2.6,4.9-3.9c1.7-1.3,3.4-2.5,5.1-3.6
					c0.8-0.6,1.7-1.1,2.6-1.7c0.9-0.5,1.7-1.1,2.5-1.6c3.4-2,6.6-3.8,9.5-5.1c2.9-1.4,5.4-2.3,7.3-3c0.9-0.3,1.7-0.5,2.2-0.7
					c0.5-0.1,0.8-0.2,0.8-0.2s-0.1,0.3-0.4,0.7c-0.3,0.4-0.7,1.1-1.2,1.9c-1.1,1.6-2.7,3.8-4.8,6.2c-2.1,2.4-4.7,5.1-7.6,7.7
					c-0.7,0.7-1.5,1.3-2.2,2c-0.8,0.7-1.5,1.3-2.3,2c-1.6,1.3-3.2,2.6-4.9,3.9c-1.7,1.3-3.4,2.5-5.1,3.6c-0.8,0.6-1.7,1.1-2.6,1.7
					c-0.8,0.5-1.7,1.1-2.5,1.6c-3.4,2-6.6,3.8-9.5,5.1c-2.9,1.4-5.4,2.3-7.2,3c-0.9,0.3-1.7,0.5-2.1,0.7
					C484.6,232.3,484.3,232.3,484.3,232.3z"/>
			</g>
			<g>
				<linearGradient id="SVGID_16_" gradientUnits="userSpaceOnUse" x1="563.0565" y1="250.1797" x2="481.5679" y2="250.1797">
					<stop  offset="0" style="stop-color:#00BDCD"/>
					<stop  offset="0.9987" style="stop-color:#0085C7"/>
				</linearGradient>
				<path class="st17" d="M486.9,276.6c0,0,0.2-0.3,0.6-0.8c0.4-0.5,1-1.3,1.8-2.3c1.6-1.9,3.9-4.6,6.8-7.6c2.9-3,6.5-6.4,10.4-9.8
					c1-0.9,2-1.7,3-2.6c1-0.9,2.1-1.7,3.1-2.6c2.1-1.7,4.3-3.4,6.5-5.1c2.2-1.6,4.5-3.3,6.7-4.8c1.1-0.8,2.2-1.5,3.3-2.3
					c1.1-0.7,2.2-1.5,3.3-2.2c4.4-2.8,8.6-5.2,12.3-7.1c3.7-1.9,6.9-3.4,9.2-4.4c1.1-0.5,2.1-0.8,2.7-1.1c0.6-0.2,1-0.3,1-0.3
					s-0.2,0.3-0.6,0.8c-0.4,0.5-1,1.3-1.8,2.3c-1.6,1.9-3.9,4.6-6.8,7.6c-2.9,3-6.5,6.4-10.4,9.8c-1,0.9-2,1.7-3,2.6
					c-1,0.9-2.1,1.7-3.1,2.6c-2.1,1.7-4.3,3.4-6.5,5.1c-2.2,1.6-4.5,3.3-6.7,4.8c-1.1,0.8-2.2,1.5-3.4,2.3c-1.1,0.7-2.2,1.5-3.3,2.1
					c-4.4,2.8-8.6,5.2-12.3,7.1c-3.7,1.9-6.9,3.4-9.2,4.4c-1.1,0.5-2.1,0.8-2.7,1.1C487.2,276.5,486.9,276.6,486.9,276.6z"/>
			</g>
			<g>
				<linearGradient id="SVGID_17_" gradientUnits="userSpaceOnUse" x1="691.4178" y1="171.6908" x2="527.6651" y2="171.6908">
					<stop  offset="0" style="stop-color:#00BDCD"/>
					<stop  offset="0.9987" style="stop-color:#0085C7"/>
				</linearGradient>
				<path class="st18" d="M684.3,170.8c0,0,0.1,0.4,0.2,1.1c0.1,0.7,0.3,1.9,0.5,3.3c0.3,2.9,0.7,7.3,0.3,13
					c-0.1,1.4-0.3,2.9-0.5,4.5l-0.1,0.6l0,0.3l0,0.1c0,0-0.1,0.2,0,0.2l0,0.1c-0.1,0.4-0.1,0.8-0.2,1.2c-0.1,0.8-0.3,1.6-0.4,2.4
					c-0.2,0.8-0.4,1.7-0.6,2.6c-0.2,0.9-0.4,1.8-0.7,2.7c-0.3,0.9-0.5,1.8-0.8,2.8c-0.3,0.9-0.7,1.9-1,2.8
					c-1.4,3.8-3.3,7.8-5.6,11.8c-0.6,1-1.3,2-2,2.9c-0.7,0.9-1.6,1.8-2.4,2.7c-1.7,1.7-3.4,3.6-5.3,5.3
					c-7.4,6.9-16.7,13.1-27.6,17.1c-10.9,4-23.3,6-35.9,4.8c-3.2-0.3-6.3-0.8-9.5-1.5c-0.8-0.2-1.6-0.3-2.4-0.5l-2.3-0.6l-1.2-0.3
					l-0.3-0.1l-0.4-0.1l-0.5-0.2l-2.1-0.7c-0.7-0.2-1.5-0.5-2.3-0.8l-2.4-0.9c-1.5-0.7-3-1.3-4.5-2c-1.5-0.7-3-1.4-4.4-2.3l-2.2-1.2
					l-2.1-1.3c-11.3-7.1-20.8-17.3-27.4-29.1c-3.3-5.9-5.8-12.2-7.6-18.7c-1.7-6.5-2.7-13.2-2.8-19.9c-0.1-6.7,0.6-13.3,2.1-19.6
					c0.3-1.6,0.8-3.1,1.2-4.7l0.7-2.3l0.3-1.1c0.1-0.3,0.2-0.7,0.4-1.1c1.2-3.2,2.4-6.1,3.8-9c2.8-5.7,6.2-10.9,10.1-15.7
					c3.9-4.7,8.2-8.9,12.8-12.4c9.2-7.2,19.3-11.9,29.1-14.5c1.2-0.3,2.4-0.6,3.7-0.9c1.2-0.3,2.4-0.5,3.6-0.8
					c2.4-0.6,4.7-0.9,7.1-0.7c4.6,0.2,9,0.6,13,1.5c8,1.6,14.5,4.3,19.5,6.8c5,2.6,8.6,5.2,10.9,7c1.2,0.9,2,1.6,2.6,2.1
					c0.6,0.5,0.9,0.8,0.9,0.8s-1.4-0.6-4.2-1.6c-2.7-1-6.8-2.2-12-3.2c-5.2-0.9-11.5-1.5-18.6-1.1c-3.5,0.2-7.2,0.7-11,1.6
					c-0.9,0.2-1.9,0.4-2.9,0.6c-1,0.2-2,0.2-2.9,0.3c-2,0.2-4,0.8-6,1.3c-8.1,2.2-16.5,6.1-24.1,12c-3.8,3-7.4,6.4-10.6,10.3
					c-3.2,3.9-6,8.2-8.4,12.9c-0.6,1.2-1.1,2.4-1.7,3.6c-0.3,0.6-0.5,1.2-0.7,1.8l-0.7,1.8c-0.1,0.3-0.2,0.6-0.3,1l-0.3,1.1
					l-0.6,1.9c-0.3,1.3-0.7,2.6-1,3.9c-1.2,5.3-1.8,10.7-1.7,16.2c0.1,5.5,0.9,11,2.3,16.4c1.5,5.4,3.5,10.6,6.3,15.5
					c5.4,9.8,13.3,18.2,22.6,24l1.7,1.1l1.8,1c1.2,0.7,2.4,1.3,3.6,1.9c1.2,0.6,2.5,1.1,3.7,1.7l1.8,0.7c0.6,0.2,1.2,0.5,1.9,0.7
					l2.1,0.7l0.5,0.2l0.1,0c0.2,0.1-0.1,0,0,0l0.2,0.1l1,0.3l1.9,0.5c0.6,0.2,1.3,0.3,2,0.4c2.6,0.6,5.2,0.9,7.8,1.2
					c10.4,1,20.7-0.6,29.7-3.9c9-3.4,16.8-8.4,22.9-14.2c1.5-1.4,3-2.9,4.2-4.5c0.6-0.8,1.2-1.6,1.8-2.3c0.6-0.8,1.3-1.5,2-2.1
					c2.7-2.8,5-5.6,7.1-8.5c0.5-0.7,1-1.4,1.5-2.1c0.5-0.7,0.9-1.4,1.3-2.1c0.5-0.7,0.9-1.4,1.2-2.1c0.4-0.7,0.8-1.4,1.1-2
					c0.4-0.7,0.7-1.5,1.1-2.2c0.2-0.4,0.3-0.7,0.5-1.1l0.1-0.1c0-0.1,0,0.1,0,0l0-0.1l0.1-0.2l0.2-0.5c0.6-1.3,1.1-2.6,1.6-3.8
					c1.9-4.9,3-9,3.6-11.9C684.1,172.3,684.3,170.8,684.3,170.8z"/>
			</g>
			<g>
				<linearGradient id="SVGID_18_" gradientUnits="userSpaceOnUse" x1="689.6609" y1="148.2873" x2="613.2658" y2="148.2873">
					<stop  offset="0" style="stop-color:#00BDCD"/>
					<stop  offset="0.9987" style="stop-color:#0085C7"/>
				</linearGradient>
				<path class="st19" d="M651.8,109.1c-3,0.9-5.7,2.1-8.3,3.5c-2.6,1.4-5,3-7.1,4.9c-2.1,1.9-4,3.9-5.7,6.1c-1.6,2.2-3,4.6-4.1,7.1
					c-1.1,2.4-1.9,5.1-2.3,7.6c-0.1,0.7-0.3,1.5-0.4,2.2c0,0.6-0.1,1.2-0.1,1.8c-0.2,1.2-0.1,2.6-0.1,3.8c0,0.7,0.1,1.3,0.2,2
					c0.1,0.6,0.1,1.3,0.2,1.9l0.4,1.9c0.1,0.3,0.1,0.6,0.2,1l0.3,0.9c0.2,0.6,0.4,1.3,0.5,1.9l0.7,1.8c0.4,1.2,1.1,2.4,1.6,3.5
					c0.3,0.6,0.7,1.1,1,1.7c0.4,0.5,0.6,1.1,1,1.7c0.8,1,1.5,2.1,2.4,3.1c0.4,0.5,0.8,1,1.3,1.5l1.4,1.3l0.7,0.7
					c0.2,0.2,0.5,0.4,0.8,0.6c0.5,0.4,1,0.8,1.5,1.2c0.5,0.4,1.1,0.7,1.6,1.1c0.6,0.3,1.1,0.8,1.7,1c0.6,0.3,1.2,0.6,1.8,0.9
					c0.3,0.2,0.6,0.3,0.9,0.5l0.9,0.4l1.8,0.8l0.1,0l0.1,0l0,0c-0.3-0.1-0.1,0-0.1,0l0.3,0.1l0.5,0.2l1.1,0.3
					c0.8,0.3,1.3,0.4,1.9,0.5c0.6,0.2,1.2,0.3,1.9,0.4c1.3,0.3,2.7,0.4,4,0.5l2,0.1c0.7,0,1.4,0,2.1,0c2.8-0.1,5.5-0.5,8.3-1.2
					c2.8-0.7,5.4-1.8,8.1-3.1c2.6-1.4,5.1-3,7.6-4.9l0,0c0,0,0,0,0,0c0,0,0,0,0,0l-0.1,0.2l0-0.2l0.1,0c-1.6,2.7-3.5,5.1-5.9,7.3
					c-2.3,2.2-5,4.1-7.9,5.5c-5.8,3-12.5,4.5-19.3,4.1c-0.8,0-1.7-0.1-2.6-0.2c-0.9-0.1-1.8-0.2-2.5-0.4l-1.1-0.2l-0.6-0.1l-0.3-0.1
					l-0.5-0.1l-2.4-0.7c-1.7-0.4-3.2-1.2-4.8-1.9c-0.8-0.3-1.5-0.8-2.3-1.2c-0.7-0.4-1.5-0.8-2.2-1.3c-0.7-0.5-1.4-1-2.1-1.5
					c-0.3-0.3-0.7-0.5-1-0.8l-1-0.8l-1.9-1.7c-0.6-0.6-1.2-1.2-1.8-1.9c-1.2-1.2-2.2-2.7-3.3-4c-0.5-0.7-0.9-1.4-1.4-2.2
					c-0.4-0.7-0.9-1.5-1.3-2.2c-0.7-1.6-1.6-3.1-2.1-4.7l-0.9-2.4c-0.2-0.8-0.4-1.7-0.6-2.5l-0.3-1.3c-0.1-0.4-0.1-0.9-0.2-1.3
					l-0.4-2.6c-0.1-0.9-0.1-1.7-0.2-2.6c0-0.9-0.1-1.7,0-2.6c0.1-1.7,0.1-3.4,0.5-5.2c0.1-0.9,0.3-1.8,0.5-2.7
					c0.2-0.8,0.4-1.5,0.6-2.2l0.3-1.1l0.2-0.8l0.2-0.6c0.3-0.8,0.6-1.6,0.9-2.4c0.7-1.5,1.5-3.1,2.4-4.5c1.8-2.9,3.8-5.5,6.2-7.8
					c2.4-2.3,5.1-4.2,8-5.8c2.9-1.6,5.9-2.7,9-3.4C645.5,109.1,648.7,108.9,651.8,109.1z"/>
			</g>
			<g>
				<linearGradient id="SVGID_19_" gradientUnits="userSpaceOnUse" x1="106.7252" y1="323.9799" x2="98.8021" y2="409.0231">
					<stop  offset="0" style="stop-color:#00BDCD"/>
					<stop  offset="0.9987" style="stop-color:#0085C7"/>
				</linearGradient>
				<path class="st20" d="M99.9,329.2c0,0,0.9,0,2.6-0.1c0.4,0,0.9,0,1.4,0c0.5,0,1.1,0.1,1.7,0.1c0.6,0.1,1.3,0.1,2,0.2
					c0.7,0.1,1.5,0.3,2.2,0.4c3.1,0.6,7,1.7,11,3.8c4,2.1,8.2,5.2,11.9,9.5c3.7,4.3,6.8,9.9,8.5,16.4c0.2,0.8,0.3,1.6,0.5,2.5
					l0.2,1.3l0.1,0.6l0.1,0.7c0.1,1.6,0.4,3.2,0.3,5.1c0,0.9,0,1.9-0.1,2.8c-0.1,0.9-0.2,1.8-0.3,2.7c-0.1,0.9-0.3,1.8-0.5,2.7
					l-0.3,1.4c-0.1,0.5-0.2,0.9-0.4,1.4c-1.1,3.7-2.8,7.2-4.9,10.5c-0.6,0.8-1.2,1.6-1.7,2.4c-0.6,0.8-1.3,1.5-1.9,2.3l-1,1.1
					c-0.3,0.4-0.7,0.7-1.1,1c-0.7,0.7-1.5,1.4-2.3,2c-3.2,2.6-6.8,4.7-10.7,6.2l-3,1l-0.7,0.2l-0.8,0.2l-1.5,0.3
					c-1,0.2-2,0.5-3.1,0.6l-1.6,0.2l-0.8,0.1l-0.4,0l-0.2,0l-0.1,0c-0.2,0,0.2,0-0.4,0l-2.8,0l-0.7,0c-0.2,0-0.5,0-0.8,0l-1.7-0.1
					l-1.7-0.2l-0.8-0.1l-0.8-0.1c-1-0.2-2-0.4-3.1-0.6c-4-1.1-7.9-2.7-11.4-4.8c-0.9-0.5-1.7-1.1-2.5-1.7c-0.4-0.3-0.8-0.6-1.2-0.9
					l-1.1-1c-0.7-0.7-1.6-1.3-2.2-2c-0.7-0.7-1.4-1.4-2-2.2c-2.5-3-4.7-6.3-6.2-9.8c-1.5-3.5-2.6-7.1-3-10.6
					c-0.3-1.8-0.3-3.5-0.4-5.3l0-0.8l0-0.6l0.1-1.2c0.1-0.8,0.1-1.6,0.2-2.4c0.1-0.9,0.3-1.7,0.4-2.5c0.1-0.4,0.1-0.8,0.2-1.2
					l0.3-1.2c0.2-0.8,0.4-1.6,0.6-2.3c0.3-0.8,0.5-1.5,0.8-2.2c0.5-1.5,1.2-2.8,1.8-4.2c0.3-0.7,0.7-1.3,1.1-1.9
					c0.4-0.6,0.7-1.2,1.1-1.8c3.1-4.7,7-8.3,10.6-10.9c3.7-2.6,7.4-4.2,10.4-5.2c0.8-0.2,1.5-0.5,2.2-0.7c0.7-0.2,1.4-0.3,2-0.4
					c0.6-0.1,1.2-0.2,1.7-0.4c0.5-0.1,1-0.1,1.4-0.2C99,329.3,99.9,329.2,99.9,329.2z M99.9,329.2c0,0-0.9,0.1-2.6,0.3
					c-0.4,0.1-0.9,0.1-1.4,0.2c-0.5,0.1-1.1,0.2-1.7,0.4c-0.6,0.1-1.3,0.3-1.9,0.5c-0.7,0.2-1.4,0.5-2.1,0.7c-3,1.1-6.6,2.8-10,5.6
					c-3.4,2.8-6.8,6.6-9.2,11.4c-1.1,2.4-2.2,5-2.8,7.8c-0.1,0.7-0.3,1.4-0.4,2.1c-0.1,0.7-0.2,1.4-0.2,2.2l-0.1,1.1
					c0,0.4,0,0.7,0,1.1c0,0.7,0,1.4,0,2.1c0,0.7,0.1,1.6,0.2,2.3l0.1,1.2l0.1,0.6c0,0.1,0-0.1,0-0.1l0,0.1l0,0.1l0.1,0.3
					c0.3,1.5,0.5,3,1,4.4c0.8,2.9,2.2,5.7,3.8,8.4c0.4,0.6,0.9,1.3,1.3,1.9c0.4,0.6,1,1.2,1.4,1.8l0.7,0.9l0.8,0.8
					c0.6,0.6,1.1,1.1,1.6,1.7c2.3,2.1,4.9,3.9,7.7,5.4l2.1,1c0.7,0.4,1.5,0.5,2.2,0.8l1.1,0.4c0.4,0.1,0.8,0.2,1.1,0.3
					c0.8,0.2,1.5,0.4,2.3,0.6c0.8,0.1,1.6,0.2,2.3,0.4l0.6,0.1l0.5,0l1.1,0.1l1.1,0.1c0.2,0,0.4,0,0.6,0l0.7,0l2.8-0.1
					c-0.5,0-0.1,0-0.2,0l0.1,0l0.1,0l0.3,0l0.6-0.1l1.2-0.1c0.8,0,1.6-0.2,2.3-0.4c1.6-0.3,3-0.8,4.6-1.2c0.7-0.3,1.5-0.6,2.2-0.9
					c0.4-0.2,0.7-0.3,1.1-0.5l1-0.6c0.7-0.4,1.4-0.7,2.1-1.1l2-1.3c2.5-1.9,4.9-3.9,6.9-6.3c0.5-0.6,0.9-1.2,1.4-1.9l0.7-0.9l0.6-1
					c0.4-0.7,0.9-1.3,1.2-2c0.3-0.7,0.7-1.4,1-2.1c0.4-0.7,0.6-1.4,0.9-2.1c0.3-0.7,0.6-1.4,0.8-2.2c0.2-0.7,0.4-1.5,0.6-2.2
					c0.2-0.7,0.3-1.4,0.4-2.2c0.3-1.4,0.3-3.1,0.5-4.7l0-0.3l0-0.2l0-0.1c0-0.1,0,0.2,0,0.1l0-0.6l0-1.1c0-0.7,0-1.5-0.1-2.2
					c-0.6-5.9-2.7-11.4-5.7-15.8c-3-4.4-6.8-7.8-10.6-10.1c-3.7-2.4-7.5-3.6-10.6-4.3c-0.8-0.2-1.5-0.3-2.2-0.5
					c-0.7-0.1-1.4-0.1-2-0.2c-0.6-0.1-1.2-0.1-1.7-0.2c-0.5,0-1,0-1.4,0C100.9,329.1,99.9,329.2,99.9,329.2z"/>
			</g>
			<g>
				<linearGradient id="SVGID_20_" gradientUnits="userSpaceOnUse" x1="381.5889" y1="185.1361" x2="296.2598" y2="185.1361">
					<stop  offset="0" style="stop-color:#00BDCD"/>
					<stop  offset="0.9987" style="stop-color:#0085C7"/>
				</linearGradient>
				<path class="st21" d="M375.6,162.9c0,0,0.2,0.4,0.6,1.1c0.3,0.7,0.8,1.9,1.1,3.4c0.3,1.6,0.4,3.5,0.2,5.7
					c-0.3,2.2-0.9,4.7-1.9,7.2c-1.1,2.5-2.5,5.2-4.4,7.7c-1.9,2.5-4.1,5-6.8,7.2c-2.6,2.2-5.6,4.3-8.8,5.9c-1.6,0.8-3.3,1.6-5,2.3
					l-1.3,0.5l-0.7,0.2l-0.6,0.2l-1.2,0.4l-1.3,0.4c-3.5,1-7,1.7-10.6,2c-1.8,0.2-3.5,0.3-5.3,0.2c-1.8,0-3.5-0.1-5.2-0.3
					c-3.4-0.4-6.7-1.2-9.8-2.3c-3-1.2-5.8-2.8-7.9-4.9c-2.2-2-3.7-4.4-4.4-6.7c-0.2-0.6-0.3-1.1-0.4-1.7c-0.1-0.5-0.1-1-0.2-1.5
					c-0.1-0.9-0.2-1.7-0.2-2.5c-0.1-1.5-0.1-2.7-0.1-3.5c0-0.8,0-1.2,0-1.2s0.8,1.5,2.1,4.2c0.3,0.7,0.7,1.4,1.1,2.2
					c0.2,0.4,0.4,0.8,0.6,1.2c0.2,0.3,0.4,0.7,0.7,1.1c1,1.4,2.5,2.6,4.3,3.6c0.9,0.5,1.9,0.9,3,1.3c1.1,0.4,2.3,0.7,3.5,0.9
					c2.5,0.5,5.2,0.6,8,0.6c2.8,0,5.8-0.3,8.7-0.8c3-0.5,6-1.1,8.9-2l1.1-0.3l1.2-0.4l0.6-0.2l0.1,0c0,0-0.1,0,0,0l0,0l0.1,0
					l0.3-0.1l1.1-0.4c1.4-0.5,2.8-1,4.1-1.6c1.3-0.6,2.6-1.3,3.9-1.9c1.3-0.7,2.5-1.4,3.7-2.2c2.4-1.5,4.5-3.2,6.5-5
					c1.9-1.8,3.6-3.6,5-5.4c1.4-1.8,2.5-3.6,3.3-5.3c0.8-1.7,1.4-3.3,1.7-4.7c0.3-1.4,0.4-2.5,0.4-3.3
					C375.6,163.3,375.6,162.9,375.6,162.9z"/>
			</g>
			<g>
				<linearGradient id="SVGID_21_" gradientUnits="userSpaceOnUse" x1="201.9359" y1="199.7103" x2="116.6387" y2="199.7103">
					<stop  offset="0" style="stop-color:#00BDCD"/>
					<stop  offset="0.9987" style="stop-color:#0085C7"/>
				</linearGradient>
				<path class="st22" d="M183.3,174.7c0,0,0.5,0,1.3,0.1c0.9,0.1,2.2,0.2,3.8,0.7c1.6,0.5,3.6,1.2,5.6,2.6c1,0.7,2,1.7,3,2.8
					c0.2,0.3,0.4,0.6,0.7,0.9c0.2,0.3,0.4,0.7,0.6,1c0.2,0.4,0.4,0.7,0.5,1.1l0,0c0.1,0.3,0,0.1,0.1,0.2l0,0.1l0,0.1l0.1,0.2
					l0.2,0.5c0.6,1.7,0.9,3.5,0.9,5.3c0,1.8-0.3,3.7-0.8,5.5c-1.1,3.6-3,6.9-5.4,9.9c-2.4,3-5.2,5.6-8.3,7.9
					c-1.6,1.1-3.2,2.2-4.8,3.2c-1.7,1-3.4,1.9-5.1,2.7c-1.8,0.8-3.6,1.5-5.4,2.2c-0.4,0.2-0.9,0.3-1.4,0.5l-1.4,0.5
					c-0.9,0.2-1.6,0.5-2.7,0.7c-1,0.3-1.9,0.5-2.9,0.6c-0.9,0.2-1.9,0.3-2.8,0.4c-1.9,0.2-3.7,0.4-5.6,0.4c-3.7,0.1-7.2-0.3-10.5-1
					c-3.3-0.7-6.3-1.8-9-3.1c-2.6-1.3-4.9-2.9-6.6-4.5c-1.8-1.6-3-3.3-3.8-4.8c-0.8-1.5-1.2-2.8-1.4-3.6c-0.1-0.4-0.1-0.8-0.2-1
					c0-0.2,0-0.3,0-0.3s0.3,0.4,0.8,1.1c0.5,0.7,1.3,1.6,2.5,2.6c1.2,1,2.7,1.9,4.5,2.8c1.8,0.9,4,1.6,6.4,2.1
					c2.4,0.5,5.1,0.9,7.9,0.9c2.8,0.1,5.8-0.1,8.8-0.5c1.5-0.2,3-0.5,4.6-0.8c0.8-0.2,1.5-0.4,2.3-0.6c0.8-0.2,1.5-0.4,2.2-0.6
					c0.7-0.2,1.6-0.5,2.4-0.8c0.7-0.3,1.5-0.6,2.2-0.8c1.5-0.6,3.1-1.3,4.6-1.9c3-1.4,5.9-3,8.6-4.7c1.3-0.9,2.6-1.8,3.8-2.7
					c1.2-1,2.3-2,3.4-3c2.1-2,3.8-4.2,4.9-6.4c0.6-1.1,1-2.2,1.2-3.3c0.3-1.1,0.3-2.1,0.3-3l-0.1-0.5l0-0.2l0-0.1l0-0.1
					c0,0,0-0.1,0,0.1l0,0c-0.1-0.2-0.1-0.5-0.1-0.7c-0.1-0.2-0.1-0.5-0.2-0.7c-0.1-0.2-0.2-0.5-0.3-0.7c-0.4-0.9-0.9-1.8-1.4-2.6
					c-1.1-1.6-2.5-2.8-3.7-3.7c-1.2-0.9-2.3-1.6-3-2C183.7,174.9,183.3,174.7,183.3,174.7z"/>
			</g>
			<g>
				<linearGradient id="SVGID_22_" gradientUnits="userSpaceOnUse" x1="229.5855" y1="175.0962" x2="197.6201" y2="175.0962">
					<stop  offset="0" style="stop-color:#00BDCD"/>
					<stop  offset="0.9987" style="stop-color:#0085C7"/>
				</linearGradient>
				<path class="st23" d="M224.3,193.8c0,0-0.2,0.1-0.7,0.2c-0.5,0.1-1.1,0.4-2,0.6c-0.9,0.2-2,0.4-3.2,0.5c-0.6,0-1.3,0-2,0.1
					c-0.7,0-1.5-0.1-2.3-0.2c-1.6-0.2-3.3-0.6-5.1-1.2c-1.8-0.7-3.7-1.7-5.5-3.3c-1.8-1.5-3.4-3.6-4.3-6.1l-0.1-0.2l0-0.1l0-0.1
					c0.1,0.2-0.1-0.3-0.1-0.3l0,0l-0.1-0.3l-0.2-0.7l-0.2-0.7c-0.1-0.2-0.1-0.6-0.2-0.9c-0.1-0.7-0.3-1.3-0.4-2l-0.1-1.8
					c0-2.5,0.4-5,1.2-7.2c0.2-0.6,0.5-1.1,0.7-1.6l0.4-0.8l0.4-0.7c0.3-0.5,0.6-1,0.9-1.4c0.3-0.4,0.7-0.9,1-1.3
					c0.3-0.4,0.7-0.8,1-1.2c0.4-0.4,0.7-0.7,1.1-1.1c0.7-0.7,1.5-1.3,2.2-1.8c0.8-0.5,1.5-1,2.2-1.4c0.8-0.4,1.5-0.8,2.2-1.1
					c1.4-0.6,2.8-1.1,3.9-1.4c1.2-0.3,2.2-0.6,3.1-0.7c0.9-0.1,1.6-0.2,2.1-0.2c0.5,0,0.7,0,0.7,0s-0.2,0.2-0.5,0.6
					c-0.3,0.4-0.7,0.9-1.3,1.5c-0.6,0.6-1.2,1.4-2,2.3c-0.4,0.4-0.8,0.9-1.2,1.4c-0.4,0.5-0.9,0.9-1.2,1.5c-0.4,0.5-0.9,1-1.3,1.6
					c-0.4,0.6-0.8,1.1-1.2,1.7c-0.4,0.6-0.8,1.2-1.1,1.8c-0.3,0.6-0.8,1.2-1,1.9c-0.7,1.2-1,2.5-1.4,3.8c-0.3,1.3-0.4,2.5-0.4,3.8
					l0.1,1l0.1,0.8c0,0.2,0,0.2,0,0.4l0.2,0.7l0.2,0.7l0.1,0.3l0,0c0,0.1-0.1-0.4-0.1-0.2l0,0l0,0l0,0.1c0.3,1,0.7,2,1.4,3
					c0.7,1,1.6,2,2.6,2.8c1,0.9,2.1,1.7,3.2,2.4c1.1,0.7,2.2,1.3,3.1,1.9c1,0.5,1.9,1,2.6,1.4c0.8,0.4,1.4,0.7,1.8,1
					C224,193.6,224.3,193.8,224.3,193.8z"/>
			</g>
			<g>
				<linearGradient id="SVGID_23_" gradientUnits="userSpaceOnUse" x1="302.1864" y1="214.063" x2="216.3579" y2="214.063">
					<stop  offset="0" style="stop-color:#00BDCD"/>
					<stop  offset="0.9987" style="stop-color:#0085C7"/>
				</linearGradient>
				<path class="st24" d="M296.3,193.9c0,0,0.2,0.3,0.6,1c0.3,0.7,0.8,1.8,1.1,3.3c0.3,1.5,0.3,3.4-0.1,5.5
					c-0.4,2.1-1.3,4.4-2.5,6.7c-1.3,2.3-2.9,4.5-4.9,6.7c-2,2.1-4.3,4.2-6.9,6c-1.3,0.9-2.6,1.8-4,2.6c-1.4,0.8-2.8,1.6-4.3,2.3
					c-2.9,1.5-6.1,2.7-9.2,3.7c-3.3,1-6.5,1.7-9.8,2.1c-0.8,0.1-1.6,0.2-2.5,0.3c-0.8,0.1-1.6,0.1-2.5,0.1c-1.6,0.1-3.2,0.1-4.8,0
					c-6.4-0.3-12.4-2-16.9-4.8c-1.1-0.7-2.2-1.5-3.1-2.3c-0.9-0.8-1.7-1.7-2.3-2.6c-1.3-1.8-2-3.5-2.3-5c-0.2-0.7-0.2-1.4-0.3-1.9
					c0-0.3-0.1-0.5-0.1-0.7c-0.1-0.2-0.1-0.6,0-0.8c0.1-0.4,0.2-0.7,0.3-0.8c0.1-0.2,0.1-0.3,0.1-0.3s0,0.1,0,0.3
					c0,0.2,0.1,0.5,0.2,0.8c0,0.2,0.1,0.2,0.2,0.4c0.1,0.2,0.3,0.4,0.5,0.6c0.3,0.5,0.7,1,1,1.5c0.8,1,1.9,2.1,3.3,3
					c1.4,0.9,3.1,1.7,5.1,2.2c2,0.6,4.2,0.9,6.6,1.1c2.4,0.2,5,0.1,7.6-0.1c1.3-0.1,2.7-0.3,4-0.4c1.4-0.2,2.7-0.4,4.1-0.7
					c2.7-0.6,5.6-1.2,8.2-2.1c2.8-0.8,5.5-1.8,8.2-2.9c1.3-0.6,2.6-1.1,3.9-1.7c1.3-0.6,2.5-1.2,3.7-1.8c2.4-1.3,4.6-2.6,6.6-4
					c2-1.4,3.8-2.9,5.3-4.4c1.5-1.5,2.7-3,3.6-4.4c0.9-1.5,1.5-2.9,1.8-4.1c0.3-1.2,0.4-2.3,0.5-3
					C296.3,194.3,296.3,193.9,296.3,193.9z"/>
			</g>
			<g>
				<linearGradient id="SVGID_24_" gradientUnits="userSpaceOnUse" x1="301.5739" y1="135.3144" x2="106.3042" y2="135.3144">
					<stop  offset="0" style="stop-color:#00BDCD"/>
					<stop  offset="0.9987" style="stop-color:#0085C7"/>
				</linearGradient>
				<path class="st25" d="M296.3,193.9c0,0-0.3-1.4-1-4c-0.7-2.6-1.8-6.4-3.3-11.1c-1.5-4.8-3.5-10.5-6-16.9
					c-1.2-3.2-2.6-6.6-4.2-10.1c-0.8-1.7-1.4-3.6-2-5.5c-0.6-1.9-1.3-3.8-2.1-5.7c-3.1-7.7-6.9-15.9-11.8-23.9
					c-4.9-8-11-15.9-18.5-22.6C239.9,87.4,231,82,221,78.7c-9.9-3.3-20.8-4.3-31.6-3.5l-4.1,0.4l-4,0.5l-0.5,0.1l-0.1,0
					c-0.1,0,0.1,0,0,0l-0.3,0l-1.1,0.2l-2.1,0.4c-1.4,0.2-2.7,0.5-4,0.8c-5.2,1.2-10.4,2.7-15.3,4.7c-4.9,2-9.5,4.4-13.7,7.3
					c-4.2,2.9-7.9,6.3-11.1,9.9c-6.4,7.4-10.6,16.2-13,25c-2.4,8.9-3.2,17.7-3.2,25.9c0,2.1,0,4.1,0.2,6c0.2,2,0.3,3.9,0.3,5.8
					c-0.1,3.8,0,7.4,0.2,10.8c0.4,6.8,1,12.8,1.7,17.7c0.7,4.9,1.3,8.8,1.9,11.4c0.5,2.6,0.8,4,0.8,4s-0.7-1.3-1.9-3.7
					c-1.2-2.4-2.9-6-4.7-10.8c-1.8-4.7-3.9-10.6-5.8-17.5c-0.9-3.5-1.8-7.2-2.6-11.2c-0.2-1-0.4-2-0.5-3c-0.1-1-0.1-2.1-0.1-3.1
					c0-2.1-0.1-4.3-0.1-6.5c0-8.9,0.8-18.7,3.6-28.8c1.4-5,3.2-10.1,5.8-15.1c2.5-4.9,5.7-9.8,9.5-14.1c3.8-4.4,8.2-8.3,13.1-11.7
					c4.9-3.4,10.2-6.2,15.7-8.4c5.5-2.3,11.2-4,17.1-5.3c1.5-0.3,3-0.7,4.4-0.9l2.1-0.4l1.1-0.2l0.3,0l0.4-0.1l0.6-0.1l4.4-0.6
					l4.5-0.4c11.9-0.9,24.3,0.2,35.7,4c11.4,3.8,21.8,10,30.2,17.6c8.4,7.6,15.1,16.3,20.5,24.9c5.4,8.7,9.4,17.4,12.6,25.6
					c0.4,1,0.8,2,1.2,3c0.4,1,0.8,2,1.2,3c0.8,1.9,1.5,3.9,1.9,5.9c0.8,3.9,1.5,7.7,2.1,11.2c1.1,7,1.7,13.2,2,18.2
					c0.4,5.1,0.4,9,0.4,11.7C296.4,192.5,296.3,193.9,296.3,193.9z"/>
			</g>
			<g>
				<linearGradient id="SVGID_25_" gradientUnits="userSpaceOnUse" x1="228.041" y1="156.1918" x2="121.8018" y2="156.1918">
					<stop  offset="0" style="stop-color:#00BDCD"/>
					<stop  offset="0.9987" style="stop-color:#0085C7"/>
				</linearGradient>
				<path class="st26" d="M221.8,214.9c0,0,0.1-0.7,0.2-2.1c0.1-1.3,0.2-3.3,0.4-5.8c0.1-2.5,0.2-5.5,0.3-9c0-3.5,0-7.4-0.2-11.6
					c-0.2-4.3-0.6-8.8-1.1-13.6c-0.6-4.8-1.5-9.8-2.7-14.9c-1.3-5.1-2.8-10.2-5-15.2c-2.1-5-4.7-9.8-7.9-14.2
					c-1.6-2.2-3.3-4.3-5.2-6.2c-1.9-1.9-3.8-3.8-5.9-5.4c-2.1-1.7-4.3-3.2-6.5-4.6c-2.3-1.3-4.5-2.6-6.9-3.6
					c-4.7-2.1-9.5-3.7-14.1-4.8c-4.7-1.1-9.2-1.8-13.4-2.3c-4.2-0.5-8.1-0.7-11.6-0.8c-3.5,0-6.5-0.1-9,0c-2.5,0-4.5,0.1-5.8,0.2
					c-1.4,0-2.1,0.1-2.1,0.1s0.7-0.2,2-0.5c1.3-0.3,3.3-0.8,5.7-1.2c1.2-0.2,2.6-0.5,4.1-0.7c1.5-0.2,3.2-0.4,4.9-0.6
					c1.8-0.1,3.6-0.3,5.6-0.4c2-0.1,4.1-0.2,6.3-0.1c2.2,0,4.5,0.1,6.9,0.3c2.4,0.2,4.8,0.5,7.3,0.9c5,0.8,10.3,2.1,15.5,4.2
					c5.2,2.1,10.4,4.9,15.2,8.5c2.4,1.8,4.6,3.8,6.7,6c2.1,2.2,4,4.5,5.8,6.9c3.5,4.9,6.4,10.3,8.5,15.7c1.1,2.7,2,5.5,2.8,8.3
					c0.8,2.8,1.4,5.5,1.9,8.2c1,5.4,1.6,10.7,1.8,15.8c0.1,2.5,0.2,5,0.2,7.3c0,2.4-0.1,4.6-0.2,6.8c-0.2,4.4-0.7,8.3-1.2,11.8
					c-0.5,3.5-1.1,6.5-1.6,9c-0.5,2.5-1,4.4-1.4,5.7C222,214.2,221.8,214.9,221.8,214.9z"/>
			</g>
			<g>
				<linearGradient id="SVGID_26_" gradientUnits="userSpaceOnUse" x1="187.3646" y1="139.2511" x2="160.2021" y2="139.2511">
					<stop  offset="0" style="stop-color:#00BDCD"/>
					<stop  offset="0.9987" style="stop-color:#0085C7"/>
				</linearGradient>
				<path class="st27" d="M177.1,103.7c0,0-0.1,0.3-0.4,0.9c-0.3,0.6-0.6,1.5-1,2.5c-0.4,1.1-0.9,2.4-1.3,3.8
					c-0.2,0.7-0.5,1.5-0.7,2.3c-0.1,0.4-0.3,0.7-0.6,1.1c-0.3,0.3-0.5,0.7-0.7,1.1c-0.9,1.5-1.7,3.2-2.5,5c-0.8,1.8-1.4,3.8-1.8,5.9
					c-0.4,2.1-0.8,4.3-0.8,6.6c0,2.3,0.1,4.6,0.5,6.8c0.1,0.6,0.2,1.1,0.3,1.7c0.1,0.6,0.2,1.1,0.4,1.7c0.3,1.1,0.6,2.2,1,3.3
					c0.2,0.5,0.4,1.1,0.6,1.6c0.2,0.5,0.4,1.1,0.7,1.6c0.4,1.1,0.9,2.1,1.4,3.1c0.5,1,1,2,1.5,2.9c0.5,1,1.1,1.8,1.6,2.7
					c0.3,0.4,0.5,0.9,0.8,1.3c0.3,0.4,0.6,0.8,0.8,1.2c0.6,0.8,1.1,1.6,1.6,2.3c0.3,0.4,0.5,0.7,0.8,1c0.3,0.3,0.6,0.6,0.7,1.1
					c0.3,0.8,0.6,1.6,0.9,2.3c0.6,1.5,1,2.8,1.5,3.8c0.5,1.1,0.8,1.9,1,2.5c0.2,0.6,0.3,0.9,0.3,0.9s-0.3-0.1-0.9-0.4
					c-0.6-0.3-1.4-0.7-2.5-1.2c-1.1-0.5-2.3-1.3-3.7-2.2c-0.7-0.4-1.4-0.9-2.2-1.5c-0.4-0.3-0.7-0.6-0.9-1c-0.2-0.4-0.6-0.8-0.9-1.2
					c-0.6-0.8-1.2-1.6-1.8-2.5c-0.3-0.4-0.6-0.9-0.9-1.3c-0.3-0.5-0.6-0.9-0.9-1.4c-0.6-1-1.2-1.9-1.8-3c-0.6-1.1-1.2-2.1-1.7-3.2
					c-0.5-1.1-1.1-2.3-1.6-3.5c-0.2-0.6-0.5-1.2-0.7-1.8c-0.2-0.6-0.4-1.2-0.6-1.9c-0.5-1.2-0.8-2.6-1.1-3.9c-0.2-0.7-0.3-1.3-0.4-2
					c-0.1-0.7-0.3-1.3-0.4-2c-0.5-2.7-0.6-5.4-0.6-8.1c0-2.7,0.4-5.4,1-7.9c0.5-2.5,1.3-4.9,2.2-7.1c0.9-2.2,1.9-4.2,2.9-5.9
					c0.2-0.5,0.5-0.9,0.7-1.3c0.2-0.4,0.4-0.9,0.8-1.2c0.7-0.6,1.4-1.2,2.1-1.7c1.4-1,2.6-1.8,3.7-2.4c1-0.6,1.9-1,2.5-1.2
					C176.7,103.8,177.1,103.7,177.1,103.7z"/>
			</g>
			<g>
				<linearGradient id="SVGID_27_" gradientUnits="userSpaceOnUse" x1="381.1102" y1="100.7723" x2="219.5275" y2="100.7723">
					<stop  offset="0" style="stop-color:#00BDCD"/>
					<stop  offset="0.9987" style="stop-color:#0085C7"/>
				</linearGradient>
				<path class="st28" d="M375.8,163.6c0,0-0.2-0.9-0.6-2.7c-0.3-1.8-0.9-4.4-1.7-7.6c-0.7-3.3-1.7-7.2-2.8-11.6
					c-0.6-2.2-1.2-4.6-1.9-7c-0.4-1.2-0.5-2.5-0.6-3.8c-0.1-1.3-0.3-2.7-0.6-4c-0.9-5.5-2.1-11.3-3.8-17.4
					c-1.7-6.1-3.8-12.3-6.6-18.5c-2.8-6.2-6.2-12.3-10.5-17.8c-4.2-5.5-9.3-10.4-15.1-14.3c-5.8-3.8-12.2-6.6-19-8.2
					c-3.4-0.8-6.8-1.3-10.2-1.6c-3.4-0.3-6.8-0.3-10.2-0.2c-6.7,0.2-13.2,1.2-19.4,2.6c-6,1.3-11.6,3.1-16.5,5.1
					c-1.2,0.5-2.4,1-3.5,1.6c-1.1,0.6-2.2,1.2-3.4,1.6c-1.2,0.4-2.3,0.8-3.4,1.3c-0.5,0.2-1.1,0.4-1.6,0.7c-0.5,0.2-1,0.5-1.5,0.7
					c-4,1.9-7.4,3.8-10.1,5.7c-0.7,0.5-1.3,0.9-1.9,1.4c-0.6,0.4-1.2,0.8-1.7,1.2c-1,0.8-1.9,1.5-2.5,2.1c-1.4,1.2-2.1,1.8-2.1,1.8
					s0.4-0.9,1.2-2.5c0.8-1.6,2.1-4,4.1-6.8c2-2.8,4.7-6.2,8.3-9.5c0.9-0.9,1.8-1.7,2.9-2.5c1-0.8,2.1-1.7,3.2-2.5
					c0.6-0.4,1.1-0.8,1.8-1.2c0.6-0.4,1.3-0.6,2-0.9c0.7-0.3,1.3-0.6,2-0.9c0.7-0.3,1.4-0.6,2.1-0.9c5.6-2.4,11.7-4.3,18.5-5.8
					c6.5-1.4,13.7-2.5,21.2-2.8c3.7-0.1,7.6,0,11.5,0.3c3.9,0.4,7.8,1,11.7,1.9c7.8,1.9,15.5,5.1,22.4,9.7
					c6.9,4.5,12.8,10.3,17.6,16.6c4.9,6.3,8.7,13.1,11.7,19.9c3.1,6.8,5.4,13.6,7.1,20.1c1.8,6.5,3.1,12.7,4,18.5
					c0.3,1.4,0.4,2.9,0.7,4.2c0.3,1.4,0.5,2.7,0.5,4.1c-0.1,2.7-0.2,5.2-0.3,7.6c-0.3,4.8-0.8,8.9-1.3,12.2c-0.5,3.4-1,6-1.3,7.8
					C376,162.6,375.8,163.6,375.8,163.6z"/>
			</g>
			<g>
				<linearGradient id="SVGID_28_" gradientUnits="userSpaceOnUse" x1="315.9452" y1="126.7767" x2="222.9857" y2="126.7767">
					<stop  offset="0" style="stop-color:#00BDCD"/>
					<stop  offset="0.9987" style="stop-color:#0085C7"/>
				</linearGradient>
				<path class="st29" d="M301.6,182.8c0,0,0.2-0.7,0.6-1.9c0.4-1.2,0.8-3.1,1.4-5.4c0.6-2.3,1.2-5.1,1.9-8.4
					c0.7-3.2,1.3-6.9,2-10.9c0.6-4,1.1-8.4,1.5-12.9c0.4-4.6,0.5-9.4,0.3-14.4c-0.2-5-0.7-10-1.9-15c-0.5-2.5-1.3-4.9-2.2-7.3
					c-0.9-2.4-1.9-4.7-3.2-6.9c-1.2-2.2-2.6-4.3-4.2-6.2c-1.6-1.9-3.3-3.7-5.2-5.3c-3.8-3.2-8.1-5.7-12.6-7.5
					c-4.5-1.8-9.1-3.1-13.5-4c-4.5-0.8-8.8-1.4-12.8-1.6c-4-0.3-7.7-0.4-11.1-0.4c-1.7,0-3.2,0.1-4.6,0.1c-1.4,0-2.8,0.1-4,0.1
					c-2.4,0.1-4.3,0.2-5.6,0.2c-1.3,0.1-2,0.1-2,0.1s0.7-0.2,1.9-0.5c1.3-0.3,3.1-0.8,5.4-1.2c1.2-0.2,2.5-0.5,3.9-0.8
					c1.4-0.2,3-0.5,4.7-0.7c1.7-0.2,3.5-0.4,5.3-0.6c1.9-0.1,3.9-0.3,6-0.4c4.2-0.2,8.7-0.1,13.5,0.5c4.8,0.6,9.9,1.5,15,3.4
					c1.3,0.4,2.5,1,3.8,1.5c1.2,0.6,2.5,1.2,3.7,1.9c2.5,1.3,4.9,3,7.1,4.7c2.2,1.8,4.4,3.9,6.3,6.1c1.9,2.3,3.5,4.7,5,7.3
					c2.8,5.2,4.7,10.7,5.8,16.3c0.6,2.8,0.9,5.5,1.2,8.3c0.2,2.7,0.3,5.4,0.3,8.1c0,5.3-0.6,10.4-1.3,15.1
					c-0.7,4.7-1.7,9.1-2.8,13.2c-1,4-2.2,7.6-3.3,10.8c-1.1,3.2-2.2,5.9-3.2,8.1c-0.9,2.2-1.8,3.9-2.4,5.1
					C301.9,182.2,301.6,182.8,301.6,182.8z"/>
			</g>
			<g>
				<linearGradient id="SVGID_29_" gradientUnits="userSpaceOnUse" x1="278.9671" y1="88.4553" x2="259.2607" y2="88.4553">
					<stop  offset="0" style="stop-color:#00BDCD"/>
					<stop  offset="0.9987" style="stop-color:#0085C7"/>
				</linearGradient>
				<path class="st30" d="M277.2,76.2c0,0-0.2,0.4-0.7,1.1c-0.4,0.7-1.1,1.7-1.8,2.9c-0.8,1.2-1.7,2.5-2.6,3.9
					c-0.5,0.7-1,1.4-1.5,2.2c-0.5,0.7-1,1.5-1.5,2.2c-0.5,0.7-1,1.5-1.5,2.2c-0.5,0.7-1,1.5-1.4,2.2c-0.9,1.4-1.8,2.8-2.5,3.9
					c-0.3,0.6-0.7,1.1-1,1.6c-0.3,0.5-0.6,0.9-0.8,1.3c-0.4,0.7-0.7,1.1-0.7,1.1s0-0.5,0.1-1.3c0-0.4,0.1-0.9,0.2-1.5
					c0.1-0.6,0.2-1.2,0.4-1.9c0.2-0.7,0.4-1.4,0.7-2.2c0.3-0.8,0.6-1.6,1-2.4c0.4-0.8,0.8-1.7,1.3-2.5c0.5-0.8,1-1.6,1.5-2.4
					c2.1-3.2,4.8-5.9,7.1-7.6c1.1-0.9,2.1-1.5,2.8-2C276.8,76.4,277.2,76.2,277.2,76.2z"/>
			</g>
			<g>
				<linearGradient id="SVGID_30_" gradientUnits="userSpaceOnUse" x1="500.3644" y1="321.9473" x2="237.912" y2="321.9473">
					<stop  offset="0" style="stop-color:#00BDCD"/>
					<stop  offset="0.9987" style="stop-color:#0085C7"/>
				</linearGradient>
				<path class="st31" d="M246.8,493.5c0,0,0.6-0.1,1.6-0.4c1.1-0.3,2.7-0.7,4.7-1.3c2-0.6,4.5-1.5,7.3-2.7c1.4-0.6,2.9-1.3,4.4-2.1
					c1.6-0.8,3.3-1.6,5.1-2.5c7.1-3.6,15.8-7.9,25.7-12.8c10-4.9,21.2-10.3,33.6-16.2c12.3-5.9,25.7-12.2,39.9-18.8
					c14.2-6.6,29.2-13.4,44.7-20.5c7.8-3.5,15.7-7.1,23.7-10.6c4-1.8,8-3.6,12.1-5.4c2-0.9,4.1-1.8,6.1-2.7l1.5-0.7l0.4-0.2
					c0,0,0.4-0.2,0,0l0.2-0.1l0.8-0.4l1.5-0.7c0.5-0.2,0.8-0.4,1.1-0.6c0.4-0.2,0.7-0.4,1.1-0.6l1.2-0.7c0.8-0.5,1.5-1,2.3-1.6
					c0.8-0.5,1.5-1.2,2.2-1.7c0.7-0.6,1.4-1.2,2.1-1.9c2.7-2.6,5-5.6,6.9-8.8c3.8-6.4,5.9-13.9,5.8-21.4l0-1.4l-0.1-1.5l-0.2-3.4
					L482,345c-0.2-4.5-0.5-9.1-0.7-13.6c-0.5-9-0.9-18.1-1.4-27c-0.2-4.5-0.4-8.9-0.7-13.4c-0.2-4.4-0.4-8.8-0.6-13.2
					c-0.4-8.8-0.8-17.4-1.1-26c-0.7-17-1.2-33.5-1.6-49.2c-0.1-2-0.1-3.9-0.2-5.8l0-1.4l0-0.7c0-0.3,0,0.2,0,0.1l0-0.2l0-0.4
					c-0.1-1-0.1-1.9-0.2-2.9c-0.3-2.7-1.2-6-2.3-8.8c-1.1-2.9-2.8-5.5-4.7-7.9c-0.9-1.2-2-2.3-3-3.4c-0.6-0.5-1.1-1-1.7-1.5
					c-0.5-0.5-1.2-0.9-1.8-1.4c-2.4-1.7-5-3.2-7.6-4.2c-1.3-0.6-2.7-0.9-4.1-1.3c-0.7-0.1-1.4-0.3-2.1-0.4l-1-0.2l-1.1-0.2
					c-6.2-1-12-1.9-17.5-2.7c-11-1.7-20.5-3.3-28.4-4.6c-7.9-1.3-14-2.4-18.2-3.2c-4.2-0.8-6.4-1.2-6.4-1.2s2.3,0.1,6.6,0.2
					c4.3,0.2,10.5,0.3,18.5,0.7c8,0.3,17.6,0.7,28.7,1.3c5.5,0.3,11.4,0.6,17.7,1l1.2,0.1l1.3,0.1c0.9,0.1,1.8,0.2,2.6,0.3
					c1.7,0.4,3.5,0.6,5.3,1.2c3.5,1,7,2.5,10.3,4.5c3.3,2,6.4,4.5,9.2,7.5c2.8,3,5.2,6.4,7.1,10.2c1.9,3.8,3.3,7.8,4.1,12.6
					c0.1,0.9,0.3,1.9,0.4,2.8l0,0.4l0,0.2c0,0,0.1,0.7,0,0.5l0.1,0.7l0.1,1.4c0.2,1.9,0.3,3.9,0.5,5.8c1.3,15.6,2.7,32,4,49
					c0.7,8.5,1.3,17.1,1.9,25.9c0.3,4.4,0.6,8.8,1,13.2c0.3,4.4,0.6,8.9,0.9,13.3c0.6,8.9,1.2,17.9,1.7,27c0.3,4.5,0.5,9.1,0.8,13.6
					l0.4,6.8l0.2,3.4l0.1,1.9c0,0.7,0,1.3,0,2c0.1,10.7-3,21.4-8.4,30.5c-2.7,4.6-6.1,8.7-10,12.3c-1,0.9-2,1.8-3,2.6
					c-1,0.8-2.1,1.6-3.1,2.4c-1.1,0.7-2.2,1.5-3.3,2.2l-1.7,1c-0.6,0.3-1.2,0.7-1.8,1c-0.6,0.3-1.3,0.7-1.8,0.9l-1.5,0.7l-0.8,0.3
					l-1,0.4l-1.5,0.6c-2.1,0.9-4.1,1.7-6.2,2.6c-4.1,1.7-8.2,3.4-12.2,5c-8.1,3.3-16.1,6.6-24,9.8c-15.8,6.4-31.1,12.5-45.7,18.3
					c-14.6,5.7-28.3,11.1-41.1,15.9c-12.8,4.9-24.5,9.3-34.9,13.1c-10.4,3.9-19.5,7.1-27,9.8c-1.9,0.7-3.7,1.3-5.3,1.9
					c-1.7,0.6-3.3,1.1-4.8,1.5c-3,0.8-5.6,1.4-7.8,1.7c-2.1,0.3-3.8,0.5-4.9,0.6C247.3,493.4,246.8,493.5,246.8,493.5z"/>
			</g>
			<g>
				<linearGradient id="SVGID_31_" gradientUnits="userSpaceOnUse" x1="192.1059" y1="338.8725" x2="4.0296" y2="338.8724">
					<stop  offset="0" style="stop-color:#00BDCD"/>
					<stop  offset="0.9987" style="stop-color:#0085C7"/>
				</linearGradient>
				<path class="st32" d="M118.2,194.6c0,0-1.7,0.8-4.8,2.3c-3.2,1.4-7.7,3.6-13.6,6.3c-5.9,2.6-13.1,5.9-21.3,9.5
					c-8.2,3.6-17.6,7.6-27.8,11.9c-5.1,2.1-10.4,4.3-15.9,6.6c-1.3,0.5-2.6,1.1-3.9,1.6l-1,0.5l-0.5,0.2c-0.2,0.1-0.2,0.1-0.3,0.2
					c-0.4,0.2-0.8,0.4-1.3,0.8c-1,0.6-1.8,1.4-2.6,2.2c-0.8,0.8-1.5,1.7-2.1,2.7c-1.3,1.9-2.1,4.1-2.5,6.3c-0.2,1.1-0.3,2.3-0.2,3.4
					l0,0.4l0,0.6l0.1,1.2c0,0.8,0.1,1.7,0.1,2.5c0.3,6.6,0.6,13.4,0.8,20.3c0.3,6.9,0.5,13.9,0.7,21c0.2,7.1,0.5,14.3,0.6,21.6
					c0.4,14.5,0.6,29.2,0.9,44c0.1,7.4,0.2,14.7,0.2,22.1c0,3.7,0.1,7.3,0.1,11c0,1.8,0,3.5,0,5.3l0,0.7l0,0.3l0,0.2
					c0,0.3,0,0.6,0.1,0.9c0.1,0.7,0.1,1.4,0.2,2.1c0.4,2.8,1.2,5.5,2.4,8.1c0.3,0.6,0.6,1.3,0.9,1.9l0.5,0.9l0.3,0.5l0.1,0.2
					l0.1,0.1c-0.2-0.3,0,0,0,0l0.7,1.1c0.1,0.2,0.2,0.3,0.3,0.4l0.3,0.4c0.2,0.2,0.4,0.5,0.6,0.8c0.2,0.3,0.4,0.6,0.7,0.8
					c3.6,4.3,8.3,7.6,13.5,9.5c13,4.7,25.5,9.4,37.4,13.8c11.9,4.5,23,8.8,33.3,12.8c10.3,4.1,19.7,7.8,28,11.2
					c8.3,3.4,15.6,6.5,21.5,9c6,2.5,10.6,4.6,13.8,6c3.2,1.4,4.9,2.2,4.9,2.2s-1.8-0.4-5.2-1.2c-3.4-0.8-8.3-2-14.6-3.6
					c-6.3-1.6-13.9-3.5-22.6-5.8c-8.7-2.3-18.5-5-29.1-8c-10.7-3-22.2-6.3-34.3-9.9c-12.1-3.6-25-7.5-38.1-11.6
					c-7.9-2.4-15.4-7.2-21.1-13.6c-0.4-0.4-0.7-0.8-1.1-1.2c-0.3-0.4-0.7-0.8-1-1.3c-0.3-0.4-0.7-1-1-1.4l-0.8-1.1l-1-1.5l-0.8-1.4
					c-0.5-0.9-1.1-1.9-1.5-2.9c-1.9-3.9-3.3-8.2-4-12.5c-0.2-1.1-0.3-2.2-0.4-3.3c-0.1-0.5-0.1-1.2-0.1-1.8l0-0.4l0-0.3l0-0.7
					c0-1.9-0.1-3.7-0.1-5.6c-0.1-3.7-0.2-7.3-0.2-11c-0.1-7.3-0.3-14.7-0.4-22.1c-0.2-14.7-0.3-29.5-0.3-44c0-7.3,0-14.5,0-21.6
					c0-7.1,0-14.1,0.1-21c0.1-6.9,0.1-13.7,0.3-20.4c0-0.8,0-1.7,0-2.5l0-1.2l0-0.6l0-0.8c0-2.1,0.4-4.2,0.9-6.3
					c1.1-4.1,2.9-7.9,5.4-11.1c1.2-1.6,2.7-3,4.1-4.4c1.5-1.3,3.1-2.4,4.8-3.4c0.8-0.5,1.8-0.9,2.8-1.4c0.2-0.1,0.5-0.2,0.7-0.3
					l0.5-0.2l1.1-0.4c0.5-0.2,0.2-0.1,0.4-0.1l0.1,0l0.3-0.1l0.5-0.2l1.1-0.3c0.7-0.2,1.4-0.4,2.1-0.7c5.7-1.8,11.2-3.5,16.5-5.1
					c10.6-3.2,20.3-6.1,28.9-8.7c8.6-2.5,16.2-4.6,22.4-6.4c6.2-1.8,11.2-3,14.5-3.9C116.4,195.1,118.2,194.6,118.2,194.6z"/>
			</g>
			<g>
				<linearGradient id="SVGID_32_" gradientUnits="userSpaceOnUse" x1="272.0271" y1="483.443" x2="95.1067" y2="483.443">
					<stop  offset="0" style="stop-color:#00BDCD"/>
					<stop  offset="0.9987" style="stop-color:#0085C7"/>
				</linearGradient>
				<path class="st33" d="M100.4,402.1c0,0,0.7,0.6,2.1,1.6c1.3,1.1,3.3,2.6,5.8,4.6c2.5,2,5.5,4.5,8.9,7.3
					c3.4,2.9,7.2,6.1,11.4,9.7c8.3,7.2,17.8,15.6,27.8,24.9c2.5,2.3,5,4.7,7.6,7.1c2.6,2.4,5.2,4.8,7.7,7.3
					c5.2,4.9,10.4,10,15.6,15.1c5.2,5.1,10.4,10.2,15.4,15.3c2.5,2.5,5,5.1,7.5,7.6c2.5,2.5,4.9,5,7.2,7.4
					c9.5,9.8,18.2,19.1,25.5,27.2c3.7,4.1,7,7.8,9.9,11.1c2.9,3.3,5.4,6.3,7.5,8.7c2.1,2.4,3.7,4.4,4.8,5.7c1.1,1.3,1.7,2,1.7,2
					s-0.7-0.6-2.1-1.6c-1.3-1.1-3.3-2.6-5.8-4.6c-2.5-2-5.5-4.5-8.9-7.3c-3.4-2.9-7.2-6.1-11.4-9.7c-8.3-7.2-17.8-15.6-27.8-24.9
					c-2.5-2.3-5-4.7-7.6-7.1c-2.6-2.4-5.1-4.8-7.7-7.3c-5.2-4.9-10.4-10-15.6-15.1c-5.2-5.1-10.4-10.2-15.4-15.3
					c-2.5-2.5-5-5.1-7.5-7.6c-2.5-2.5-4.9-5-7.2-7.4c-9.5-9.8-18.2-19.1-25.5-27.2c-3.7-4.1-7-7.8-9.9-11.1
					c-2.9-3.3-5.4-6.3-7.5-8.7c-2.1-2.4-3.7-4.4-4.8-5.7C101,402.8,100.4,402.1,100.4,402.1z"/>
			</g>
			<g>
				<linearGradient id="SVGID_33_" gradientUnits="userSpaceOnUse" x1="296.0224" y1="460.3957" x2="129.5717" y2="460.3956">
					<stop  offset="0" style="stop-color:#00BDCD"/>
					<stop  offset="0.9987" style="stop-color:#0085C7"/>
				</linearGradient>
				<path class="st34" d="M134.9,384.8c0,0,0.7,0.5,2,1.5c1.3,1,3.1,2.4,5.5,4.3c2.3,1.9,5.2,4.1,8.4,6.7c3.2,2.6,6.8,5.6,10.7,8.9
					c7.8,6.6,16.7,14.5,26.1,23c2.4,2.1,4.7,4.3,7.1,6.6c2.4,2.2,4.8,4.5,7.3,6.8c4.9,4.6,9.8,9.3,14.6,14
					c4.8,4.7,9.7,9.5,14.4,14.2c2.4,2.4,4.7,4.7,7,7c2.3,2.3,4.6,4.6,6.8,6.9c8.9,9.1,17,17.8,23.8,25.4c3.4,3.8,6.5,7.3,9.3,10.4
					c2.7,3.1,5.1,5.9,7,8.2c1.9,2.3,3.4,4.1,4.4,5.3c1,1.2,1.5,1.9,1.5,1.9s-0.7-0.5-2-1.5c-1.3-1-3.1-2.4-5.5-4.3
					c-2.3-1.9-5.2-4.1-8.4-6.7c-3.2-2.6-6.8-5.6-10.7-8.9c-7.8-6.6-16.7-14.5-26.1-23c-2.4-2.1-4.7-4.3-7.1-6.6
					c-2.4-2.2-4.8-4.5-7.3-6.8c-4.9-4.6-9.8-9.3-14.6-14c-4.8-4.7-9.7-9.5-14.4-14.2c-2.4-2.3-4.7-4.7-7-7c-2.3-2.3-4.6-4.6-6.8-6.9
					c-8.9-9.1-17-17.8-23.8-25.4c-3.4-3.8-6.5-7.3-9.3-10.4c-2.7-3.1-5.1-5.9-7-8.2c-1.9-2.3-3.4-4.1-4.4-5.3
					C135.4,385.5,134.9,384.8,134.9,384.8z"/>
			</g>
		</g>
	</g>
</g>
<g id="Guides" class="st35">
</g>
<g id="Layer_2">
</g>
</svg>
