<svg xmlns="http://www.w3.org/2000/svg" xmlns:xlink="http://www.w3.org/1999/xlink" viewBox="0 0 383.18 357.06"><defs><style>.cls-1{fill:#fff;}.cls-2{fill:url(#New_Gradient_Swatch_5);}.cls-3{fill:url(#New_Gradient_Swatch_copy);}.cls-4{fill:url(#New_Gradient_Swatch_copy-2);}.cls-5{fill:url(#New_Gradient_Swatch_copy-3);}.cls-6{fill:url(#New_Gradient_Swatch_copy-4);}.cls-7{fill:url(#New_Gradient_Swatch_copy-5);}.cls-8{fill:url(#New_Gradient_Swatch_5-2);}.cls-9{fill:url(#New_Gradient_Swatch_5-3);}.cls-10{fill:url(#New_Gradient_Swatch_5-4);}.cls-11{fill:url(#New_Gradient_Swatch_5-5);}.cls-12{fill:url(#New_Gradient_Swatch_5-6);}.cls-13{fill:url(#New_Gradient_Swatch_5-7);}.cls-14{fill:url(#New_Gradient_Swatch_5-8);}.cls-15{fill:url(#New_Gradient_Swatch_5-9);}.cls-16{fill:url(#New_Gradient_Swatch_5-10);}.cls-17{fill:url(#New_Gradient_Swatch_5-11);}.cls-18{fill:url(#New_Gradient_Swatch_5-12);}.cls-19{fill:url(#New_Gradient_Swatch_5-13);}.cls-20{fill:url(#New_Gradient_Swatch_5-14);}.cls-21{fill:url(#New_Gradient_Swatch_5-15);}.cls-22{fill:url(#New_Gradient_Swatch_5-16);}.cls-23{fill:url(#New_Gradient_Swatch_5-17);}.cls-24{fill:url(#New_Gradient_Swatch_5-18);}.cls-25{fill:url(#New_Gradient_Swatch_5-19);}.cls-26{fill:url(#New_Gradient_Swatch_5-20);}.cls-27{fill:url(#New_Gradient_Swatch_5-21);}.cls-28{fill:url(#New_Gradient_Swatch_5-22);}.cls-29{fill:url(#New_Gradient_Swatch_5-23);}.cls-30{fill:url(#New_Gradient_Swatch_5-24);}.cls-31{fill:url(#New_Gradient_Swatch_5-25);}.cls-32{fill:url(#New_Gradient_Swatch_5-26);}.cls-33{fill:url(#New_Gradient_Swatch_5-27);}.cls-34{fill:url(#New_Gradient_Swatch_5-28);}.cls-35{fill:url(#New_Gradient_Swatch_5-29);}</style><linearGradient id="New_Gradient_Swatch_5" x1="186.55" y1="159.91" x2="378.76" y2="159.91" gradientUnits="userSpaceOnUse"><stop offset="0" stop-color="#00bdcd"/><stop offset="1" stop-color="#0085c7"/></linearGradient><linearGradient id="New_Gradient_Swatch_copy" x1="210.51" y1="70.54" x2="225.88" y2="70.54" gradientUnits="userSpaceOnUse"><stop offset="0" stop-color="#c7edf2"/><stop offset="1" stop-color="#c4deef"/></linearGradient><linearGradient id="New_Gradient_Swatch_copy-2" x1="159.2" y1="154.57" x2="187.29" y2="154.57" xlink:href="#New_Gradient_Swatch_copy"/><linearGradient id="New_Gradient_Swatch_copy-3" x1="109.13" y1="159.94" x2="265.35" y2="159.94" xlink:href="#New_Gradient_Swatch_copy"/><linearGradient id="New_Gradient_Swatch_copy-4" x1="154.99" y1="313.47" x2="239.24" y2="313.47" xlink:href="#New_Gradient_Swatch_copy"/><linearGradient id="New_Gradient_Swatch_copy-5" x1="0.5" y1="75.19" x2="84.77" y2="75.19" xlink:href="#New_Gradient_Swatch_copy"/><linearGradient id="New_Gradient_Swatch_5-2" x1="265.99" y1="72.24" x2="285.35" y2="72.24" xlink:href="#New_Gradient_Swatch_5"/><linearGradient id="New_Gradient_Swatch_5-3" x1="209.85" y1="58.97" x2="227.23" y2="58.97" xlink:href="#New_Gradient_Swatch_5"/><linearGradient id="New_Gradient_Swatch_5-4" x1="129.63" y1="159.85" x2="268.69" y2="159.85" xlink:href="#New_Gradient_Swatch_5"/><linearGradient id="New_Gradient_Swatch_5-5" x1="273.07" y1="120.19" x2="375.56" y2="120.19" xlink:href="#New_Gradient_Swatch_5"/><linearGradient id="New_Gradient_Swatch_5-6" x1="136.82" y1="160.24" x2="215.82" y2="160.24" xlink:href="#New_Gradient_Swatch_5"/><linearGradient id="New_Gradient_Swatch_5-7" x1="176.37" y1="163.45" x2="225.01" y2="163.45" xlink:href="#New_Gradient_Swatch_5"/><linearGradient id="New_Gradient_Swatch_5-8" x1="156.56" y1="154.57" x2="190.62" y2="154.57" xlink:href="#New_Gradient_Swatch_5"/><linearGradient id="New_Gradient_Swatch_5-9" x1="151.34" y1="312.43" x2="243.58" y2="312.43" xlink:href="#New_Gradient_Swatch_5"/><linearGradient id="New_Gradient_Swatch_5-10" x1="152.75" y1="329.47" x2="197.42" y2="329.47" xlink:href="#New_Gradient_Swatch_5"/><linearGradient id="New_Gradient_Swatch_5-11" x1="80.47" y1="98.12" x2="116.51" y2="98.12" xlink:href="#New_Gradient_Swatch_5"/><linearGradient id="New_Gradient_Swatch_5-12" x1="69.17" y1="119.51" x2="115.07" y2="119.51" xlink:href="#New_Gradient_Swatch_5"/><linearGradient id="New_Gradient_Swatch_5-13" x1="-3.14" y1="75.3" x2="89.1" y2="75.3" xlink:href="#New_Gradient_Swatch_5"/><linearGradient id="New_Gradient_Swatch_5-14" x1="-2.15" y1="62.11" x2="40.88" y2="62.11" xlink:href="#New_Gradient_Swatch_5"/><linearGradient id="New_Gradient_Swatch_5-15" x1="326.23" y1="161.08" x2="330.7" y2="208.99" xlink:href="#New_Gradient_Swatch_5"/><linearGradient id="New_Gradient_Swatch_5-16" x1="171.39" y1="82.87" x2="219.46" y2="82.87" xlink:href="#New_Gradient_Swatch_5"/><linearGradient id="New_Gradient_Swatch_5-17" x1="272.6" y1="91.07" x2="320.65" y2="91.07" xlink:href="#New_Gradient_Swatch_5"/><linearGradient id="New_Gradient_Swatch_5-18" x1="257.02" y1="77.22" x2="275.03" y2="77.22" xlink:href="#New_Gradient_Swatch_5"/><linearGradient id="New_Gradient_Swatch_5-19" x1="216.12" y1="99.16" x2="264.47" y2="99.16" xlink:href="#New_Gradient_Swatch_5"/><linearGradient id="New_Gradient_Swatch_5-20" x1="216.47" y1="54.83" x2="326.47" y2="54.83" xlink:href="#New_Gradient_Swatch_5"/><linearGradient id="New_Gradient_Swatch_5-21" x1="257.89" y1="66.57" x2="317.74" y2="66.57" xlink:href="#New_Gradient_Swatch_5"/><linearGradient id="New_Gradient_Swatch_5-22" x1="280.8" y1="57.02" x2="296.11" y2="57.02" xlink:href="#New_Gradient_Swatch_5"/><linearGradient id="New_Gradient_Swatch_5-23" x1="171.66" y1="35.36" x2="262.69" y2="35.36" xlink:href="#New_Gradient_Swatch_5"/><linearGradient id="New_Gradient_Swatch_5-24" x1="208.37" y1="50.01" x2="260.74" y2="50.01" xlink:href="#New_Gradient_Swatch_5"/><linearGradient id="New_Gradient_Swatch_5-25" x1="229.2" y1="28.41" x2="240.3" y2="28.41" xlink:href="#New_Gradient_Swatch_5"/><linearGradient id="New_Gradient_Swatch_5-26" x1="104.48" y1="159.94" x2="252.33" y2="159.94" xlink:href="#New_Gradient_Swatch_5"/><linearGradient id="New_Gradient_Swatch_5-27" x1="278.13" y1="169.47" x2="384.08" y2="169.47" xlink:href="#New_Gradient_Swatch_5"/><linearGradient id="New_Gradient_Swatch_5-28" x1="233.11" y1="250.91" x2="332.78" y2="250.91" xlink:href="#New_Gradient_Swatch_5"/><linearGradient id="New_Gradient_Swatch_5-29" x1="219.59" y1="237.93" x2="313.36" y2="237.93" xlink:href="#New_Gradient_Swatch_5"/></defs><title>Asset 4</title><g id="Layer_2" data-name="Layer 2"><g id="Layer_1-2" data-name="Layer 1"><path class="cls-1" d="M328.43,206.07c-.48,0-1,0-1.44,0a21.12,21.12,0,1,1,1.44,0Z" transform="translate(-0.22)"/><path class="cls-1" d="M246.94,256.56l9.68-9.4L310,195.37A21,21,0,0,0,327,206c.48,0,1,0,1.44,0L282.8,250.73h0l-47,46a42.12,42.12,0,0,0-13-16.71Z" transform="translate(-0.22)"/><path class="cls-1" d="M282.46,77.07c.53-.58,1.07-1.14,1.55-1.69,17.61-19.83,6.89-33.84,2.26-38.39v0c7.5-2.46,17-3.26,29.1-1.54h0c12,16.87,7.31,41.2,4.06,52.78-1.16,4.11-2.14,6.61-2.14,6.61-2.12,6.35-13.39,10.06-24.83,6.27s-19-12-16.87-18.39C276.51,80,279,78.07,282.46,77.07Z" transform="translate(-0.22)"/><path class="cls-2" d="M258.64,124.64l-72.09-29.7,2-4.89c.6.24,1.22.48,1.84.68,11.44,3.79,22.42,1.71,24.51-4.63.22-.64.82-2.8,1.2-4.54l3.73.62c-.56,3.52-.74,5.63-.74,5.63-2.09,6.35,5.71,14.3,17.13,18.11s22.42,1.72,24.54-4.63c.34-1,.44-.56.3-1.64a84.39,84.39,0,0,1-1.42-11.92h0c5.79-.4,10.22-2.65,11.48-6.45,1.39-4.17.12-8.5-4.53-12.17l0,0L284,75.38c-.48.55-1,1.11-1.55,1.69-3.46,1-5.95,2.94-6.85,5.63-2.12,6.35,5.43,14.59,16.87,18.39s22.71.08,24.83-6.27c0,0,1-2.5,2.14-6.61L370,106.5a13.31,13.31,0,0,1,8.79,12.69l-1.2,84.15A22,22,0,0,1,362.19,224L282.8,250.73l45.63-44.66A21.08,21.08,0,1,0,310,195.37l-53.4,51.79L265.27,136A10.83,10.83,0,0,0,258.64,124.64Z" transform="translate(-0.22)"/><path class="cls-1" d="M261.55,66a25.76,25.76,0,0,1,5.08,3.16c4.65,3.67,5.92,8,4.53,12.17-1.26,3.8-5.69,6-11.48,6.45h0a80,80,0,0,1,1.71-21.82Z" transform="translate(-0.22)"/><path class="cls-1" d="M259.66,87.73a84.39,84.39,0,0,0,1.42,11.92c.14,1.08,0,.62-.3,1.64-2.12,6.35-13.1,8.42-24.54,4.63S217,94.16,219.11,87.81c0,0,.18-2.11.74-5.63a128.48,128.48,0,0,1,6-23.19A81.9,81.9,0,0,1,239,35.31,47.39,47.39,0,0,1,258.4,20.84a9.36,9.36,0,0,1,1-.36c7.13-2.58,15.51-3.48,25.33-1.94,15.39,2.42,25,8.78,30.68,16.89-12.07-1.72-21.6-.92-29.1,1.54-15.15,5-22,16.87-24.9,28.94A80,80,0,0,0,259.66,87.73Z" transform="translate(-0.22)"/><path class="cls-1" d="M229.87,21.54c-18.72,5.68-21.12,23.23-19.36,38a89.75,89.75,0,0,0,5.61,22c-.38,1.74-1,3.9-1.2,4.54-2.09,6.34-13.07,8.42-24.51,4.63-.62-.2-1.24-.44-1.84-.68-10.08-4.15-15.89-13.32-14.25-19.33,0-1.71,0-4.27.16-7.4,1-20.78,8.48-66.82,54.26-59.61,15.31,2.41,24.85,8.72,30.62,16.77a9.36,9.36,0,0,0-1,.36C246.18,18.9,236.88,19.38,229.87,21.54Z" transform="translate(-0.22)"/><path class="cls-1" d="M229.87,21.54c7-2.16,16.31-2.64,28.53-.7A47.39,47.39,0,0,0,239,35.31C237,28.64,231.65,23.21,229.87,21.54Z" transform="translate(-0.22)"/><path class="cls-3" d="M211.79,59.42A96.17,96.17,0,0,1,225.88,59a128.48,128.48,0,0,0-6,23.19l-3.73-.62a89.75,89.75,0,0,1-5.61-22Z" transform="translate(-0.22)"/><path class="cls-1" d="M190.83,126.86A36.52,36.52,0,0,1,177,196.71c-.52,0-1.06,0-1.58,0a36.5,36.5,0,1,1,15.38-69.87Zm-3.54,27.91A14,14,0,1,0,173,168.6,14,14,0,0,0,187.29,154.77Z" transform="translate(-0.22)"/><path class="cls-4" d="M173.44,140.53a14,14,0,1,1-14.24,13.84A14,14,0,0,1,173.44,140.53Z" transform="translate(-0.22)"/><path class="cls-1" d="M177,196.71a36.52,36.52,0,0,0,13.8-69.85,36.5,36.5,0,0,1-4.18,72.82c-2.17,0-6-1.45-9.62-2.93Z" transform="translate(-0.22)"/><path class="cls-5" d="M177,196.75c3.59,1.48,7.45,2.91,9.62,2.93a36.5,36.5,0,0,0,4.18-72.82,36.51,36.51,0,1,0-15.38,69.87c.52,0,1.06,0,1.58,0Zm9.52-101.81,72.09,29.7A10.83,10.83,0,0,1,265.27,136l-8.65,111.16-9.68,9.4a40.91,40.91,0,0,1-10.24-2.88L126.25,206.37A28.11,28.11,0,0,1,110,187.47a27.81,27.81,0,0,1-.84-8.67l2.55-44.41,1.44-24.94L114.41,88a21.74,21.74,0,0,1,19.46-20.38l40.61-4.27c-.18,3.13-.18,5.69-.16,7.4-1.64,6,4.17,15.18,14.25,19.33Z" transform="translate(-0.22)"/><path class="cls-6" d="M176.31,310.18a21,21,0,0,0-20.92,9.26v-.1a42.64,42.64,0,0,1,.12-12.45,42.1,42.1,0,1,1,23.94,44.83l-.18-.64a21.05,21.05,0,0,0-3-40.9Z" transform="translate(-0.22)"/><path class="cls-1" d="M113.17,109.45l-1.44,24.94L72.35,105A42.35,42.35,0,0,0,83.13,86.79Z" transform="translate(-0.22)"/><path class="cls-7" d="M72.35,105A42.16,42.16,0,0,1,.5,74.78v-.1A21.06,21.06,0,1,0,20.06,40.2l.1-.66a42.61,42.61,0,0,1,10.56-4.75A42.12,42.12,0,0,1,72.35,105Z" transform="translate(-0.22)"/><path class="cls-8" d="M267,69.1a26.68,26.68,0,0,1,4.6.84c1.5.38,3,.84,4.42,1.36s2.87,1.12,4.27,1.78a27.86,27.86,0,0,1,4.07,2.3,26.68,26.68,0,0,1-4.6-.84,44.3,44.3,0,0,1-4.42-1.36c-1.45-.52-2.87-1.12-4.27-1.78A27.86,27.86,0,0,1,267,69.1Z" transform="translate(-0.22)"/><path class="cls-9" d="M210.84,59.55a17.84,17.84,0,0,1,3.78-1.14,25.68,25.68,0,0,1,7.76-.29,16.24,16.24,0,0,1,3.85.87,25.35,25.35,0,0,1-3.85.69c-1.28.14-2.55.24-3.82.28s-2.54,0-3.82,0A23,23,0,0,1,210.84,59.55Z" transform="translate(-0.22)"/><path class="cls-10" d="M132.62,72.55c20.68,7.19,41.14,14.92,61.51,22.84,10.21,3.91,20.34,8,30.51,12L255,119.77l3.78,1.57c.67.29,1.17.47,2,.88a14.55,14.55,0,0,1,2.23,1.35,13.81,13.81,0,0,1,5.34,8.66,13.3,13.3,0,0,1,.2,2.59c0,.45,0,.83-.07,1.25l-.09,1.05-.34,4.09c-.22,2.72-.43,5.44-.69,8.16-1,10.87-1.91,21.75-3,32.62-2.13,21.74-4.47,43.47-7.41,65.16.45-21.89,1.5-43.74,2.75-65.59.58-10.92,1.37-21.83,2-32.75.17-2.73.39-5.45.58-8.18l.3-4.09.07-1a7.63,7.63,0,0,0,0-.8,7.28,7.28,0,0,0-.13-1.48,7.94,7.94,0,0,0-3.1-4.94,12.84,12.84,0,0,0-3-1.48l-3.79-1.55-30.25-12.65c-10-4.31-20.12-8.53-30.12-13C172.32,91,152.36,82,132.62,72.55Z" transform="translate(-0.22)"/><path class="cls-11" d="M373.57,112.45c-8.08,2.11-16.22,3.82-24.39,5.4-4.07.83-8.17,1.51-12.26,2.27l-12.3,2L312.3,124c-4.13.53-8.24,1.14-12.37,1.6-8.25,1-16.53,1.86-24.87,2.33,8.08-2.11,16.22-3.83,24.39-5.41,4.07-.83,8.17-1.5,12.26-2.26l12.3-2,12.33-1.82c4.12-.54,8.23-1.14,12.36-1.6C357,113.79,365.23,112.93,373.57,112.45Z" transform="translate(-0.22)"/><path class="cls-12" d="M139.82,159.71a35.53,35.53,0,0,0,2.68,14,35.17,35.17,0,0,0,7.94,11.71,34.91,34.91,0,0,0,25.38,9.85,35.07,35.07,0,1,0-32.93-49.42A35.69,35.69,0,0,0,139.82,159.71Zm0,0a38,38,0,1,1,76,1.07,38.55,38.55,0,0,1-3.32,15,38,38,0,0,1-72.67-16.1Z" transform="translate(-0.22)"/><path class="cls-13" d="M177.37,196.75a69.47,69.47,0,0,0,7.22,2.29,14.79,14.79,0,0,0,1.83.29,13,13,0,0,0,1.86-.06,27.41,27.41,0,0,0,3.73-.38,36.59,36.59,0,0,0,24.6-15.27,35.24,35.24,0,0,0,5.7-13.53,36.44,36.44,0,0,0-6.09-28.16,37.55,37.55,0,0,0-25.05-15.06,35.82,35.82,0,0,1,14.61,4.19A36.76,36.76,0,0,1,217.47,141,37.15,37.15,0,0,1,224,155a37.56,37.56,0,0,1,.25,15.48,36.51,36.51,0,0,1-17.55,24.62,36.11,36.11,0,0,1-14.59,4.75,28.88,28.88,0,0,1-3.83.17,14,14,0,0,1-1.94-.05,14.56,14.56,0,0,1-1.9-.42A53.57,53.57,0,0,1,177.37,196.75Z" transform="translate(-0.22)"/><path class="cls-14" d="M159.85,154.38a11.36,11.36,0,0,0,8.91,11.4,11.29,11.29,0,0,0,4.67,0,11.08,11.08,0,0,0,3.92-1.73,10.92,10.92,0,0,0,2.75-2.76,11.71,11.71,0,0,0,.2-13.21,10.44,10.44,0,0,0-2.68-2.84,10.7,10.7,0,0,0-3.87-1.85,11.13,11.13,0,0,0-4.68-.14,11.34,11.34,0,0,0-9.22,11.16Zm-.6,0a14.45,14.45,0,0,1,24.78-10,14.49,14.49,0,1,1-20.78,20.2A14.45,14.45,0,0,1,159.25,154.37Z" transform="translate(-0.22)"/><path class="cls-15" d="M155.74,319.44v-.1h0a38.25,38.25,0,0,1-.67-14c.19-1.18.27-2.39.57-3.54l.9-3.49c.38-1.14.82-2.27,1.23-3.41l.32-.85.39-.82.8-1.63A45,45,0,0,1,168,279.84a43.79,43.79,0,0,1,12.32-8.19,42.91,42.91,0,0,1,14.47-3.71,47.29,47.29,0,0,1,15,1.33A44.84,44.84,0,0,1,232.55,342a43.64,43.64,0,0,1-25.15,14.4l-3.6.5-3.62.14a13.52,13.52,0,0,1-1.8,0l-1.8-.12a17.8,17.8,0,0,1-1.78-.15l-1.77-.31a38.09,38.09,0,0,1-13.25-4.7,44.39,44.39,0,0,0,6.69,1.79,35.42,35.42,0,0,0,6.79.71,40.16,40.16,0,0,0,13.26-1.64A41,41,0,0,0,218.35,347c.87-.66,1.79-1.25,2.61-1.95l2.45-2.13,2.24-2.34c.74-.78,1.35-1.68,2-2.5a41.3,41.3,0,0,0,6-11.24,40.66,40.66,0,0,0,2.06-12.49l0-1.58a10.39,10.39,0,0,0-.06-1.58l-.33-3.14-.64-3.09a11.36,11.36,0,0,0-.41-1.52l-.47-1.5a39.69,39.69,0,0,0-5.75-11.14,37.73,37.73,0,0,0-9-8.73,38.46,38.46,0,0,0-11.31-5.47A42.5,42.5,0,0,0,195.19,275l-3.19.22-3.15.52a9.23,9.23,0,0,0-1.56.34l-1.55.41c-.51.15-1.05.24-1.55.44l-1.5.56a40.19,40.19,0,0,0-20,16.06l-.9,1.4-.45.71-.38.74c-.49,1-1,2-1.5,3l-1.22,3.14a12.52,12.52,0,0,0-.5,1.61l-.47,1.62a35.19,35.19,0,0,0-1.28,6.71,45.54,45.54,0,0,0-.21,6.92h0Z" transform="translate(-0.22)"/><path class="cls-16" d="M178.42,351.43A22.31,22.31,0,0,0,190.9,337.5a18.42,18.42,0,0,0,.75-4.45l.06-1.12-.05-1.12a18,18,0,0,0-.23-2.2c-.13-.73-.3-1.45-.48-2.16a18.87,18.87,0,0,0-.74-2.07l-.43-1-.52-1a16.17,16.17,0,0,0-1.17-1.86c-.43-.59-.88-1.18-1.36-1.73a21.76,21.76,0,0,0-5.15-4.09,20.45,20.45,0,0,0-8.56-2.43,20.73,20.73,0,0,0-9.12,1.55,24.09,24.09,0,0,0-8.16,5.6,19.32,19.32,0,0,1,6.73-8.18,21.15,21.15,0,0,1,10.46-3.68,20.66,20.66,0,0,1,5.71.32,19.73,19.73,0,0,1,2.8.69c.91.3,1.81.67,2.7,1.06a22.56,22.56,0,0,1,13,21.12l-.06,1.44c-.06.48-.14,1-.21,1.43a20.1,20.1,0,0,1-1.58,5.49,21.09,21.09,0,0,1-6.94,8.64A19.16,19.16,0,0,1,178.42,351.43Z" transform="translate(-0.22)"/><path class="cls-17" d="M113.51,109.46a41.66,41.66,0,0,1-8.92-3.8,69.19,69.19,0,0,1-15-11.33,40.91,40.91,0,0,1-6.09-7.55,41.93,41.93,0,0,1,8.93,3.79,68.15,68.15,0,0,1,7.89,5.16,67.32,67.32,0,0,1,7.12,6.19A40.89,40.89,0,0,1,113.51,109.46Z" transform="translate(-0.22)"/><path class="cls-18" d="M112.08,134.38a69.33,69.33,0,0,1-11.38-5.55,119.06,119.06,0,0,1-10.37-6.92,117,117,0,0,1-9.6-8,69.32,69.32,0,0,1-8.57-9.32,69.44,69.44,0,0,1,11.39,5.55,115.23,115.23,0,0,1,10.36,6.92,116.94,116.94,0,0,1,9.59,8A70.59,70.59,0,0,1,112.08,134.38Z" transform="translate(-0.22)"/><path class="cls-19" d="M.85,74.77a46.09,46.09,0,0,0,1.66,6.74,35,35,0,0,0,2.62,6.23l.79,1.47a11.91,11.91,0,0,0,.81,1.43l1.79,2.73c.66.86,1.35,1.69,2,2.53l.5.62.56.57c.38.38.76.75,1.11,1.14s.67.81,1,1.21.67.81,1,1.21a16.67,16.67,0,0,0,2.17,2.27L18,104a10.51,10.51,0,0,0,1.2,1c.85.62,1.68,1.27,2.54,1.87A38.48,38.48,0,0,0,33.21,112a37.15,37.15,0,0,0,12.46,1.2,40.69,40.69,0,0,0,12.19-2.93,38.43,38.43,0,0,0,18.4-16.51A39.42,39.42,0,0,0,80.47,82l.25-1.55a9,9,0,0,0,.19-1.56l.2-3.14L81,72.56A10.32,10.32,0,0,0,80.84,71l-.21-1.56a37.5,37.5,0,0,0-11.44-21.9c-.8-.68-1.52-1.46-2.37-2.08L64.3,43.58l-2.69-1.64c-.9-.53-1.88-.93-2.81-1.41a27.41,27.41,0,0,0-2.92-1.18c-.49-.18-1-.37-1.48-.54l-1.52-.4a19.14,19.14,0,0,0-3.07-.68c-.52-.06-1-.1-1.56-.18s-1-.22-1.55-.29a38.3,38.3,0,0,0-12.91-.92,34.78,34.78,0,0,0-6.68,1,45,45,0,0,0-6.6,2.16A37.74,37.74,0,0,1,32.8,32.17l1.72-.68c.58-.22,1.19-.33,1.78-.5l1.81-.48a12.7,12.7,0,0,1,1.83-.4l3.74-.59,3.81-.21a15.11,15.11,0,0,1,3.77.53,33.63,33.63,0,0,1,3.7.86l1.84.49,1.79.65a31.63,31.63,0,0,1,3.52,1.43c1.14.57,2.31,1.06,3.4,1.71l3.25,2,3.06,2.27c1,.76,1.9,1.67,2.85,2.51A45.44,45.44,0,0,1,88.52,68.22l.26,1.89A15.12,15.12,0,0,1,89,72l.13,3.81-.24,3.8a13.36,13.36,0,0,1-.23,1.89l-.31,1.88a47.19,47.19,0,0,1-5.09,14.27,46.36,46.36,0,0,1-22.26,20,48.85,48.85,0,0,1-14.72,3.55,45.14,45.14,0,0,1-15.09-1.46,46.52,46.52,0,0,1-13.82-6.21c-1-.72-2.05-1.5-3.06-2.26A12.1,12.1,0,0,1,12.82,110l-1.41-1.28c-.46-.44-1-.83-1.38-1.31s-.86-.94-1.3-1.39-.91-.9-1.34-1.37a10.59,10.59,0,0,1-1.1-1.55,46.77,46.77,0,0,1-3.36-6.81L1.78,92.74c-.38-1.18-.55-2.42-.81-3.62A37.48,37.48,0,0,1,.85,74.77Z" transform="translate(-0.22)"/><path class="cls-20" d="M19.2,40a19.29,19.29,0,0,1,10.32,2.34,21.26,21.26,0,0,1,8,7.68,20.5,20.5,0,0,1,2.28,5.23c.13.47.27.93.38,1.39l.25,1.43A22.76,22.76,0,0,1,30.27,80.71c-.83.49-1.68,1-2.54,1.4a20.46,20.46,0,0,1-2.69,1,20.83,20.83,0,0,1-5.62,1.06,21.07,21.07,0,0,1-10.85-2.3A19.18,19.18,0,0,1,.83,74.68h0v.1l0-.1a0,0,0,0,1,0,0h0a24.12,24.12,0,0,0,8.79,4.5,20.85,20.85,0,0,0,9.24.36A20.39,20.39,0,0,0,27.07,76a21.14,21.14,0,0,0,4.58-4.72c.41-.61.77-1.25,1.13-1.88a17.08,17.08,0,0,0,.91-2l.39-1,.3-1.06c.24-.7.3-1.43.47-2.15S35,61.7,35,61a16.5,16.5,0,0,0,0-2.22l-.1-1.11-.2-1.1a18.42,18.42,0,0,0-1.32-4.32A22.3,22.3,0,0,0,19.2,40Z" transform="translate(-0.22)"/><path class="cls-21" d="M330.05,164a19.79,19.79,0,0,0-15,5.5,20,20,0,0,0-4.46,6.62A19.71,19.71,0,1,0,330.05,164Zm0,0a22.66,22.66,0,0,1,21.17,22.47,22.89,22.89,0,0,1-1.73,8.77,22.45,22.45,0,0,1-5.18,7.54,22.72,22.72,0,0,1-7.89,4.91,22.62,22.62,0,0,1-29.63-15.21A22.62,22.62,0,0,1,330.05,164Z" transform="translate(-0.22)"/><path class="cls-22" d="M174.78,70.34a9,9,0,0,0,.11,1.88,9.35,9.35,0,0,0,.4,1.74,14.61,14.61,0,0,0,1.54,3.12,23.08,23.08,0,0,0,4.54,5.11A29.58,29.58,0,0,0,187,85.94a30,30,0,0,0,3.07,1.38l1.59.57,1.66.49a35.39,35.39,0,0,0,13.49,1.35A16.68,16.68,0,0,0,210,89a10.29,10.29,0,0,0,1.44-.63l.69-.38.62-.46a3.15,3.15,0,0,0,.57-.52,3.61,3.61,0,0,0,.52-.59l.47-.66.41-.84c.54-1.11,1.1-2.24,1.75-3.38,0,1.28-.07,2.57-.17,3.87l-.07,1L216,87.47a5.18,5.18,0,0,1-.42,1,5.41,5.41,0,0,1-.55,1,11.19,11.19,0,0,1-3.19,3.06,16.76,16.76,0,0,1-3.88,1.78,28.87,28.87,0,0,1-16.2-.17A27,27,0,0,1,178,85.45a20,20,0,0,1-3.87-7.22,13.11,13.11,0,0,1-.48-4.08A8.19,8.19,0,0,1,174.78,70.34Z" transform="translate(-0.22)"/><path class="cls-23" d="M283.1,77a17.54,17.54,0,0,0-3.26,2.29,7.83,7.83,0,0,0-2,2.86,4.37,4.37,0,0,0-.32,1.54,5.79,5.79,0,0,0,.06,1.5,9.38,9.38,0,0,0,1.21,2.91,20.24,20.24,0,0,0,4.86,5A35.33,35.33,0,0,0,290,96.74l1.7.75c.58.24,1.17.44,1.75.67a32.48,32.48,0,0,0,10.77,2,23.22,23.22,0,0,0,7.3-1,15.3,15.3,0,0,0,3.39-1.57,10.06,10.06,0,0,0,2.77-2.75A8.25,8.25,0,0,1,316,98.76a13.6,13.6,0,0,1-3.23,3,20.58,20.58,0,0,1-8.23,3.08,27.29,27.29,0,0,1-8.79,0,32.36,32.36,0,0,1-4.29-1c-.69-.24-1.37-.47-2.05-.73l-2-.85a31.62,31.62,0,0,1-7.39-4.74,20.83,20.83,0,0,1-5.5-7.29,12.19,12.19,0,0,1-.92-4.83,9.49,9.49,0,0,1,.5-2.49,7.24,7.24,0,0,1,1.16-2.2A8.82,8.82,0,0,1,279,77.85a12.22,12.22,0,0,1,2.06-.64A13.56,13.56,0,0,1,283.1,77Z" transform="translate(-0.22)"/><path class="cls-24" d="M260,87.74a30.82,30.82,0,0,0,6.8-4.31,6.84,6.84,0,0,0,1.69-2.37,5.14,5.14,0,0,0,.2-.59c.06-.19.1-.49.16-.73a8.26,8.26,0,0,0,.16-1.47,10.06,10.06,0,0,0-1.94-5.88,67.49,67.49,0,0,0-5.2-6.44,14.69,14.69,0,0,1,4.5.89,14.18,14.18,0,0,1,4.12,2.31,12.41,12.41,0,0,1,3.27,3.93c.2.41.38.82.55,1.25s.29.87.41,1.32.17.92.22,1.38.07.94.06,1.4a12.86,12.86,0,0,1-.42,2.72,13.3,13.3,0,0,1-.44,1.3,7.57,7.57,0,0,1-.68,1.33,9.6,9.6,0,0,1-4.15,3.62A12.46,12.46,0,0,1,260,87.74Z" transform="translate(-0.22)"/><path class="cls-25" d="M219.46,87.82a8.33,8.33,0,0,0,.15,1.75,5.42,5.42,0,0,0,.17.8l.28.77a10.94,10.94,0,0,0,1.69,2.68A22,22,0,0,0,226.57,98a46.49,46.49,0,0,0,11.75,5.36,41.46,41.46,0,0,0,6.28,1.47,34.81,34.81,0,0,0,6.35.46,17.84,17.84,0,0,0,6.09-1.15,8.56,8.56,0,0,0,2.58-1.66,6.82,6.82,0,0,0,1.05-1.26,5.69,5.69,0,0,1,.55-.74c.13-.13.14-.51.2-.79a1.93,1.93,0,0,1,.24,1,6.13,6.13,0,0,0-.13.87,7.9,7.9,0,0,1-.52,1.87,8.65,8.65,0,0,1-2.35,3.22,16.46,16.46,0,0,1-7.06,3.35,26.51,26.51,0,0,1-7.62.53c-1.27-.07-2.51-.28-3.76-.47s-2.46-.55-3.66-.93a32.27,32.27,0,0,1-13-7.45,18.71,18.71,0,0,1-4.39-6.32,11.31,11.31,0,0,1-.57-1.88,6.43,6.43,0,0,1-.14-1,4.57,4.57,0,0,1-.05-1A6.75,6.75,0,0,1,219.46,87.82Z" transform="translate(-0.22)"/><path class="cls-26" d="M219.46,87.82a105.29,105.29,0,0,1,2.6-26A96.25,96.25,0,0,1,233.56,38a64.66,64.66,0,0,1,8.8-10.22,47.75,47.75,0,0,1,11.18-7.81l1.54-.75a11.57,11.57,0,0,1,1.57-.7l3.22-1.21c1.08-.36,2.2-.62,3.3-.93.55-.14,1.1-.31,1.66-.43l1.69-.28A56.47,56.47,0,0,1,280.06,15a73,73,0,0,1,13.22,2.35,50.61,50.61,0,0,1,12.56,5.2,38.65,38.65,0,0,1,10.54,8.92,41,41,0,0,1,6.84,12c3.17,8.65,3.68,17.83,2.95,26.64a91.07,91.07,0,0,1-3.38,12.79,82.11,82.11,0,0,1-5.14,12,113.38,113.38,0,0,0,2-12.69,96.9,96.9,0,0,0,.55-12.59c.7-8.22.16-16.58-2.6-24.07a33.63,33.63,0,0,0-14.81-17.81,44.41,44.41,0,0,0-11.12-4.59,52.13,52.13,0,0,0-6-1.35,24.2,24.2,0,0,0-3-.44l-3-.35a49.59,49.59,0,0,0-12.06.59l-1.48.24c-.49.11-1,.26-1.45.38-1,.27-1.94.49-2.88.8L259,24a9.25,9.25,0,0,0-1.37.61l-1.34.66c-7.17,3.54-13.07,9.39-17.75,16.08a79.34,79.34,0,0,0-6.11,10.74c-.9,1.86-1.7,3.78-2.49,5.71-.36,1-.74,2-1.07,2.93a30.33,30.33,0,0,1-1,3A152.33,152.33,0,0,0,219.46,87.82Z" transform="translate(-0.22)"/><path class="cls-27" d="M261.42,99.64A69.89,69.89,0,0,1,259,86.85a74.52,74.52,0,0,1-.18-13.11,58,58,0,0,1,2.44-13,43.37,43.37,0,0,1,6-12.06,36.28,36.28,0,0,1,9.92-9.25l3-1.66,3.11-1.32.78-.33.81-.25,1.61-.49,1.61-.46c.53-.16,1.09-.22,1.64-.34a60.46,60.46,0,0,1,26.05.9c-8.63-.39-17.26-.06-25.32,2.13a39,39,0,0,0-11.23,5A33.54,33.54,0,0,0,270.47,51a40.93,40.93,0,0,0-5.62,10.92,64.71,64.71,0,0,0-2.94,12.19,99,99,0,0,0-1,12.69A118.16,118.16,0,0,0,261.42,99.64Z" transform="translate(-0.22)"/><path class="cls-28" d="M286.61,37a18.34,18.34,0,0,1,5.27,3.27,29.84,29.84,0,0,1,2.76,5.47,24.39,24.39,0,0,1,1.1,12.18,30.62,30.62,0,0,1-4.31,11.22A45.77,45.77,0,0,1,288.08,74a40,40,0,0,1-5.28,3.06c.65-2,1.49-3.72,2.14-5.52A43.2,43.2,0,0,0,288,67.07a26.66,26.66,0,0,0,3.79-9.81,20.43,20.43,0,0,0-.91-10.17,21.5,21.5,0,0,0-2.38-4.62A46.07,46.07,0,0,0,286.61,37Z" transform="translate(-0.22)"/><path class="cls-29" d="M174.67,70.73c-.34-1.42-.59-2.86-.85-4.3s-.41-2.88-.58-4.34c-.34-2.91-.52-5.84-.57-8.79a108.76,108.76,0,0,1,3.67-17.19,77.32,77.32,0,0,1,3.07-8.34c.65-1.34,1.21-2.72,2-4l1.07-2,1.18-1.92A43.78,43.78,0,0,1,196.19,6.68,40,40,0,0,1,213.36.41a60.07,60.07,0,0,1,17.93.65,57.09,57.09,0,0,1,17,5.7,34.87,34.87,0,0,1,11.39,13.71A39.61,39.61,0,0,0,245.47,12,51.32,51.32,0,0,0,230.22,7a54.08,54.08,0,0,0-16.08-.6,33.71,33.71,0,0,0-14.63,5.32,37.64,37.64,0,0,0-10.83,11.38l-1.06,1.71-1,1.78c-.68,1.17-1.19,2.43-1.78,3.65a72.63,72.63,0,0,0-2.83,7.68,92.87,92.87,0,0,0-3.39,16.2c-.77,2.7-1.47,5.44-2.15,8.22-.34,1.38-.65,2.78-1,4.19S175,69.3,174.67,70.73Z" transform="translate(-0.22)"/><path class="cls-30" d="M216.47,81.56a66.39,66.39,0,0,1-4.68-11.49,74.12,74.12,0,0,1-2.67-12.22,52.09,52.09,0,0,1-.19-12.67,34.16,34.16,0,0,1,3.78-12.4,25.91,25.91,0,0,1,9.07-9.5A33.54,33.54,0,0,1,233.94,19a61.51,61.51,0,0,1,24.8,1.8c-8.21-.47-16.45-.48-24.2,1.25a33.4,33.4,0,0,0-10.73,4.39,22.52,22.52,0,0,0-7.62,8.25,31.77,31.77,0,0,0-3.53,11,58.1,58.1,0,0,0-.45,11.89A113.38,113.38,0,0,0,216.47,81.56Z" transform="translate(-0.22)"/><path class="cls-31" d="M230.2,21.51A14.7,14.7,0,0,1,233.66,24a20.06,20.06,0,0,1,2.78,3.25,17.53,17.53,0,0,1,2,3.81,12.13,12.13,0,0,1,.87,4.21c-.81-1.21-1.52-2.37-2.26-3.52s-1.5-2.25-2.26-3.37L232.49,25C231.71,23.91,230.93,22.76,230.2,21.51Z" transform="translate(-0.22)"/><path class="cls-32" d="M247.34,256.55a38.67,38.67,0,0,1-10.15-2l-9.68-3.46c-6.44-2.31-12.83-4.73-19.25-7.09Q189,236.81,170,229.23t-38-15.39l-4.74-2-2.36-1c-.84-.38-1.82-.78-2.68-1.26a32.92,32.92,0,0,1-17.75-29.38c0-.51,0-1,0-1.51l.07-1.31.16-2.56.31-5.11.62-10.23,1.38-20.45c1-13.63,2-27.25,3.16-40.87L111.12,88a25.33,25.33,0,0,1,3.6-11.16,24.63,24.63,0,0,1,8.2-8.2,24.33,24.33,0,0,1,10.86-3.48c13.69-.76,27.32-1.52,41-1.84-13.46,2.53-27,4.59-40.48,6.71a19.16,19.16,0,0,0-13.91,10,18.63,18.63,0,0,0-1.5,4,17.08,17.08,0,0,0-.41,2.11c-.09.73-.11,1.39-.16,2.18l-.28,10.24q-.61,20.49-1.55,41l-1,20.47L115,170.34l-.28,5.11-.14,2.56-.07,1.25c0,.35,0,.7,0,1.05a23.33,23.33,0,0,0,5.74,15.5,23,23,0,0,0,6.55,5.29c.63.37,1.24.61,1.95,1l2.34,1,4.69,2.08q18.72,8.31,37.35,16.88t37.1,17.49c6.14,3,12.3,6,18.42,9.05l9.16,4.6A41,41,0,0,0,247.34,256.55Z" transform="translate(-0.22)"/><path class="cls-33" d="M319.79,88.21c10.78,2.73,21.41,5.88,32,9q8,2.39,15.89,4.87c1.35.43,2.6.79,4,1.27A17,17,0,0,1,383,117c.05.45.12.89.13,1.34s.05.94.05,1.24l.07,4.15.1,8.31c.07,5.53.07,11.07.1,16.6l0,16.61-.16,16.6-.3,16.6-.1,4.15c0,.63,0,1.53-.11,2.37a23.59,23.59,0,0,1-.32,2.51,26.37,26.37,0,0,1-3.61,9.38,26.81,26.81,0,0,1-6.79,7.33,25.92,25.92,0,0,1-4.29,2.57,23.33,23.33,0,0,1-2.31.95c-.77.29-1.57.52-2.19.71-5.28,1.65-10.57,3.25-15.88,4.84-21.21,6.32-42.53,12.35-64.18,17.44,20.33-9,41-17.11,61.73-24.9q7.78-2.91,15.6-5.74c.69-.26,1.21-.44,1.73-.66a13.55,13.55,0,0,0,1.49-.71,18.59,18.59,0,0,0,2.75-1.8,17.49,17.49,0,0,0,4.25-4.94,17.74,17.74,0,0,0,2.15-6.09,14.4,14.4,0,0,0,.17-1.61c0-.54,0-1,0-1.78l0-4.15.17-16.61.3-16.6.43-16.6c.18-5.53.34-11.06.57-16.6l.33-8.29.19-4.15c0-.39,0-.59,0-.84a6,6,0,0,0,0-.73,7.94,7.94,0,0,0-.21-1.44,9.73,9.73,0,0,0-3-5,9.59,9.59,0,0,0-2.55-1.64l-3.79-1.57q-7.68-3.17-15.33-6.44C340,97.4,329.82,93,319.79,88.21Z" transform="translate(-0.22)"/><path class="cls-34" d="M329.78,205.09c-6.94,8.52-14.29,16.62-21.78,24.59s-15.16,15.73-23,23.37-15.75,15.14-23.87,22.46S244.78,290,236.11,296.74c6.93-8.53,14.29-16.63,21.77-24.6s15.16-15.73,23-23.37,15.76-15.12,23.87-22.45S321.11,211.84,329.78,205.09Z" transform="translate(-0.22)"/><path class="cls-35" d="M310.37,195.36c-6.46,8-13.32,15.54-20.31,23s-14.19,14.65-21.5,21.75-14.77,14-22.39,20.82-15.4,13.4-23.58,19.6c6.45-8,13.31-15.55,20.3-23s14.19-14.65,21.5-21.74,14.78-14,22.4-20.82S302.19,201.57,310.37,195.36Z" transform="translate(-0.22)"/></g></g></svg>