<svg xmlns="http://www.w3.org/2000/svg" xmlns:xlink="http://www.w3.org/1999/xlink" viewBox="0 0 389.41 386.99"><defs><style>.cls-1{fill:url(#New_Gradient_Swatch_copy);}.cls-2{fill:#fff;}.cls-3{fill:url(#New_Gradient_Swatch_copy-2);}.cls-4{fill:url(#New_Gradient_Swatch_copy-3);}.cls-5{fill:url(#New_Gradient_Swatch_copy-4);}.cls-6{fill:url(#New_Gradient_Swatch_copy-5);}.cls-7{fill:url(#New_Gradient_Swatch_copy-6);}.cls-8{fill:url(#New_Gradient_Swatch_copy-7);}.cls-9{fill:url(#New_Gradient_Swatch_copy-8);}.cls-10{fill:url(#New_Gradient_Swatch_2);}.cls-11{fill:url(#New_Gradient_Swatch_2-2);}.cls-12{fill:url(#New_Gradient_Swatch_2-3);}.cls-13{fill:url(#New_Gradient_Swatch_2-4);}.cls-14{fill:url(#New_Gradient_Swatch_2-5);}.cls-15{fill:url(#New_Gradient_Swatch_2-6);}.cls-16{fill:url(#New_Gradient_Swatch_2-7);}.cls-17{fill:url(#New_Gradient_Swatch_2-8);}.cls-18{fill:url(#New_Gradient_Swatch_2-9);}.cls-19{fill:url(#New_Gradient_Swatch_2-10);}.cls-20{fill:url(#New_Gradient_Swatch_2-11);}.cls-21{fill:url(#New_Gradient_Swatch_2-12);}.cls-22{fill:url(#New_Gradient_Swatch_2-13);}.cls-23{fill:url(#New_Gradient_Swatch_2-14);}.cls-24{fill:url(#New_Gradient_Swatch_2-15);}.cls-25{fill:url(#New_Gradient_Swatch_2-16);}.cls-26{fill:url(#New_Gradient_Swatch_2-17);}.cls-27{fill:url(#New_Gradient_Swatch_2-18);}.cls-28{fill:url(#New_Gradient_Swatch_2-19);}.cls-29{fill:url(#New_Gradient_Swatch_2-20);}.cls-30{fill:url(#New_Gradient_Swatch_2-21);}.cls-31{fill:url(#New_Gradient_Swatch_2-22);}.cls-32{fill:url(#New_Gradient_Swatch_2-23);}.cls-33{fill:url(#New_Gradient_Swatch_2-24);}.cls-34{fill:url(#New_Gradient_Swatch_2-25);}.cls-35{fill:url(#New_Gradient_Swatch_2-26);}.cls-36{fill:url(#New_Gradient_Swatch_2-27);}.cls-37{fill:url(#New_Gradient_Swatch_2-28);}.cls-38{fill:url(#New_Gradient_Swatch_2-29);}.cls-39{fill:url(#New_Gradient_Swatch_2-30);}.cls-40{fill:url(#New_Gradient_Swatch_7);}.cls-41{fill:url(#New_Gradient_Swatch_7-2);}.cls-42{fill:url(#New_Gradient_Swatch_7-3);}.cls-43{fill:url(#New_Gradient_Swatch_7-4);}.cls-44{fill:url(#New_Gradient_Swatch_7-5);}.cls-45{fill:url(#New_Gradient_Swatch_7-6);}.cls-46,.cls-47,.cls-48,.cls-49,.cls-50{stroke-linecap:round;stroke-linejoin:round;}.cls-46{stroke-width:1.15px;fill:url(#New_Gradient_Swatch_7-7);stroke:url(#New_Gradient_Swatch_7-8);}.cls-47,.cls-48,.cls-49,.cls-50{stroke-width:1.01px;}.cls-47{fill:url(#New_Gradient_Swatch_7-9);stroke:url(#New_Gradient_Swatch_7-10);}.cls-48{fill:url(#New_Gradient_Swatch_7-11);stroke:url(#New_Gradient_Swatch_7-12);}.cls-49{fill:url(#New_Gradient_Swatch_7-13);stroke:url(#New_Gradient_Swatch_7-14);}.cls-50{fill:url(#New_Gradient_Swatch_7-15);stroke:url(#New_Gradient_Swatch_7-16);}</style><linearGradient id="New_Gradient_Swatch_copy" x1="314.19" y1="257.78" x2="386.38" y2="257.78" gradientUnits="userSpaceOnUse"><stop offset="0" stop-color="#c7edf2"/><stop offset="1" stop-color="#c4deef"/></linearGradient><linearGradient id="New_Gradient_Swatch_copy-2" x1="28.81" y1="123.15" x2="344.65" y2="123.15" xlink:href="#New_Gradient_Swatch_copy"/><linearGradient id="New_Gradient_Swatch_copy-3" x1="203.77" y1="115.6" x2="228.37" y2="115.6" xlink:href="#New_Gradient_Swatch_copy"/><linearGradient id="New_Gradient_Swatch_copy-4" x1="211.46" y1="137.07" x2="228.37" y2="137.07" xlink:href="#New_Gradient_Swatch_copy"/><linearGradient id="New_Gradient_Swatch_copy-5" x1="112.04" y1="347.79" x2="184.23" y2="347.79" xlink:href="#New_Gradient_Swatch_copy"/><linearGradient id="New_Gradient_Swatch_copy-6" x1="162.02" y1="140.75" x2="184.7" y2="140.75" xlink:href="#New_Gradient_Swatch_copy"/><linearGradient id="New_Gradient_Swatch_copy-7" x1="157.2" y1="128.11" x2="183.31" y2="128.11" xlink:href="#New_Gradient_Swatch_copy"/><linearGradient id="New_Gradient_Swatch_copy-8" x1="83.05" y1="215.15" x2="314.05" y2="215.15" xlink:href="#New_Gradient_Swatch_copy"/><linearGradient id="New_Gradient_Swatch_2" x1="183.56" y1="136.66" x2="161.21" y2="136.66" gradientUnits="userSpaceOnUse"><stop offset="0" stop-color="#00bdcd"/><stop offset="1" stop-color="#0083c5"/></linearGradient><linearGradient id="New_Gradient_Swatch_2-2" x1="229.42" y1="125.61" x2="210.51" y2="125.61" xlink:href="#New_Gradient_Swatch_2"/><linearGradient id="New_Gradient_Swatch_2-3" x1="296.78" y1="212.31" x2="177.64" y2="212.31" xlink:href="#New_Gradient_Swatch_2"/><linearGradient id="New_Gradient_Swatch_2-4" x1="173.89" y1="178.33" x2="86.07" y2="178.33" xlink:href="#New_Gradient_Swatch_2"/><linearGradient id="New_Gradient_Swatch_2-5" x1="284.99" y1="211.24" x2="217.31" y2="211.24" xlink:href="#New_Gradient_Swatch_2"/><linearGradient id="New_Gradient_Swatch_2-6" x1="251.11" y1="213.99" x2="209.43" y2="213.99" xlink:href="#New_Gradient_Swatch_2"/><linearGradient id="New_Gradient_Swatch_2-7" x1="250.68" y1="200.18" x2="261.54" y2="226.53" xlink:href="#New_Gradient_Swatch_2"/><linearGradient id="New_Gradient_Swatch_2-8" x1="151.74" y1="235.74" x2="120.02" y2="209.42" xlink:href="#New_Gradient_Swatch_2"/><linearGradient id="New_Gradient_Swatch_2-9" x1="318.32" y1="213.12" x2="184.81" y2="213.12" xlink:href="#New_Gradient_Swatch_2"/><linearGradient id="New_Gradient_Swatch_2-10" x1="193.36" y1="287.13" x2="125.29" y2="287.13" xlink:href="#New_Gradient_Swatch_2"/><linearGradient id="New_Gradient_Swatch_2-11" x1="138.13" y1="210.92" x2="78.77" y2="210.92" xlink:href="#New_Gradient_Swatch_2"/><linearGradient id="New_Gradient_Swatch_2-12" x1="123.7" y1="295.59" x2="166.85" y2="252.45" xlink:href="#New_Gradient_Swatch_2"/><linearGradient id="New_Gradient_Swatch_2-13" x1="92.56" y1="297.52" x2="152.24" y2="237.84" xlink:href="#New_Gradient_Swatch_2"/><linearGradient id="New_Gradient_Swatch_2-14" x1="334.9" y1="208.49" x2="305.59" y2="204.5" xlink:href="#New_Gradient_Swatch_2"/><linearGradient id="New_Gradient_Swatch_2-15" x1="360.35" y1="186.14" x2="298.53" y2="177.73" xlink:href="#New_Gradient_Swatch_2"/><linearGradient id="New_Gradient_Swatch_2-16" x1="352.01" y1="297.26" x2="348.75" y2="218.29" xlink:href="#New_Gradient_Swatch_2"/><linearGradient id="New_Gradient_Swatch_2-17" x1="340.68" y1="296.88" x2="339.16" y2="260.04" xlink:href="#New_Gradient_Swatch_2"/><linearGradient id="New_Gradient_Swatch_2-18" x1="167.75" y1="382.1" x2="128.35" y2="313.59" xlink:href="#New_Gradient_Swatch_2"/><linearGradient id="New_Gradient_Swatch_2-19" x1="177.13" y1="375.73" x2="158.74" y2="343.77" xlink:href="#New_Gradient_Swatch_2"/><linearGradient id="New_Gradient_Swatch_2-20" x1="261.31" y1="149.45" x2="220.84" y2="149.45" xlink:href="#New_Gradient_Swatch_2"/><linearGradient id="New_Gradient_Swatch_2-21" x1="175.29" y1="155.41" x2="134.83" y2="155.41" xlink:href="#New_Gradient_Swatch_2"/><linearGradient id="New_Gradient_Swatch_2-22" x1="188.53" y1="145.34" x2="173.61" y2="145.34" xlink:href="#New_Gradient_Swatch_2"/><linearGradient id="New_Gradient_Swatch_2-23" x1="223.29" y1="161.28" x2="182.58" y2="161.28" xlink:href="#New_Gradient_Swatch_2"/><linearGradient id="New_Gradient_Swatch_2-24" x1="223" y1="128.93" x2="129.88" y2="128.93" xlink:href="#New_Gradient_Swatch_2"/><linearGradient id="New_Gradient_Swatch_2-25" x1="187.85" y1="137.47" x2="137.24" y2="137.47" xlink:href="#New_Gradient_Swatch_2"/><linearGradient id="New_Gradient_Swatch_2-26" x1="168.37" y1="130.61" x2="155.63" y2="130.61" xlink:href="#New_Gradient_Swatch_2"/><linearGradient id="New_Gradient_Swatch_2-27" x1="261.08" y1="114.79" x2="184.1" y2="114.79" xlink:href="#New_Gradient_Swatch_2"/><linearGradient id="New_Gradient_Swatch_2-28" x1="229.94" y1="125.44" x2="185.69" y2="125.44" xlink:href="#New_Gradient_Swatch_2"/><linearGradient id="New_Gradient_Swatch_2-29" x1="212.3" y1="109.84" x2="202.99" y2="109.84" xlink:href="#New_Gradient_Swatch_2"/><linearGradient id="New_Gradient_Swatch_2-30" x1="25.37" y1="121.65" x2="348.09" y2="121.65" xlink:href="#New_Gradient_Swatch_2"/><linearGradient id="New_Gradient_Swatch_7" x1="192.86" y1="61.18" x2="214.08" y2="61.18" gradientUnits="userSpaceOnUse"><stop offset="0" stop-color="#ff5050"/><stop offset="1" stop-color="#ff4980"/></linearGradient><linearGradient id="New_Gradient_Swatch_7-2" x1="243.48" y1="61.37" x2="256.38" y2="61.37" xlink:href="#New_Gradient_Swatch_7"/><linearGradient id="New_Gradient_Swatch_7-3" x1="256.53" y1="90.85" x2="295.42" y2="90.85" xlink:href="#New_Gradient_Swatch_7"/><linearGradient id="New_Gradient_Swatch_7-4" x1="93.83" y1="42.85" x2="130.15" y2="42.85" xlink:href="#New_Gradient_Swatch_7"/><linearGradient id="New_Gradient_Swatch_7-5" x1="-1.34" y1="147.9" x2="59.43" y2="147.9" xlink:href="#New_Gradient_Swatch_7"/><linearGradient id="New_Gradient_Swatch_7-6" x1="312.85" y1="104.03" x2="366.75" y2="104.03" xlink:href="#New_Gradient_Swatch_7"/><linearGradient id="New_Gradient_Swatch_7-7" x1="79.69" y1="148.7" x2="85.42" y2="148.7" xlink:href="#New_Gradient_Swatch_7"/><linearGradient id="New_Gradient_Swatch_7-8" x1="79.11" y1="148.7" x2="85.99" y2="148.7" xlink:href="#New_Gradient_Swatch_7"/><linearGradient id="New_Gradient_Swatch_7-9" x1="87.51" y1="107.54" x2="93.75" y2="107.54" xlink:href="#New_Gradient_Swatch_7"/><linearGradient id="New_Gradient_Swatch_7-10" x1="87.01" y1="107.54" x2="94.25" y2="107.54" xlink:href="#New_Gradient_Swatch_7"/><linearGradient id="New_Gradient_Swatch_7-11" x1="122.86" y1="96.32" x2="131.17" y2="96.32" xlink:href="#New_Gradient_Swatch_7"/><linearGradient id="New_Gradient_Swatch_7-12" x1="122.35" y1="96.32" x2="131.68" y2="96.32" xlink:href="#New_Gradient_Swatch_7"/><linearGradient id="New_Gradient_Swatch_7-13" x1="329.72" y1="79.24" x2="335.96" y2="79.24" xlink:href="#New_Gradient_Swatch_7"/><linearGradient id="New_Gradient_Swatch_7-14" x1="329.21" y1="79.24" x2="336.46" y2="79.24" xlink:href="#New_Gradient_Swatch_7"/><linearGradient id="New_Gradient_Swatch_7-15" x1="317.24" y1="28.48" x2="322.44" y2="28.48" xlink:href="#New_Gradient_Swatch_7"/><linearGradient id="New_Gradient_Swatch_7-16" x1="316.74" y1="28.48" x2="322.95" y2="28.48" xlink:href="#New_Gradient_Swatch_7"/></defs><title>Asset 3</title><g id="Layer_2" data-name="Layer 2"><g id="Layer_1-2" data-name="Layer 1"><path class="cls-1" d="M329.23,228.47a36.09,36.09,0,1,1,22.18,65.39h-.08a18,18,0,1,0-30.2-15.53l-.56-.06a36.12,36.12,0,0,1,8.66-49.81Z" transform="translate(-0.38)"/><path class="cls-2" d="M328.8,158.24c13.1,13.74,24.08,34,24.34,63.55a36.07,36.07,0,0,0-23.91,6.68c-1.18-25.45-9-40.25-18-48.84l-1.67-28.9a18.48,18.48,0,0,0-3.79-10.25A97.55,97.55,0,0,1,328.8,158.24Z" transform="translate(-0.38)"/><path class="cls-3" d="M33.48,142.91a14.14,14.14,0,0,0-2.56-5.6c-1.05-1-4.16-14.64,2.08-18.54s0-15.62,11.44-21.48,19.73-10.73,31.17-9.76,25-1,29.1-6.82,15.6-3.92,20.81-2.93,4.15-4.89,10.39-5.86,26-5.85,27-17.57,1-31.24,28.07-41,74.84-17.57,86.28,1,5.19,27.32,3.11,30.25,2.08,10.74,12.49,14.64S313.66,56.3,315.74,68s4.9,22.91,11.44,26.35a37.39,37.39,0,0,1,6.19,4c23.52,19,4.36,55.12-4.57,59.84a97.55,97.55,0,0,0-23.07-17.76,18.68,18.68,0,0,0-10.38-6.79,18.92,18.92,0,0,0-2.5-.43l-34.78-3.65c-2.15-16.42-11-42.33-45.59-37.69-13,1.74-21.13,6.34-26,12.17a49.58,49.58,0,0,0-21.53-1.41c-13.1,1.76-21.24,6.38-26.11,12.27-9.24,11.14-6.82,26.72-4.21,35.78l-.74.21-43.3,15.67a11.35,11.35,0,0,0-7.51,10.86L84,243.23c-1.53-1.15-19.43-14.25-34.35-16.11-15.59-2-23.91-13.67-19.75-31.24s16.64-17.57,19.75-17.57c0,0,4.16-2,2.08-5.86S33,159.77,34,152A23.21,23.21,0,0,0,33.48,142.91Z" transform="translate(-0.38)"/><path class="cls-2" d="M282.42,210.79a31.27,31.27,0,0,1-30.83,31.71c-.45,0-.89,0-1.35,0a31.28,31.28,0,0,1-11.85-59.82h0a30.86,30.86,0,0,1,12.28-2.7A31.27,31.27,0,0,1,282.42,210.79Z" transform="translate(-0.38)"/><path class="cls-2" d="M242,245a31.27,31.27,0,0,1-3.62-62.38,31.28,31.28,0,0,0,11.85,59.82v.05C247.16,243.78,243.87,245,242,245Z" transform="translate(-0.38)"/><path class="cls-4" d="M228.37,126.34l-2.28-.07c-4-.43-10.61-1.23-14.63-1.08a51.25,51.25,0,0,0-7.69-10.35c1.69-4.84,6.22-8.77,7.72-10C224.48,108.21,228.23,117.3,228.37,126.34Z" transform="translate(-0.38)"/><path class="cls-5" d="M220,149a77.66,77.66,0,0,0-8.56-23.78c4-.15,10.64.65,14.63,1.08l2.28.07c.15,10-4.09,19.89-5.18,22.08Z" transform="translate(-0.38)"/><path class="cls-2" d="M211.46,125.19A77.66,77.66,0,0,1,220,149c.47,2.48.62,4,.62,4,1.79,4.61-4.84,10.37-14.56,13.13s-19,1.25-20.83-3.35c-.29-.74-.38-.41-.28-1.2a52.91,52.91,0,0,0,1.2-8.64,48.49,48.49,0,0,0-1.47-15.84,31.8,31.8,0,0,0-1.39-4.09c-3-7.25-8.88-13.85-19.74-16.9-6.38-1.79-14.49-2.36-24.76-1.12,4.87-5.89,13-10.51,26.11-12.27a49.58,49.58,0,0,1,21.53,1.41c.27.07.54.16.8.25a40.62,40.62,0,0,1,16.52,10.5A51.25,51.25,0,0,1,211.46,125.19Z" transform="translate(-0.38)"/><path class="cls-2" d="M211.49,104.86c-1.5,1.21-6,5.14-7.72,10a40.62,40.62,0,0,0-16.52-10.5C197.64,102.93,205.53,103.28,211.49,104.86Z" transform="translate(-0.38)"/><path class="cls-2" d="M228.37,126.34c-.14-9-3.89-18.13-16.88-21.48-6-1.58-13.85-1.93-24.24-.52-.26-.09-.53-.18-.8-.25,4.9-5.83,13-10.43,26-12.17,34.61-4.64,43.44,21.27,45.59,37.69a79.07,79.07,0,0,1,.66,10.95c1.3,4.11-3,10.23-10.64,13.44a25.12,25.12,0,0,1-3,1.06c-9.73,2.77-19.06,1.26-20.85-3.35-.18-.45-.7-2-1-3.29C224.28,146.23,228.52,136.33,228.37,126.34Z" transform="translate(-0.38)"/><path class="cls-2" d="M184.7,137.06a48.49,48.49,0,0,1,1.47,15.84c-4.93-.29-8.69-1.93-9.75-4.69-1.55-3.93.76-8,8.16-11.12Z" transform="translate(-0.38)"/><path class="cls-6" d="M143.37,312a36.12,36.12,0,0,1,40.83,37.25l-.44.33a18,18,0,1,0-17.24,29.27l-.07,0a36.1,36.1,0,0,1-44.77-55.66,35.75,35.75,0,0,1,18-10.55C140.94,312.41,142.16,312.19,143.37,312Z" transform="translate(-0.38)"/><path class="cls-7" d="M162.06,140.11l20.64-6.89.61-.25a31.8,31.8,0,0,1,1.39,4.09l-.12,0c-7.4,3.08-9.71,7.19-8.16,11.12l-4.14.32c-1-1.58-2.9-2.74-5.47-3.37h0a40.43,40.43,0,0,1-4.78-5Z" transform="translate(-0.38)"/><path class="cls-8" d="M183.31,133l-.61.25-20.64,6.89,0,0c-9.91-12.38-2-21.07,1.55-24.08C174.43,119.12,180.27,125.72,183.31,133Z" transform="translate(-0.38)"/><path class="cls-9" d="M251.59,242.5a31.28,31.28,0,0,0-.88-62.55,30.86,30.86,0,0,0-12.28,2.7h0A31.27,31.27,0,0,0,242,245c1.86,0,5.15-1.25,8.23-2.51v-.05C250.7,242.5,251.14,242.5,251.59,242.5Zm-105-5.31c.38-.29.74-.59,1.11-.91a18,18,0,0,0-23.82-27.1,17.42,17.42,0,0,0-2.67,2.92l-.32-.23c-4.13,5.61-18.89,27.78-18.54,57.06l-5.09-1.62a18.86,18.86,0,0,1-13.16-17.75l-.1-6.33-.92-65.76a11.35,11.35,0,0,1,7.51-10.86l43.3-15.67.74-.21a55.52,55.52,0,0,0,2.58,7.31c1.79,4.61,11.4,7.31,21.11,4.55s16.14-8.72,14.35-13.34a4.4,4.4,0,0,0-.36-.72l4.14-.32c1.06,2.76,4.82,4.4,9.75,4.69a52.91,52.91,0,0,1-1.2,8.64c-.1.79,0,.46.28,1.2,1.79,4.6,11.12,6.1,20.83,3.35s16.35-8.52,14.56-13.13c0,0-.15-1.51-.62-4l3.17-.55c.32,1.26.84,2.84,1,3.29,1.79,4.61,11.12,6.12,20.85,3.35a25.12,25.12,0,0,0,3-1.06l.89,2.16,45.23-18.65,1.14-3.82a18.68,18.68,0,0,1,10.38,6.79,18.48,18.48,0,0,1,3.79,10.25l1.67,28.9L314,228.56a23.81,23.81,0,0,1-.73,7.42,24.14,24.14,0,0,1-13.89,16.2l-94.63,40.53c-5.83,2.51-12.66,3.5-15.67,3.91l-59.52-19c-2.69-23.69,12-36.74,16.78-40.28Z" transform="translate(-0.38)"/><path class="cls-2" d="M166.8,145.16h0c2.57.63,4.51,1.79,5.47,3.37a4.4,4.4,0,0,1,.36.72c1.79,4.62-4.63,10.58-14.35,13.34s-19.32.06-21.11-4.55a55.52,55.52,0,0,1-2.58-7.31c-2.61-9.06-5-24.64,4.21-35.78,10.27-1.24,18.38-.67,24.76,1.12-3.58,3-11.46,11.7-1.55,24.08A40.43,40.43,0,0,0,166.8,145.16Z" transform="translate(-0.38)"/><path class="cls-2" d="M149.3,210.82a18,18,0,0,1-1.63,25.46c-.37.32-.73.62-1.11.91l-.21.15a18,18,0,0,1-25.17-25.24,17.42,17.42,0,0,1,2.67-2.92A18,18,0,0,1,149.3,210.82Z" transform="translate(-0.38)"/><path class="cls-2" d="M129.57,277.62c1.07,9.67,5.06,21.09,13.8,34.4-1.21.17-2.43.39-3.64.68a35.75,35.75,0,0,0-18,10.55c-14.23-19.23-19.18-37.89-19.36-54.32-.35-29.28,14.41-51.45,18.54-57.06l.32.23a18,18,0,0,0,25.17,25.24C141.61,240.88,126.88,253.93,129.57,277.62Z" transform="translate(-0.38)"/><path class="cls-10" d="M182.7,133.22a43.79,43.79,0,0,1-4.95,2.35c-1.67.71-3.38,1.31-5.1,1.9s-3.45,1.1-5.22,1.55a43.62,43.62,0,0,1-5.37,1.08,43.79,43.79,0,0,1,4.95-2.35c1.68-.7,3.39-1.31,5.1-1.9s3.46-1.09,5.22-1.54A45.59,45.59,0,0,1,182.7,133.22Z" transform="translate(-0.38)"/><path class="cls-11" d="M228.57,126.34c-.83.1-1.66.17-2.49.22h0a30.84,30.84,0,0,1-3.72,0c-1.23,0-2.45-.14-3.67-.26s-2.43-.28-3.64-.47-2.42-.4-3.66-.68a15.35,15.35,0,0,1,3.72-.59,29,29,0,0,1,3.73.06c1.23.09,2.46.24,3.68.45a32.87,32.87,0,0,1,3.63.84h0C226.93,126.07,227.75,126.2,228.57,126.34Z" transform="translate(-0.38)"/><path class="cls-12" d="M294.22,137.52c-16.91,8.12-34,15.77-51.19,23.25-8.56,3.79-17.2,7.41-25.8,11.1l-25.92,10.84L188.06,184a10.75,10.75,0,0,0-2.59,1.27,6.77,6.77,0,0,0-2.65,4.22,6.09,6.09,0,0,0-.11,1.28c0,.42.06.91.1,1.53l.26,3.5.49,7c.59,9.36,1.27,18.7,1.76,28.06,1.07,18.72,2,37.45,2.36,56.2-2.52-18.59-4.53-37.2-6.35-55.83-1-9.31-1.74-18.63-2.6-27.95l-.59-7-.29-3.5c0-.55-.13-1.22-.14-2a10.35,10.35,0,0,1,.18-2.22,11.84,11.84,0,0,1,4.57-7.43,12.74,12.74,0,0,1,1.91-1.15c.74-.35,1.18-.51,1.74-.75l3.25-1.35,26-10.58c8.71-3.44,17.39-7,26.13-10.31C259,150.3,276.5,143.67,294.22,137.52Z" transform="translate(-0.38)"/><path class="cls-13" d="M87.78,171.7c7.14.41,14.23,1.15,21.3,2,3.54.4,7.07.92,10.6,1.38l10.56,1.56,10.54,1.74c3.5.65,7,1.23,10.5,1.94,7,1.35,14,2.82,20.9,4.63-7.15-.4-14.24-1.14-21.31-2-3.54-.4-7.06-.92-10.6-1.38L129.71,180l-10.53-1.75c-3.51-.65-7-1.23-10.51-1.94C101.68,175,94.7,173.51,87.78,171.7Z" transform="translate(-0.38)"/><path class="cls-14" d="M282.42,210.78a32.57,32.57,0,0,1-54.61,24.45,32.66,32.66,0,0,1-.67-47.35,32.58,32.58,0,0,1,55.28,22.9Zm0,0a30,30,0,0,0-9.72-21.72,30,30,0,1,0,.62,43.72,30,30,0,0,0,9.1-22Z" transform="translate(-0.38)"/><path class="cls-15" d="M250.25,242.52a46.27,46.27,0,0,1-6.08,2.4,10.58,10.58,0,0,1-1.62.35,11.6,11.6,0,0,1-1.66,0,24.08,24.08,0,0,1-3.29-.14A31.34,31.34,0,0,1,210.07,220a32,32,0,0,1,.21-13.26,31.51,31.51,0,0,1,5.62-12,32,32,0,0,1,10-8.53,30.6,30.6,0,0,1,12.52-3.59,32,32,0,0,0-12.1,4.31,31,31,0,0,0-14.59,32.72,30.35,30.35,0,0,0,4.89,11.59,31.63,31.63,0,0,0,9.15,8.7,30.61,30.61,0,0,0,11.92,4.38,23,23,0,0,0,3.2.33,8.41,8.41,0,0,0,3.16-.2A57,57,0,0,0,250.25,242.52Z" transform="translate(-0.38)"/><path class="cls-16" d="M269.76,196.72a12.25,12.25,0,0,1,3.16,3.06,11.66,11.66,0,0,1,1.22,1.91,14.69,14.69,0,0,1,.93,2.11,18.82,18.82,0,0,1,.79,9.43,21.29,21.29,0,0,1-3.92,9.11,15.33,15.33,0,0,1-1.65,1.95,19.35,19.35,0,0,1-1.86,1.76,18,18,0,0,1-2.07,1.52,17.52,17.52,0,0,1-2.21,1.3,21.37,21.37,0,0,1-2.35,1,18.64,18.64,0,0,1-2.44.76,19.44,19.44,0,0,1-2.51.46,14.53,14.53,0,0,1-2.55.19,21.09,21.09,0,0,1-9.67-2.21,19,19,0,0,1-7.16-6.17c-.43-.65-.8-1.33-1.15-2a19.7,19.7,0,0,1-.84-2.11c-.2-.73-.36-1.45-.51-2.16a20.59,20.59,0,0,1-.1-2.2v-.22a.38.38,0,0,1,.4-.36.38.38,0,0,1,.31.19,19.39,19.39,0,0,0,11,8.79,18.82,18.82,0,0,0,23.06-11.72,18.81,18.81,0,0,0,1-7.06,19.43,19.43,0,0,0-1.62-7,.37.37,0,0,1,.2-.5.38.38,0,0,1,.36,0Z" transform="translate(-0.38)"/><path class="cls-17" d="M147.66,236.28a16.78,16.78,0,1,0-13,4.1A16.93,16.93,0,0,0,147.66,236.28Zm0,0A19.36,19.36,0,0,1,117,229.13a19.37,19.37,0,1,1,37.14-5.22A19.31,19.31,0,0,1,147.66,236.28Z" transform="translate(-0.38)"/><path class="cls-18" d="M189.09,296.63c5.9-1.1,11.75-2.53,17-5.34l8.06-4.05,8.09-4c5.39-2.66,10.81-5.23,16.23-7.81l8.14-3.86,8.17-3.78c10.88-5.06,21.79-10.06,32.76-14.92l8.23-3.65,2-.9c.57-.27,1.13-.53,1.67-.84a20.15,20.15,0,0,0,10.1-14.8,19.9,19.9,0,0,0,.16-3.7l-.24-4.44-.49-9-.89-18c-.52-12-1.05-24-1.37-36l-.26-9,0-1.12,0-1a14.66,14.66,0,0,0-.21-1.87,16.45,16.45,0,0,0-1.07-3.63,16.06,16.06,0,0,0-4.58-6.12,16.24,16.24,0,0,0-7.05-3.35l-17.68-2.82L267,131.21c-3-.54-5.93-1-8.88-1.6,3,.06,6,.19,9,.28l9,.39c3,.12,6,.31,9,.46l4.5.25,2.25.12,1.12.06c.39,0,.83.06,1.24.11a20.87,20.87,0,0,1,9.36,3.58,21.44,21.44,0,0,1,6.74,7.65,20.08,20.08,0,0,1,1.8,4.87,20.44,20.44,0,0,1,.44,2.58l.11,1.2.1,1.12.77,9c1.07,12,1.92,23.93,2.78,35.89l1.18,18,.54,9,.27,4.54a28.21,28.21,0,0,1-14.82,26.17c-.77.42-1.57.78-2.37,1.14l-2.09.87-8.32,3.44q-16.62,6.87-33.4,13.42L248.92,277l-8.41,3.22c-5.61,2.15-11.21,4.3-16.85,6.36l-8.46,3.13-8.48,3A61.15,61.15,0,0,1,189.09,296.63Z" transform="translate(-0.38)"/><path class="cls-19" d="M129.56,277.63a78.32,78.32,0,0,1,15.9,1.55,134.28,134.28,0,0,1,15.17,3.87,130,130,0,0,1,14.6,5.62,77.2,77.2,0,0,1,13.86,8,77.61,77.61,0,0,1-15.9-1.55A129.51,129.51,0,0,1,158,291.2a132,132,0,0,1-14.6-5.63A78.39,78.39,0,0,1,129.56,277.63Z" transform="translate(-0.38)"/><path class="cls-20" d="M133.86,150.93q-9.15,4.33-18.41,8.34c-6.17,2.69-12.35,5.35-18.56,7.91l-4.66,1.92-.59.24-.44.21c-.29.12-.55.3-.82.44a9.38,9.38,0,0,0-1.44,1.14,8.32,8.32,0,0,0-1.94,3,7.23,7.23,0,0,0-.43,1.72,6.4,6.4,0,0,0-.08.88v1c.16,3.35.3,6.71.43,10.06l.35,10.07q.67,20.14.86,40.29l.08,10.07v1.26c0,.34,0,.66,0,1a15.86,15.86,0,0,0,.26,1.94,15.31,15.31,0,0,0,1.28,3.72A14.84,14.84,0,0,0,95,262a15.63,15.63,0,0,0,1.74,1c.29.15.6.28.91.41.15.07.32.12.47.18l.24.1.27.18a11.27,11.27,0,0,1,3.67,5.05,11.07,11.07,0,0,1-3.12,1.51,10.65,10.65,0,0,1-2.79.47h-.34l-.36-.11c-.23-.08-.48-.15-.71-.24-.48-.17-.95-.35-1.41-.55a20.79,20.79,0,0,1-2.7-1.38,23,23,0,0,1-8.31-8.74,22.6,22.6,0,0,1-2.13-5.73,23.85,23.85,0,0,1-.47-3c0-.51-.07-1-.09-1.53l0-1.26-.2-10.07q-.37-20.15-.28-40.3l.08-10.07c0-3.36.07-6.72.14-10.08v-.32l0-.41c0-.27,0-.54,0-.81a14.38,14.38,0,0,1,.25-1.62,13.8,13.8,0,0,1,1-3.09,14.43,14.43,0,0,1,3.88-5.09,15.19,15.19,0,0,1,2.66-1.77,14.66,14.66,0,0,1,1.46-.64l.72-.26.6-.19,4.81-1.5c6.42-2,12.87-3.93,19.33-5.81S127.32,152.61,133.86,150.93Z" transform="translate(-0.38)"/><path class="cls-21" d="M147.77,236.35a49.94,49.94,0,0,0-12.47,16.76,45.16,45.16,0,0,0-3.92,19.95,54.61,54.61,0,0,0,1.2,10.23l.52,2.54.69,2.52.34,1.26.42,1.24.79,2.5a160.76,160.76,0,0,0,8.59,19.48,74.7,74.7,0,0,1-11.65-18.27,56,56,0,0,1-5.11-21.41A43.87,43.87,0,0,1,128.3,262a39.9,39.9,0,0,1,4.07-10.4A38.25,38.25,0,0,1,147.77,236.35Z" transform="translate(-0.38)"/><path class="cls-22" d="M121.91,210.49a107.51,107.51,0,0,0-7.3,13.51,118.31,118.31,0,0,0-5.5,14.2,104.32,104.32,0,0,0-3.46,14.71,92.16,92.16,0,0,0-1.22,15,85.5,85.5,0,0,0,1.26,15,94.37,94.37,0,0,0,3.68,14.63,130.91,130.91,0,0,0,13.53,27.36,90.68,90.68,0,0,1-16.62-26.21c-.53-1.2-.92-2.45-1.39-3.68s-.89-2.46-1.22-3.74l-1.07-3.79-.84-3.85a83.55,83.55,0,0,1-1.54-15.7,90.63,90.63,0,0,1,1.5-15.69,89.16,89.16,0,0,1,4.29-15.1A94,94,0,0,1,112.78,223,73.89,73.89,0,0,1,121.91,210.49Z" transform="translate(-0.38)"/><path class="cls-23" d="M311.12,179.55a36.12,36.12,0,0,1,10.3,10.73,52.47,52.47,0,0,1,6.12,13.7,68.62,68.62,0,0,1,1.83,29.45c-1-4.85-1.68-9.64-2.6-14.36s-2-9.36-3.28-13.91a88.74,88.74,0,0,0-4.95-13.26A73.8,73.8,0,0,0,311.12,179.55Z" transform="translate(-0.38)"/><path class="cls-24" d="M305.73,140.49a80.78,80.78,0,0,1,21.33,13.67c1.54,1.48,3.17,2.88,4.6,4.47l2.16,2.37,1.08,1.19c.34.41.67.84,1,1.26.67.83,1.32,1.69,2,2.54.32.43.66.85,1,1.28l.88,1.35,1.77,2.69c.29.45.6.89.87,1.35l.79,1.41a86.77,86.77,0,0,1,5.41,11.66c.66,2,1.38,4.05,2,6.1s1,4.16,1.48,6.24a90.06,90.06,0,0,1,1.13,25.31,169.69,169.69,0,0,0-4.34-24.56c-.62-2-1.23-3.93-1.8-5.9s-1.46-3.83-2.18-5.75a88.18,88.18,0,0,0-5.35-11,86.48,86.48,0,0,0-6.72-10.25c-.3-.41-.59-.84-.9-1.24l-1-1.19-1.95-2.37c-.63-.81-1.38-1.52-2.06-2.29l-2.08-2.28A136.76,136.76,0,0,0,305.73,140.49Z" transform="translate(-0.38)"/><path class="cls-25" d="M351.41,293.86a38.11,38.11,0,0,0,5.72-1.66,29.88,29.88,0,0,0,5.24-2.46l1.22-.72a11.51,11.51,0,0,0,1.21-.74l2.28-1.63c.71-.59,1.39-1.22,2.08-1.81l.52-.45.47-.51c.31-.33.61-.68.93-1s.67-.6,1-.9.67-.6,1-.9a14.3,14.3,0,0,0,1.87-1.94l.86-1a7.6,7.6,0,0,0,.82-1.07c.5-.75,1-1.48,1.52-2.23a33.34,33.34,0,0,0,4-10,31.87,31.87,0,0,0,.59-10.71,34.89,34.89,0,0,0-2.94-10.33A32.86,32.86,0,0,0,365,228.64a33.86,33.86,0,0,0-10.25-3.19c-.89-.08-1.78-.27-2.68-.27l-2.69-.06-2.69.21c-.9.06-1.77.29-2.66.43a32.07,32.07,0,0,0-18.34,10.57c-.56.7-1.19,1.34-1.7,2.09l-1.52,2.23-1.3,2.36c-.43.79-.73,1.64-1.11,2.46a22.57,22.57,0,0,0-.91,2.54l-.41,1.28-.29,1.32a15.82,15.82,0,0,0-.47,2.65c0,.45-.05.9-.1,1.34s-.15.89-.2,1.33a33,33,0,0,0-.33,11.1,30.58,30.58,0,0,0,1.14,5.68,38.33,38.33,0,0,0,2.08,5.57A32.34,32.34,0,0,1,313.82,268l-.64-1.45c-.21-.49-.33-1-.5-1.51-.29-1-.69-2-.88-3.08l-.63-3.18-.32-3.25a13.13,13.13,0,0,1,.31-3.25,31.7,31.7,0,0,1,.62-3.2l.35-1.59c.16-.53.33-1,.5-1.56a26.12,26.12,0,0,1,1.1-3.07c.44-1,.82-2,1.34-3l1.57-2.85,1.84-2.69c.61-.9,1.37-1.69,2-2.54A39,39,0,0,1,342.71,219c1.08-.17,2.14-.43,3.22-.51l3.26-.25,3.26.07c1.09,0,2.16.22,3.24.33a40.28,40.28,0,0,1,12.4,3.85A39.74,39.74,0,0,1,386,240.88a41.79,41.79,0,0,1,3.56,12.48,38.72,38.72,0,0,1-.71,13A40,40,0,0,1,384,278.38c-.59.92-1.22,1.8-1.83,2.7a11.31,11.31,0,0,1-1,1.29l-1.05,1.25a31.41,31.41,0,0,1-2.21,2.4c-.38.39-.74.8-1.13,1.19a10.56,10.56,0,0,1-1.29,1,35.44,35.44,0,0,1-11.79,5.05A32.36,32.36,0,0,1,351.41,293.86Z" transform="translate(-0.38)"/><path class="cls-26" d="M321,279.39a16.56,16.56,0,0,1,1.64-8.92,18.09,18.09,0,0,1,6.29-7.12,17.41,17.41,0,0,1,4.4-2.14l1.18-.38,1.21-.26a20,20,0,0,1,2.46-.34,19.74,19.74,0,0,1,9.71,1.86,20,20,0,0,1,7.56,6.38,19.49,19.49,0,0,1,2.28,4.39,18.44,18.44,0,0,1-.48,14.14,16.51,16.51,0,0,1-5.92,6.88v0h.08l-.08,0h0a19.05,19.05,0,0,0,3.52-15.61,17.64,17.64,0,0,0-3.29-6.88,16.79,16.79,0,0,0-2.68-2.65,16.19,16.19,0,0,0-3.18-2,16.9,16.9,0,0,0-7.3-1.64,17.48,17.48,0,0,0-7.43,1.74A19.13,19.13,0,0,0,321,279.39Z" transform="translate(-0.38)"/><path class="cls-27" d="M166.44,378.9A32,32,0,0,1,155.73,385a35.07,35.07,0,0,1-12.66,2,9.78,9.78,0,0,1-1.63-.15l-1.59-.41a31.81,31.81,0,0,1-3.15-.84l-1.55-.5a11.65,11.65,0,0,1-1.53-.56c-1-.44-2-.85-3-1.31a39.89,39.89,0,0,1-10.52-7.61A38.71,38.71,0,0,1,112.59,365a41.85,41.85,0,0,1-3.66-12.46,39.76,39.76,0,0,1,5.33-25.06,40.44,40.44,0,0,1,8.42-9.88c.85-.67,1.65-1.42,2.57-2l2.72-1.8,2.88-1.52c1-.52,2-.86,3-1.29a39.06,39.06,0,0,1,25.58-1c1,.35,2.09.62,3.09,1l3,1.3,2.86,1.57c.94.53,1.81,1.19,2.72,1.79a26,26,0,0,1,2.56,2c.42.35.84.69,1.25,1.05l1.15,1.15c.77.77,1.54,1.54,2.23,2.38a13.5,13.5,0,0,1,2,2.58l1.47,2.92,1.16,3c.4,1,.6,2.06.9,3.07.13.52.3,1,.39,1.54l.23,1.57a32.25,32.25,0,0,1-.23,12.28,37.34,37.34,0,0,0-1.22-5.82,30.35,30.35,0,0,0-2.06-5.41,32.82,32.82,0,0,0-6.21-9.2c-.27-.36-.6-.67-.88-1s-.52-.72-.8-1.08a16.25,16.25,0,0,0-1.81-2l-.95-1-1-.86a21.22,21.22,0,0,0-2.12-1.66c-.75-.49-1.46-1.05-2.25-1.49l-2.36-1.3L160,317.39c-.82-.37-1.7-.57-2.55-.87a32.16,32.16,0,0,0-21.15.86c-.82.36-1.69.63-2.48,1.06l-2.38,1.26-2.25,1.49c-.76.47-1.4,1.11-2.12,1.66a33.72,33.72,0,0,0-7,8.17,32.94,32.94,0,0,0-4.4,20.71,35,35,0,0,0,3,10.31,32.08,32.08,0,0,0,6.22,8.74,33.2,33.2,0,0,0,8.7,6.3c.81.38,1.65.71,2.47,1.08a9.5,9.5,0,0,0,1.26.46l1.29.41a13.84,13.84,0,0,0,2.61.65c.44.08.89.13,1.33.22s.89.12,1.32.23.88.23,1.32.34l.67.18.67.1c.91.14,1.82.31,2.74.43l2.8.15a9.5,9.5,0,0,0,1.41,0l1.42,0a28.81,28.81,0,0,0,5.74-.72A38.64,38.64,0,0,0,166.44,378.9Z" transform="translate(-0.38)"/><path class="cls-28" d="M184.42,350.43a19.12,19.12,0,0,0-15.12-5.31,17.57,17.57,0,0,0-7.21,2.49,16.94,16.94,0,0,0-5.3,5.29,15.76,15.76,0,0,0-1.62,3.39,16.88,16.88,0,0,0-.85,3.67,17.72,17.72,0,0,0,.88,7.58,19.12,19.12,0,0,0,11.32,11.31h0s0,0,0,0h-.1l.07,0v0a16.54,16.54,0,0,1-8.68-2.66,18.47,18.47,0,0,1-8-11.7,18.94,18.94,0,0,1-.41-4.93,19.52,19.52,0,0,1,10.2-16.19,19.13,19.13,0,0,1,2.26-1l1.16-.42,1.2-.31a17.35,17.35,0,0,1,4.86-.54,18,18,0,0,1,9.12,2.66A16.51,16.51,0,0,1,184.42,350.43Z" transform="translate(-0.38)"/><path class="cls-29" d="M258.63,140.27a5.47,5.47,0,0,1,.85,3.08,9.53,9.53,0,0,1-.68,3.24,15.43,15.43,0,0,1-3.74,5.38,23.94,23.94,0,0,1-11.44,5.88,27.07,27.07,0,0,1-12.78,0,11.62,11.62,0,0,1-1.58-.51l-.78-.3-.76-.38a11.63,11.63,0,0,1-1.46-.89c-.23-.16-.45-.37-.68-.56a3.57,3.57,0,0,1-.62-.61c-.19-.24-.39-.45-.56-.7l-.45-.77a4.86,4.86,0,0,1-.49-1.64c-.12-1-.23-2.07-.27-3.1.55.9,1,1.78,1.5,2.65a4.53,4.53,0,0,0,.77,1.07l.47.41c.17.12.37.22.54.33a12.18,12.18,0,0,0,5.05,1.37,37.76,37.76,0,0,0,11.06-1,35.26,35.26,0,0,0,5.29-1.61,25.46,25.46,0,0,0,4.85-2.54,17.49,17.49,0,0,0,4.07-3.65A7.2,7.2,0,0,0,258.63,140.27Z" transform="translate(-0.38)"/><path class="cls-30" d="M166.55,145.08a10.86,10.86,0,0,1,3.36.53,7.42,7.42,0,0,1,3.13,2,5.8,5.8,0,0,1,1.38,3.9,7.85,7.85,0,0,1-1.16,3.87,16.7,16.7,0,0,1-5.07,5.26,28.82,28.82,0,0,1-6.23,3.23,29.63,29.63,0,0,1-6.76,1.69,25.64,25.64,0,0,1-7-.09,19.6,19.6,0,0,1-6.64-2.19,14.63,14.63,0,0,1-1.47-1l-.69-.55c-.22-.2-.42-.42-.62-.63a6.08,6.08,0,0,1-1.6-3,9.15,9.15,0,0,0,5.27,3.09,24,24,0,0,0,6,.64,33.58,33.58,0,0,0,6-.63c.49-.12,1-.22,1.47-.32l1.45-.41c1-.29,2-.6,2.89-1a33.52,33.52,0,0,0,5.45-2.55,16.23,16.23,0,0,0,4.42-3.56c1.18-1.39,1.65-2.84,1-4.42a6.08,6.08,0,0,0-1.85-2.15A17,17,0,0,0,166.55,145.08Z" transform="translate(-0.38)"/><path class="cls-31" d="M186.17,152.9a11.21,11.21,0,0,1-7.29.16,8,8,0,0,1-3.58-2.34,6.6,6.6,0,0,1-.7-1,7.24,7.24,0,0,1-.49-1.09,5.68,5.68,0,0,1-.31-1.09,6.15,6.15,0,0,1-.17-1.14,7.66,7.66,0,0,1,1.11-4.42,9.57,9.57,0,0,1,2.87-2.9,12.38,12.38,0,0,1,7-2c-1.67,1.77-3.32,3.23-4.52,4.77a8.85,8.85,0,0,0-1.38,2.23,4.28,4.28,0,0,0-.35,2,2.26,2.26,0,0,0,0,.51,3.64,3.64,0,0,0,.12.53,3.52,3.52,0,0,0,.14.45c.07.13.11.27.2.41a6.18,6.18,0,0,0,1.66,1.73A42.12,42.12,0,0,0,186.17,152.9Z" transform="translate(-0.38)"/><path class="cls-32" d="M220.64,153a4.6,4.6,0,0,1,.76,2.94,8.54,8.54,0,0,1-1,3,15.84,15.84,0,0,1-4.1,4.62,25.84,25.84,0,0,1-5.18,3.12,31.6,31.6,0,0,1-5.65,2,27.63,27.63,0,0,1-12,.47,15.12,15.12,0,0,1-5.75-2.33,7.59,7.59,0,0,1-2.18-2.33,7.92,7.92,0,0,1-.35-.72L185,163c-.07-.26-.06-.45-.14-.69s.07-.56.14-.78c0,.23,0,.52.18.6s.32.43.47.59l.43.5c.15.16.34.28.5.42a2.37,2.37,0,0,0,.52.35c.19.11.35.23.54.32a10,10,0,0,0,1.19.45,18,18,0,0,0,5.09.69,41.73,41.73,0,0,0,10.45-1.35,46.81,46.81,0,0,0,10-3.63,19,19,0,0,0,4.27-2.91,7.76,7.76,0,0,0,1.57-2A5,5,0,0,0,220.64,153Z" transform="translate(-0.38)"/><path class="cls-33" d="M220.64,153a92.69,92.69,0,0,0-7.26-18.34,56.3,56.3,0,0,0-9.72-16.39,38.93,38.93,0,0,0-15.11-10.89,38.17,38.17,0,0,0-9.08-2.36,49.15,49.15,0,0,0-9.48-.41,55.43,55.43,0,0,0-18.55,4.1,26.73,26.73,0,0,0-13.53,11.86c-2.88,5.36-3.66,11.77-3.17,18.07A68.22,68.22,0,0,0,137.18,158,57.29,57.29,0,0,1,130.05,139a44,44,0,0,1,.36-10.49,32.82,32.82,0,0,1,3.35-10.16,29.47,29.47,0,0,1,6.75-8.39,34.33,34.33,0,0,1,9.05-5.56c.81-.34,1.61-.69,2.43-1l2.49-.8,1.24-.4,1.26-.31,2.52-.6c1.69-.35,3.39-.59,5.09-.89s3.42-.37,5.15-.47a54,54,0,0,1,10.39.44A43.13,43.13,0,0,1,190.28,103a43.64,43.64,0,0,1,16.93,12.17,63,63,0,0,1,10.58,17.71A68.89,68.89,0,0,1,220.64,153Z" transform="translate(-0.38)"/><path class="cls-34" d="M185,161.54a65,65,0,0,0-.53-19.91c-1.27-6.41-4-12.54-8.58-16.95a27.58,27.58,0,0,0-7.84-5.41,41.85,41.85,0,0,0-9.27-3c-6.45-1.36-13.19-1.46-19.95-1.34a58.67,58.67,0,0,1,20.36-1.07l2.57.39c.86.16,1.69.41,2.54.62l1.27.33c.41.12.82.29,1.24.43.82.31,1.66.56,2.47.92a30,30,0,0,1,8.81,5.88,29.11,29.11,0,0,1,6,8.72,35.89,35.89,0,0,1,2.76,10.08A47.73,47.73,0,0,1,185,161.54Z" transform="translate(-0.38)"/><path class="cls-35" d="M163.57,116.07a37.12,37.12,0,0,0-1.71,4,15,15,0,0,0-2,3.3,12.39,12.39,0,0,0-.78,7.43,17.86,17.86,0,0,0,3.29,7.09l.57.84.67.77c.43.52.9,1,1.33,1.55.59,1.32,1.3,2.6,1.9,4.06a31.12,31.12,0,0,1-4.2-1.93c-.5-.55-1-1.13-1.46-1.69l-.72-.85-.65-.93a21.1,21.1,0,0,1-3.81-8.3,15.62,15.62,0,0,1,1-9.3,21.38,21.38,0,0,1,2.41-4A13.6,13.6,0,0,1,163.57,116.07Z" transform="translate(-0.38)"/><path class="cls-36" d="M258.72,140.56a113.08,113.08,0,0,0-3.37-13,9.68,9.68,0,0,1-.28-1.61c-.08-.53-.19-1.07-.3-1.6-.25-1-.47-2.11-.77-3.15A49.38,49.38,0,0,0,252,115a43.4,43.4,0,0,0-2.8-5.73,35.42,35.42,0,0,0-3.69-5.12,29.35,29.35,0,0,0-9.9-7.43,34.49,34.49,0,0,0-12.22-2.93c-1.06,0-2.13-.09-3.2-.1l-3.22.11c-2.16.2-4.31.4-6.46.76a48.54,48.54,0,0,0-12.28,3.65,32.87,32.87,0,0,0-11.73,5.84A28.64,28.64,0,0,1,196.2,94a53.4,53.4,0,0,1,13.48-4c2.28-.38,4.61-.6,6.93-.81l3.51-.12c1.18,0,2.36.07,3.54.11a38.84,38.84,0,0,1,13.85,3.34A34,34,0,0,1,249,101.1a40.11,40.11,0,0,1,4.18,5.81,48.61,48.61,0,0,1,3.12,6.36A65.45,65.45,0,0,1,260,126.74,58.39,58.39,0,0,1,258.72,140.56Z" transform="translate(-0.38)"/><path class="cls-37" d="M223.19,148.42a70.75,70.75,0,0,0,2.57-9.23,56.35,56.35,0,0,0,1.27-9.34,32.59,32.59,0,0,0-.81-9.13,18.71,18.71,0,0,0-3.92-7.88,19.06,19.06,0,0,0-7.16-5.19,36,36,0,0,0-8.86-2.53c-1.53-.31-3.11-.37-4.67-.59s-3.16-.2-4.75-.25l-4.78,0c-1.6.06-3.21.09-4.82.1q2.36-.51,4.74-1c1.59-.27,3.2-.42,4.81-.64s3.24-.18,4.87-.27l2.46.07c.82,0,1.64,0,2.46.15l2.46.27c.82.12,1.62.33,2.44.49l1.22.27,1.2.38a20.48,20.48,0,0,1,2.39.83,21.48,21.48,0,0,1,8.37,5.87,21.23,21.23,0,0,1,4.42,9.25,31.18,31.18,0,0,1,.36,10,46.69,46.69,0,0,1-2.22,9.55A45.45,45.45,0,0,1,223.19,148.42Z" transform="translate(-0.38)"/><path class="cls-38" d="M211.52,104.84c-.63.92-1.29,1.75-2,2.57l-2,2.43c-.65.8-1.29,1.61-1.92,2.44l-1.89,2.57a8.62,8.62,0,0,1,.84-3.2,12.34,12.34,0,0,1,1.76-2.8,15,15,0,0,1,2.33-2.31A11.27,11.27,0,0,1,211.52,104.84Z" transform="translate(-0.38)"/><path class="cls-39" d="M84.09,243.31a109.18,109.18,0,0,0-24.18-12.78l-1.6-.56-1.63-.49a33.3,33.3,0,0,0-3.27-.83c-1.09-.3-2.21-.39-3.31-.58l-3.47-.51a28.67,28.67,0,0,1-6.76-2.23,25,25,0,0,1-3.13-1.79c-.49-.35-1-.75-1.43-1.12l-.7-.57L34,221.2a20.65,20.65,0,0,1-4.22-5.91L29,213.62c-.23-.57-.38-1.16-.57-1.74a26.66,26.66,0,0,1-.8-3.54,36.91,36.91,0,0,1,1-14.24l.46-1.74c.19-.57.41-1.13.62-1.7a24.91,24.91,0,0,1,1.48-3.35,22.08,22.08,0,0,1,4.52-5.93,19.25,19.25,0,0,1,6.5-3.9,22.37,22.37,0,0,1,7.4-1.21l-.87.19a4.16,4.16,0,0,0,.53-.36,3.48,3.48,0,0,0,.47-.47,1.7,1.7,0,0,0,.42-.89,2.08,2.08,0,0,0-.23-1c-.05-.09-.1-.21-.14-.29s-.06-.11-.15-.21-.34-.39-.55-.6A39.52,39.52,0,0,0,46,170l-3.45-2.67a57.82,57.82,0,0,1-6.8-6.05,19.73,19.73,0,0,1-2.92-4,11.2,11.2,0,0,1-1-2.58,8.64,8.64,0,0,1-.2-3.06,21.42,21.42,0,0,0-.49-7.74,17.21,17.21,0,0,0-1.31-3.55,6.47,6.47,0,0,0-.42-.75,3.27,3.27,0,0,0-.19-.28l-.08-.11,0,0c.08.08-.23-.23-.32-.35a2.86,2.86,0,0,1-.26-.38,3.48,3.48,0,0,1-.26-.49,7.81,7.81,0,0,1-.31-.72c-.15-.44-.29-.85-.39-1.25a30,30,0,0,1-1-9.54,17.65,17.65,0,0,1,1-5,10.18,10.18,0,0,1,3.51-4.75l.33-.23.11-.08.05,0,.23-.17a2.79,2.79,0,0,0,.38-.39,4.41,4.41,0,0,0,.61-1.13,17.43,17.43,0,0,0,.73-3.62c.35-2.78.67-6.16,2.33-9.38a14.53,14.53,0,0,1,3.26-4.28,19.15,19.15,0,0,1,4.25-2.89c2.57-1.33,5.14-2.71,7.79-4a79.11,79.11,0,0,1,8.31-3.67,41,41,0,0,1,9.15-2.26,40,40,0,0,1,4.77-.26c.8,0,1.59.07,2.39.11l2.08.13a63.82,63.82,0,0,0,8.3-.15,45.53,45.53,0,0,0,8-1.35,18.66,18.66,0,0,0,6.64-3l.57-.5c.18-.17.29-.35.45-.51l.11-.13.05-.06.12-.15.51-.6a6.81,6.81,0,0,1,1.09-1.12,11.91,11.91,0,0,1,1.21-.94l1.27-.75a15.48,15.48,0,0,1,2.6-1,21,21,0,0,1,5-.83,34.82,34.82,0,0,1,4.8,0c1.57.11,3.1.31,4.6.54s3.41.61,3.43.53,0,0,.17-.09a9.85,9.85,0,0,0,1-1.16,15.88,15.88,0,0,1,1.83-2,10.64,10.64,0,0,1,2.66-1.77c.49-.23,1-.38,1.48-.56s1-.22,1.47-.33c.71-.12,1.33-.23,2-.37,1.34-.28,2.68-.61,4-1a54,54,0,0,0,7.72-2.76,28.28,28.28,0,0,0,6.62-4,10.46,10.46,0,0,0,3.65-5.33,4.57,4.57,0,0,0,.14-.72l.06-.38,0-.54.19-2.16c.11-1.46.26-3,.42-4.45a62.45,62.45,0,0,1,1.74-9.11,41.91,41.91,0,0,1,3.67-8.8,36.12,36.12,0,0,1,5.86-7.59,47.53,47.53,0,0,1,15.72-10c2.86-1.22,5.64-2.11,8.48-3s5.68-1.71,8.54-2.47q8.59-2.26,17.36-3.7a154,154,0,0,1,17.71-2,93.19,93.19,0,0,1,18,.67,51.87,51.87,0,0,1,9,2.13,29.31,29.31,0,0,1,8.55,4.47c.65.54,1.28,1.1,1.9,1.66s1.16,1.25,1.69,1.91,1,1.43,1.42,2.1l1.13,2a52.19,52.19,0,0,1,3.8,8.39,31.11,31.11,0,0,1,1.82,9.34,20.76,20.76,0,0,1-1.95,9.68,23.2,23.2,0,0,1-1.22,2.19c-.22.33-.45.69-.68,1l-.16.24c-.05.06-.15.2-.12.17s0,0,0,0a1.84,1.84,0,0,0,0,.8,5.42,5.42,0,0,0,.45,1.41,15.54,15.54,0,0,0,4.9,5.55,24.1,24.1,0,0,0,3.39,2.06,18.81,18.81,0,0,0,1.82.84,16.39,16.39,0,0,0,1.82.69,28.1,28.1,0,0,0,8,1c1.43,0,2.91,0,4.48.11a14.53,14.53,0,0,1,5,1.06,8.44,8.44,0,0,1,2.41,1.6,9.79,9.79,0,0,1,1.68,2.28,15.74,15.74,0,0,1,1.41,4.77,84.58,84.58,0,0,0,4.08,16.54,19.62,19.62,0,0,0,4.15,6.8,10,10,0,0,0,1.47,1.14l.38.25.48.29,1,.58c.64.41,1.3.76,1.92,1.2l1.84,1.34a32.28,32.28,0,0,1,6.41,6.43,30.94,30.94,0,0,1,4.28,8,36.75,36.75,0,0,1,1.28,17.73,54.5,54.5,0,0,1-5.57,16.68,51.05,51.05,0,0,1-4.7,7.42,30.29,30.29,0,0,1-2.91,3.29,11.83,11.83,0,0,1-3.54,2.53,11.49,11.49,0,0,0,3.39-2.69,30.39,30.39,0,0,0,2.71-3.38,51.53,51.53,0,0,0,4.27-7.55,54.93,54.93,0,0,0,4.74-16.52,35.38,35.38,0,0,0-1.84-16.71,28.79,28.79,0,0,0-10.26-12.89l-1.73-1.17c-.58-.39-1.22-.7-1.82-1.05l-.92-.51-.47-.26-.54-.33a13.32,13.32,0,0,1-2-1.46,22.53,22.53,0,0,1-5.19-7.81,86.83,86.83,0,0,1-4.75-17.18c-.07-.37-.14-.72-.21-1s-.15-.63-.24-.92a9.14,9.14,0,0,0-.66-1.62,5.71,5.71,0,0,0-.93-1.2,4.53,4.53,0,0,0-1.24-.76,10.7,10.7,0,0,0-3.53-.6c-1.35,0-2.78,0-4.26,0a32,32,0,0,1-9.3-1,19.7,19.7,0,0,1-2.28-.78c-.73-.29-1.46-.59-2.16-1A28.72,28.72,0,0,1,285,57.77a20.42,20.42,0,0,1-6.61-7.35,10.34,10.34,0,0,1-.89-2.72,6.64,6.64,0,0,1,.26-3.5,9.75,9.75,0,0,1,.5-1,2.88,2.88,0,0,1,.18-.28l.14-.21c.21-.29.36-.55.54-.82a16.39,16.39,0,0,0,.88-1.65c2.08-4.49,1.48-10-.39-15A45.7,45.7,0,0,0,276,17.87L275,16.07c-.35-.58-.71-1-1.05-1.5s-.83-.88-1.23-1.33L271.29,12c-4-3-9.43-4.48-14.87-5.24a87.36,87.36,0,0,0-16.83-.43,152.16,152.16,0,0,0-17,2.08c-5.64,1-11.22,2.29-16.75,3.74-2.76.75-5.51,1.54-8.23,2.41s-5.46,1.79-7.94,2.88a40.62,40.62,0,0,0-13.49,8.63,29.15,29.15,0,0,0-4.76,6.2,35.37,35.37,0,0,0-3,7.29,56.26,56.26,0,0,0-1.49,8c-.14,1.39-.28,2.79-.39,4.24l-.18,2.18,0,.56-.09.7a9.87,9.87,0,0,1-.27,1.42,15.09,15.09,0,0,1-2.34,5.09,20.46,20.46,0,0,1-3.56,3.84,35,35,0,0,1-8.24,5,60.39,60.39,0,0,1-8.72,3.09c-1.47.41-3,.76-4.47,1.07-.74.15-1.55.29-2.28.42l-.66.14c-.18.08-.39.13-.56.21a5.5,5.5,0,0,0-2.06,1.86,15.21,15.21,0,0,1-1.91,2.08,7.18,7.18,0,0,1-3.77,1.63c-.32,0-.64,0-1,0a5.76,5.76,0,0,1-.86-.07l-.79-.1-.53-.1c-.7-.13-1.38-.25-2.07-.36-1.36-.22-2.72-.39-4.06-.49a28.72,28.72,0,0,0-3.92-.07,14.74,14.74,0,0,0-3.54.56,9.49,9.49,0,0,0-1.48.55l-.6.36a3.33,3.33,0,0,0-.51.4,1.5,1.5,0,0,0-.43.44l-.21.22-.06.06-.11.15-.24.29c-.33.38-.65.79-1,1.12l-1.06,1a19.27,19.27,0,0,1-4.52,2.64,32.11,32.11,0,0,1-4.6,1.58,51.71,51.71,0,0,1-9.2,1.44,68.15,68.15,0,0,1-9.15.06l-2.27-.16c-.66,0-1.32-.09-2-.12a34.35,34.35,0,0,0-3.93.17c-5.24.56-10.36,2.64-15.49,5.14-2.56,1.25-5.14,2.58-7.75,3.9a10.49,10.49,0,0,0-5,4.55c-1.08,2-1.43,4.52-1.85,7.47a21.75,21.75,0,0,1-1.15,4.89,9.5,9.5,0,0,1-1.55,2.65,8.41,8.41,0,0,1-1.16,1.15c-.21.17-.43.32-.65.47l-.4.28a4.52,4.52,0,0,0-1.61,2.17,12,12,0,0,0-.74,3.46,24.81,24.81,0,0,0,.68,7.76,7.86,7.86,0,0,0,.25.85c0,.1.08.24.1.28s0,0,0,0l-.11-.15c0-.05-.28-.29-.14-.14l.39.42.25.34c.17.23.28.41.41.62a12.24,12.24,0,0,1,.63,1.17,22.16,22.16,0,0,1,1.62,4.65,26.52,26.52,0,0,1,.43,9.6c-.3,1.52,1,3.86,2.8,5.81a54.83,54.83,0,0,0,6.11,5.69l3.37,2.77a39.65,39.65,0,0,1,3.45,3.09,9.93,9.93,0,0,1,.89,1.05,7.82,7.82,0,0,1,.45.7c.12.24.21.46.31.69a6,6,0,0,1,.47,3.24,5.84,5.84,0,0,1-1.42,3,8.15,8.15,0,0,1-1.1,1,8.65,8.65,0,0,1-1.32.81,2,2,0,0,1-.86.19,18.1,18.1,0,0,0-6.14.82,15.49,15.49,0,0,0-5.29,3A18.67,18.67,0,0,0,34.31,189a23.34,23.34,0,0,0-1.38,2.9c-.2.51-.42,1-.6,1.51L31.85,195a33.68,33.68,0,0,0-1.37,13,24.27,24.27,0,0,0,.6,3.17c.15.52.26,1.05.45,1.56l.59,1.49a18,18,0,0,0,3.55,5.34l.55.59.61.53c.42.34.81.71,1.24,1a23.37,23.37,0,0,0,2.78,1.72A26.94,26.94,0,0,0,47,225.73l3.32.63a32.66,32.66,0,0,1,3.43.74c1.13.3,2.26.6,3.35,1l1.65.56,1.61.65a87.5,87.5,0,0,1,12.33,6.25A122.55,122.55,0,0,1,84.09,243.31Z" transform="translate(-0.38)"/><path class="cls-40" d="M195.16,43.12A58.11,58.11,0,0,1,201,51.39q2.53,4.3,4.61,8.83a96.07,96.07,0,0,1,3.71,9.23,58.2,58.2,0,0,1,2.52,9.78A58.18,58.18,0,0,1,206,71a96.05,96.05,0,0,1-4.6-8.83c-1.38-3-2.63-6.08-3.71-9.23A58.44,58.44,0,0,1,195.16,43.12Z" transform="translate(-0.38)"/><path class="cls-41" d="M254.09,41.85A59.77,59.77,0,0,1,253.77,52c-.37,3.33-.91,6.61-1.6,9.87a96.83,96.83,0,0,1-2.56,9.66,56.75,56.75,0,0,1-3.84,9.38,57.91,57.91,0,0,1,.32-10.14,96,96,0,0,1,1.6-9.86,99.63,99.63,0,0,1,2.56-9.66A58.54,58.54,0,0,1,254.09,41.85Z" transform="translate(-0.38)"/><path class="cls-42" d="M258.82,98.17a52.07,52.07,0,0,1,7.87-5.32,86.76,86.76,0,0,1,8.39-4.11,83.29,83.29,0,0,1,8.76-3.21,50.45,50.45,0,0,1,9.29-2,50.78,50.78,0,0,1-7.87,5.31A86.68,86.68,0,0,1,276.88,93a89.07,89.07,0,0,1-8.77,3.2A52.16,52.16,0,0,1,258.82,98.17Z" transform="translate(-0.38)"/><path class="cls-43" d="M95.55,26.58c2.9,1.18,5.75,2.45,8.58,3.74s5.66,2.61,8.45,4,5.6,2.72,8.36,4.15,5.54,2.83,8.29,4.28a1.69,1.69,0,0,1-.16,3.05h0c-2,.8-3.92,1.61-5.9,2.37l-5.93,2.31-6,2.21c-2,.75-4,1.42-6,2.14l-.06-2.35c1.32.5,2.64,1,4,1.57s2.64,1.06,3.94,1.62c2.62,1.1,5.24,2.23,7.82,3.45-2.79-.59-5.56-1.28-8.31-2-1.38-.35-2.74-.74-4.11-1.11s-2.74-.75-4.1-1.16a1.23,1.23,0,0,1-.83-1.54,1.24,1.24,0,0,1,.68-.77l.08,0c1.94-.85,3.87-1.76,5.82-2.58l5.85-2.5L121.89,45c2-.82,3.94-1.57,5.91-2.35l-.17,3.06c-2.73-1.49-5.46-3-8.15-4.53s-5.4-3.09-8.08-4.67-5.34-3.2-8-4.84S98.14,28.34,95.55,26.58Z" transform="translate(-0.38)"/><path class="cls-44" d="M.38,133.22q2.52,2.76,5,5.57c1.61,1.88,3.25,3.75,4.83,5.66s3.2,3.79,4.76,5.72,3.15,3.83,4.69,5.77l-2.18-.19,6.26-6L30,143.78c2.1-2,4.26-3.93,6.39-5.89s4.27-3.91,6.45-5.83l.06-.05a1.54,1.54,0,0,1,2.19.14,1.41,1.41,0,0,1,.27.43c1.09,2.61,2.21,5.2,3.26,7.82s2.15,5.23,3.16,7.87c2.07,5.25,4.06,10.55,5.89,15.91-2.75-5-5.35-10-7.86-15-1.28-2.52-2.48-5.08-3.73-7.61s-2.41-5.11-3.61-7.66l2.52.52c-2.08,2-4.2,4-6.31,6s-4.22,4-6.37,5.92l-6.41,5.86-6.49,5.78,0,0a1.47,1.47,0,0,1-2.06-.12l-.08-.1c-1.47-2-2.89-4-4.34-6s-2.86-4.06-4.28-6.09-2.8-4.09-4.2-6.14S1.71,135.32.38,133.22Z" transform="translate(-0.38)"/><path class="cls-45" d="M314.57,102.26c.64,1.5,1.27,3,1.87,4.52s1.17,3,1.77,4.54l1.69,4.57c.57,1.52,1.1,3,1.64,4.58l-2.36-.27c1.51-2.86,3.07-5.69,4.63-8.51s3.18-5.63,4.77-8.44,3.27-5.57,4.9-8.36,3.36-5.52,5-8.28l0,0a1.47,1.47,0,0,1,2-.49,1.64,1.64,0,0,1,.37.32c2.07,2.51,4.09,5.07,6.13,7.6s4.06,5.09,6.08,7.65,4,5.14,6,7.71,3.95,5.18,5.89,7.81q-3.4-3.51-6.74-7.09c-2.2-2.4-4.43-4.78-6.61-7.2s-4.38-4.82-6.54-7.26-4.34-4.85-6.47-7.31l2.41-.21c-1.58,2.82-3.09,5.68-4.72,8.47s-3.17,5.62-4.84,8.39-3.27,5.57-5,8.32-3.38,5.51-5.13,8.23l-.05.09a1.27,1.27,0,0,1-1.76.38,1.24,1.24,0,0,1-.54-.74c-.42-1.57-.85-3.14-1.23-4.71l-1.17-4.73c-.36-1.59-.76-3.16-1.1-4.76S314.89,103.86,314.57,102.26Z" transform="translate(-0.38)"/><circle class="cls-46" cx="82.55" cy="148.7" r="2.87"/><ellipse class="cls-47" cx="90.63" cy="107.54" rx="3.12" ry="4.39"/><ellipse class="cls-48" cx="127.02" cy="96.32" rx="4.16" ry="1.95"/><ellipse class="cls-49" cx="332.84" cy="79.24" rx="3.12" ry="5.37"/><ellipse class="cls-50" cx="319.84" cy="28.48" rx="2.6" ry="2.44"/></g></g></svg>